<?xml version="1.0" standalone="no"?>
<!DOCTYPE svg PUBLIC "-//W3C//DTD SVG 1.1//EN" "http://www.w3.org/Graphics/SVG/1.1/DTD/svg11.dtd" >
<svg xmlns="http://www.w3.org/2000/svg" xmlns:xlink="http://www.w3.org/1999/xlink" version="1.1">
<metadata>
Created by FontForge 20190801 at Fri Dec 16 14:43:54 2005
 By www-data
(c) 2005 Microsoft Corporation. All Rights Reserved.
</metadata>
<defs>
<font id="CORBEL" horiz-adv-x="1050" >
  <font-face 
    font-family="CORBEL"
    font-weight="400"
    font-stretch="normal"
    units-per-em="2048"
    panose-1="2 11 5 3 2 2 4 2 2 4"
    ascent="1523"
    descent="-525"
    x-height="950"
    cap-height="1338"
    bbox="-1059 -490 2273 1943"
    underline-thickness="120"
    underline-position="-250"
    unicode-range="U+0020-FB04"
  />
<missing-glyph horiz-adv-x="948" 
d="M948 1338v-1338h-948v1338h948zM855 91v1156h-762v-1156h762zM363 224v125h122v-125h-122zM715 896q0 -35 -9.5 -62t-25 -49.5t-35.5 -41t-42 -35.5q-24 -19 -48 -38.5t-43 -42t-31 -51t-12 -65.5v-11h-88q-1 7 -1.5 15t-0.5 13q0 50 15 85.5t37.5 62t50.5 47.5t53 41
q32 25 54 54t22 73q0 57 -44.5 88.5t-117.5 31.5q-50 0 -96 -12t-82 -28v84q35 19 84 30.5t98 11.5q61 0 109.5 -14.5t82.5 -41t52 -63.5t18 -82z" />
    <glyph glyph-name="uniFB00" unicode="ff" horiz-adv-x="1237" 
d="M546 1473q35 0 69.5 -4t56.5 -9v-131q-32 5 -58 7t-46 2q-51 0 -91.5 -13t-68 -41.5t-42 -75t-14.5 -112.5v-146h431v149q0 99 27.5 169.5t75.5 116t113 67t140 21.5q48 0 88.5 -5t59.5 -11v-131q-30 6 -66 9t-62 3q-52 0 -93.5 -13t-69.5 -41.5t-43 -75t-15 -112.5v-146
h283v-133h-283v-817h-155v817h-431v-817h-155v817h-167v133h167v149q0 99 27.5 169.5t74.5 116t110.5 67t136.5 21.5z" />
    <glyph glyph-name="uniFB01" unicode="fi" horiz-adv-x="1098" 
d="M352 817v-817h-155v817h-167v133h167v111q0 113 37.5 191.5t99 127.5t140.5 71t162 22q30 0 62.5 -2.5t64 -7t60.5 -10.5t51 -13v-132q-57 14 -109 22t-111 8q-147 0 -224.5 -69t-77.5 -211v-108h586v-950h-155v817h-431z" />
    <glyph glyph-name="uniFB02" unicode="fl" horiz-adv-x="1098" 
d="M635 817h-283v-817h-155v817h-167v133h167v111q0 112 37.5 190t99 127.5t141.5 72t165 22.5q44 0 86 -4t81 -10t72.5 -14t58.5 -16v-1429h-155v1322q-32 8 -64 12t-63 4q-149 0 -226.5 -69t-77.5 -211v-108h283v-133z" />
    <glyph glyph-name="uniFB03" unicode="ffi" horiz-adv-x="1684" 
d="M938 817v-817h-155v817h-431v-817h-155v817h-167v133h167v149q0 99 27.5 169.5t74.5 116t110.5 67t136.5 21.5q35 0 69.5 -4t56.5 -9v-131q-32 5 -58 7t-46 2q-51 0 -91.5 -13t-68 -41.5t-42 -75t-14.5 -112.5v-146h431v111q0 113 37.5 191.5t99 127.5t140.5 71t162 22
q30 0 62.5 -2.5t64 -7t60.5 -10.5t51 -13v-132q-57 14 -109.5 22t-108.5 8q-149 0 -226.5 -69t-77.5 -211v-108h586v-950h-155v817h-431z" />
    <glyph glyph-name="uniFB04" unicode="ffl" horiz-adv-x="1684" 
d="M1221 817h-283v-817h-155v817h-431v-817h-155v817h-167v133h167v149q0 99 27.5 169.5t74.5 116t110.5 67t136.5 21.5q35 0 69.5 -4t56.5 -9v-131q-31 5 -57.5 7t-46.5 2q-51 0 -91.5 -13t-68 -41.5t-42 -75t-14.5 -112.5v-146h431v111q0 112 37.5 190t99 127.5t141.5 72
t165 22.5q44 0 86 -4t81 -10t72.5 -14t58.5 -16v-1429h-155v1325q-32 6 -64 9.5t-63 3.5q-149 0 -226.5 -69t-77.5 -211v-108h283v-133z" />
    <glyph glyph-name="f_b.liga" unicode="fb" horiz-adv-x="1720" 
d="M938 861h3q51 54 119 84t155 30q41 0 87 -9t91.5 -31t87.5 -58t74 -89.5t51 -127t19 -169.5q0 -133 -36 -230t-95 -160.5t-135 -94.5t-157 -31q-61 0 -107.5 15.5t-79.5 37t-52 43.5t-27 35h-3l-33 -106h-117v1322q-32 8 -64 12t-65 4q-147 0 -224.5 -69t-77.5 -211v-108
h283v-133h-283v-817h-155v817h-167v133h167v111q0 112 37.5 190t99 127.5t141.5 72t165 22.5q44 0 86 -4t81 -10t72.5 -14t58.5 -16v-568zM1463 479q0 113 -27 183.5t-68 110.5t-89.5 54.5t-92.5 14.5q-72 0 -135.5 -30t-112.5 -78v-497q14 -19 36.5 -41.5t53.5 -42
t69.5 -33t84.5 -13.5q69 0 121.5 27t88 76.5t53.5 118t18 150.5z" />
    <glyph glyph-name="f_f_b.liga" unicode="ffb" horiz-adv-x="2306" 
d="M352 817v-817h-155v817h-167v133h167v149q0 99 27.5 169.5t74.5 116t110.5 67t136.5 21.5q35 0 69.5 -4t56.5 -9v-131q-31 5 -57.5 7t-46.5 2q-51 0 -91.5 -13t-68 -41.5t-42 -75t-14.5 -112.5v-146h431v111q0 112 37.5 190t99 127.5t141.5 72t165 22.5q44 0 86 -4
t81 -10t72.5 -14t58.5 -16v-568h3q51 54 119 84t155 30q40 0 86.5 -9t92 -31t87.5 -58t74 -89.5t51 -127t19 -169.5q0 -133 -36 -230t-95 -160.5t-135 -94.5t-157 -31q-61 0 -107.5 15.5t-79.5 37.5t-52 43.5t-27 34.5h-3l-33 -106h-117v1322q-32 8 -64 12t-63 4
q-149 0 -226.5 -69t-77.5 -211v-108h283v-133h-283v-817h-155v817h-431zM2049 479q0 113 -27 183.5t-68 110.5t-89.5 54.5t-92.5 14.5q-72 0 -135.5 -30t-112.5 -78v-497q14 -19 36.5 -41.5t53.5 -42t69.5 -33t84.5 -13.5q69 0 121.5 27t88 76.5t53.5 118t18 150.5z" />
    <glyph glyph-name="f_h.liga" unicode="fh" horiz-adv-x="1713" 
d="M938 820h3q26 33 58 61.5t71 49t84 32.5t97 12q54 0 107.5 -14t100 -51.5t75.5 -104.5t29 -169v-636h-155v611q0 115 -43.5 173t-142.5 58q-82 0 -156 -44.5t-128 -122.5v-675h-155v1322q-32 8 -64 12t-63 4q-149 0 -226.5 -69.5t-77.5 -213.5v-105h283v-133h-283v-817
h-155v817h-167v133h167v111q0 112 37.5 190t99 127.5t141.5 72t165 22.5q44 0 87 -4t81 -10t71.5 -14t58.5 -16v-609z" />
    <glyph glyph-name="f_f_h.liga" unicode="ffh" horiz-adv-x="2299" 
d="M1524 820h3q26 33 58 61.5t71 49t84 32.5t97 12t107 -14t100.5 -51.5t75 -103.5t29.5 -170v-636h-155v611q0 115 -43.5 173t-142.5 58q-82 0 -156 -44.5t-128 -122.5v-675h-155v1322q-32 8 -64 12t-67 4q-145 0 -222.5 -69t-77.5 -211v-108h283v-133h-283v-817h-155v817
h-431v-817h-155v817h-167v133h167v149q0 99 27.5 169.5t74.5 116t110.5 67t136.5 21.5q35 0 69.5 -4t56.5 -9v-131q-32 5 -58 7t-46 2q-51 0 -91.5 -13t-68 -41.5t-42 -75t-14.5 -112.5v-146h431v111q0 112 37.5 190t99 127.5t141.5 72t165 22.5q44 0 86 -4t80.5 -10
t72.5 -14t59 -16v-609z" />
    <glyph glyph-name="f_j.liga" unicode="fj" horiz-adv-x="1098" 
d="M938 -212q0 -131 -75 -204.5t-238 -73.5q-41 0 -81.5 6.5t-59.5 13.5v132q28 -8 59 -12.5t63 -4.5q95 0 136 39t41 122v1011h-431v-817h-155v817h-167v133h167v111q0 113 37.5 191.5t99 127.5t140.5 71t162 22q30 0 62.5 -2.5t64 -7t60.5 -10.5t51 -13v-132
q-57 14 -110 22t-108 8q-149 0 -226.5 -69t-77.5 -211v-108h586v-1162z" />
    <glyph glyph-name="f_f_j.liga" unicode="ffj" horiz-adv-x="1684" 
d="M1524 -212q0 -131 -75 -204.5t-238 -73.5q-42 0 -82 6.5t-59 13.5v132q30 -8 59.5 -12.5t62.5 -4.5q95 0 136 39t41 122v1011h-431v-817h-155v817h-431v-817h-155v817h-167v133h167v149q0 99 27.5 169.5t74.5 116t110.5 67t136.5 21.5q35 0 69.5 -4t56.5 -9v-131
q-32 5 -58 7t-46 2q-51 0 -91.5 -13t-68 -41.5t-42 -75t-14.5 -112.5v-146h431v111q0 113 37.5 191.5t99 127.5t140.5 71t162 22q30 0 62.5 -2.5t64 -7t60.5 -10.5t51 -13v-132q-57 14 -111 22t-107 8q-149 0 -226.5 -69t-77.5 -211v-108h586v-1162z" />
    <glyph glyph-name="f_k.liga" unicode="fk" horiz-adv-x="1620" 
d="M783 1322q-32 8 -64 12t-63 4q-149 0 -226.5 -69t-77.5 -211v-108h283v-133h-283v-817h-155v817h-167v133h167v111q0 112 37.5 190t99 127.5t141.5 72t165 22.5q44 0 86 -4t81 -10t72.5 -14t58.5 -16v-903h2l448 424h202l-464 -437l463 -513h-193l-456 506h-2v-506h-155
v1322z" />
    <glyph glyph-name="f_f_k.liga" unicode="ffk" horiz-adv-x="2206" 
d="M1369 1322q-32 8 -64 12t-63 4q-149 0 -226.5 -69t-77.5 -211v-108h283v-133h-283v-817h-155v817h-431v-817h-155v817h-167v133h167v149q0 99 27.5 169.5t74.5 116t110.5 67t136.5 21.5q35 0 69.5 -4t56.5 -9v-131q-32 5 -58 7t-46 2q-51 0 -91.5 -13t-68 -41.5t-42 -75
t-14.5 -112.5v-146h431v111q0 112 37.5 190t99 127.5t141.5 72t165 22.5q44 0 86 -4t81 -10t72.5 -14t58.5 -16v-903h2l448 424h202l-464 -437l463 -513h-193l-456 506h-2v-506h-155v1322z" />
    <glyph glyph-name=".notdef" horiz-adv-x="948" 
d="M948 1338v-1338h-948v1338h948zM855 91v1156h-762v-1156h762zM363 224v125h122v-125h-122zM715 896q0 -35 -9.5 -62t-25 -49.5t-35.5 -41t-42 -35.5q-24 -19 -48 -38.5t-43 -42t-31 -51t-12 -65.5v-11h-88q-1 7 -1.5 15t-0.5 13q0 50 15 85.5t37.5 62t50.5 47.5t53 41
q32 25 54 54t22 73q0 57 -44.5 88.5t-117.5 31.5q-50 0 -96 -12t-82 -28v84q35 19 84 30.5t98 11.5q61 0 109.5 -14.5t82.5 -41t52 -63.5t18 -82z" />
    <glyph glyph-name="glyph1" horiz-adv-x="0" 
 />
    <glyph glyph-name="glyph2" horiz-adv-x="410" 
 />
    <glyph glyph-name="space" unicode=" " horiz-adv-x="410" 
 />
    <glyph glyph-name="space" unicode="&#xa0;" horiz-adv-x="410" 
 />
    <glyph glyph-name="exclam" unicode="!" horiz-adv-x="541" 
d="M175 0v195h191v-195h-191zM360 1338l-24 -907h-131l-24 907h179z" />
    <glyph glyph-name="quotedbl" unicode="&#x22;" horiz-adv-x="742" 
d="M123 1338h155v-494h-155v494zM464 1338h155v-494h-155v494z" />
    <glyph glyph-name="numbersign" unicode="#" horiz-adv-x="1341" 
d="M428 949l80 389h148l-80 -389h304l80 389h148l-80 -389h193v-132h-220l-61 -296h199v-132h-226l-80 -389h-148l80 389h-304l-80 -389h-148l80 389h-193v132h220l61 296h-199v132h226zM488 521h304l61 296h-304z" />
    <glyph glyph-name="dollar" unicode="$" 
d="M455 25q-47 0 -94.5 4t-89.5 11t-75.5 16t-53.5 19v138q32 -12 76 -24t106 -20.5t124 -8.5h7v286q-59 10 -115.5 25t-101 44t-71.5 75t-27 117q0 59 23.5 107t65 83t99.5 57t127 29v104h132v-101q82 -4 151.5 -16t126.5 -31v-139q-63 19 -130 33t-148 18v-283
q60 -11 118.5 -26.5t105 -44t75 -74t28.5 -116.5q0 -57 -23 -103.5t-66 -81t-103 -57t-135 -32.5v-108h-132v100zM757 306q0 29 -12 48.5t-34.5 33.5t-53.5 23.5t-70 16.5v-259q35 6 66 16t54 26.5t36.5 39.5t13.5 55zM297 713q0 -53 38.5 -81.5t119.5 -43.5v259
q-158 -20 -158 -134z" />
    <glyph glyph-name="percent" unicode="%" horiz-adv-x="1648" 
d="M1305 852q63 0 115.5 -26.5t89.5 -80.5t57.5 -135.5t20.5 -191.5t-20.5 -191.5t-57.5 -135.5t-89.5 -81t-115.5 -27t-115.5 27t-89.5 81t-57.5 135.5t-20.5 191.5t20.5 191.5t57.5 135.5t89.5 80.5t115.5 26.5zM1305 104q69 0 105 77.5t36 236.5t-36 236t-105 77
t-105 -77t-36 -236t36 -236.5t105 -77.5zM1263 1363l101 -78l-977 -1310l-101 78zM343 1363q63 0 115.5 -26.5t89.5 -80.5t57.5 -135.5t20.5 -191.5t-20.5 -191.5t-57.5 -135.5t-89.5 -81t-115.5 -27t-115.5 27t-89.5 81t-57.5 135.5t-20.5 191.5t20.5 191.5t57.5 135.5
t89.5 80.5t115.5 26.5zM343 615q69 0 105 77.5t36 236.5t-36 236t-105 77t-105 -77t-36 -236t36 -236.5t105 -77.5z" />
    <glyph glyph-name="ampersand" unicode="&#x26;" horiz-adv-x="1371" 
d="M1229 696q-2 -145 -49.5 -263t-126.5 -209q43 -44 80.5 -83t66.5 -69t47.5 -48.5l23.5 -23.5h-197l-38.5 38.5t-86.5 88.5q-97 -74 -209 -113t-227 -39q-110 0 -188.5 30t-128.5 79t-73 111.5t-23 127.5q0 78 22.5 137t61 104.5t88.5 81t104 65.5q-40 38 -75.5 76t-62 79
t-41.5 86.5t-15 99.5q0 74 26.5 131.5t75.5 97.5t117 61t151 21q76 0 141.5 -19t114 -56.5t76.5 -92.5t28 -127q0 -75 -26 -131.5t-69 -101.5t-98 -80.5t-114 -67.5q33 -34 74.5 -76.5t87 -89.5t93.5 -96.5t95 -98.5q51 67 81.5 158t32.5 212h160zM513 107q37 0 79.5 6.5
t86.5 20.5t88.5 36t85.5 53q-48 49 -99.5 102t-102 104.5t-96.5 98.5t-83 85q-44 -25 -82 -53.5t-66.5 -61.5t-45 -73t-16.5 -90q0 -44 15 -85t46 -73t78.5 -51t111.5 -19zM344 1052q0 -37 11 -70t32.5 -65t52.5 -65t71 -72q48 25 91.5 52t76.5 59t52 72t19 91q0 47 -15 80
t-42 55t-64.5 32t-82.5 10q-94 0 -148 -46t-54 -133z" />
    <glyph glyph-name="quotesingle" unicode="'" horiz-adv-x="401" 
d="M123 1338h155v-494h-155v494z" />
    <glyph glyph-name="parenleft" unicode="(" horiz-adv-x="614" 
d="M265 519q0 -134 23 -248t61 -209t88.5 -171.5t104.5 -135.5l-85 -80q-28 24 -65 64.5t-75.5 97t-75.5 128t-66 157t-47 185.5t-18 212q0 113 18 212.5t47 185t66 157t75.5 128t75.5 97t65 64.5l85 -80q-54 -59 -104.5 -135.5t-88.5 -171.5t-61 -209t-23 -248z" />
    <glyph glyph-name="parenright" unicode=")" horiz-adv-x="614" 
d="M349 519q0 134 -23 248t-61 209t-88.5 171.5t-104.5 135.5l85 80q28 -24 65 -64.5t75.5 -97t75.5 -128t66 -157t47 -185t18 -212.5q0 -112 -18 -212t-47 -185.5t-66 -157t-75.5 -128t-75.5 -97t-65 -64.5l-85 80q54 59 104.5 135.5t88.5 171.5t61 209t23 248z" />
    <glyph glyph-name="asterisk" unicode="*" horiz-adv-x="1101" 
d="M553 849h-5l-82 -199l-112 -154l-117 85l112 154l154 147l-2 5l-206 21l-175 57l45 138l175 -57l178 -104l4 4l-44 202v190h145v-190l-44 -202l4 -4l178 104l175 57l45 -138l-175 -57l-206 -21l-2 -5l154 -147l112 -154l-117 -85l-112 154z" />
    <glyph glyph-name="plus" unicode="+" 
d="M115 587h340v363h140v-363h340v-132h-340v-363h-140v363h-340v132z" />
    <glyph glyph-name="comma" unicode="," horiz-adv-x="540" 
d="M187 218h173l-189 -608h-151z" />
    <glyph glyph-name="hyphen" unicode="-" horiz-adv-x="681" 
d="M120 571h441v-145h-441v145z" />
    <glyph glyph-name="hyphen" unicode="&#x2010;" horiz-adv-x="681" 
d="M120 571h441v-145h-441v145z" />
    <glyph glyph-name="hyphen" unicode="&#xad;" horiz-adv-x="681" 
d="M120 571h441v-145h-441v145z" />
    <glyph glyph-name="period" unicode="." horiz-adv-x="541" 
d="M175 0v195h191v-195h-191z" />
    <glyph glyph-name="slash" unicode="/" horiz-adv-x="563" 
d="M18 -249l380 1587h148l-380 -1587h-148z" />
    <glyph glyph-name="zero" unicode="0" horiz-adv-x="1052" 
d="M800 474q0 86 -19.5 154.5t-55 116t-86 73t-113.5 25.5t-113.5 -25.5t-86.5 -73t-55 -116t-19 -154.5q0 -85 19.5 -153.5t55 -115.5t86.5 -72.5t114 -25.5t113.5 25.5t86 72.5t54.5 115.5t19 153.5zM962 474q0 -106 -29.5 -197.5t-85.5 -158.5t-136.5 -105t-183.5 -38
q-106 0 -187.5 38t-137 105t-84 158.5t-28.5 197.5q0 107 29.5 198.5t85.5 159t137 105.5t184 38q105 0 186.5 -38t137 -105.5t84 -159t28.5 -198.5z" />
    <glyph glyph-name="one" unicode="1" horiz-adv-x="918" 
d="M451 143v642l-361 -113v144l382 134h134v-807h262v-143h-736v143h319z" />
    <glyph glyph-name="two" unicode="2" horiz-adv-x="1046" 
d="M408 137q115 6 207 6h312v-143h-772v103q115 85 212 158.5t167.5 141t110.5 131.5t40 129q0 87 -56 133t-161 46q-78 -1 -151.5 -23t-151.5 -58v132q57 33 140.5 57.5t183.5 24.5q79 0 144.5 -20t113 -58.5t73.5 -95t26 -130.5q0 -79 -34 -147.5t-93 -131.5t-139 -124.5
t-172 -126.5v-4z" />
    <glyph glyph-name="three" unicode="3" horiz-adv-x="928" 
d="M558 308q53 -5 101.5 -26t86 -60t60 -96t22.5 -134q0 -92 -31 -167t-91 -128t-148.5 -81.5t-204.5 -28.5q-81 0 -154.5 15t-130.5 44v132q72 -31 142 -44.5t132 -13.5q92 0 154 22.5t99.5 59.5t54 85.5t16.5 101.5q0 130 -83 187.5t-240 57.5h-106v133h62
q86 0 147.5 19.5t101.5 54t58.5 81t18.5 100.5q0 57 -20.5 98.5t-56 68.5t-83.5 40t-103 13q-68 0 -137 -16t-136 -43v132q82 34 156.5 47t131.5 13q97 0 173 -26t128.5 -73t80.5 -111t28 -141q0 -51 -12 -99t-39.5 -89t-71 -73t-106.5 -51v-4z" />
    <glyph glyph-name="four" unicode="4" horiz-adv-x="1058" 
d="M269 133v-4l148 4h219v304h155v-304h197v-133h-197v-387h-155v387h-544v114l394 836h167z" />
    <glyph glyph-name="five" unicode="5" horiz-adv-x="983" 
d="M878 13q0 -92 -33.5 -170t-97 -135t-154.5 -89t-207 -32q-76 0 -145 14.5t-124 44.5v132q74 -33 140 -44.5t122 -11.5q85 0 148 22.5t105 61.5t63 90.5t21 108.5q0 69 -21.5 119.5t-67.5 84t-118 50t-174 16.5q-72 0 -174 -10l95 685h621v-143h-484l-56 -397q35 2 56 2
q117 0 207.5 -27t152 -78t93.5 -125t32 -169z" />
    <glyph glyph-name="six" unicode="6" horiz-adv-x="1074" 
d="M564 806q89 0 164.5 -25.5t130 -75.5t85 -123.5t30.5 -169.5t-28.5 -176.5t-82.5 -138t-132 -90t-177 -32.5q-105 0 -187.5 42t-139.5 120t-87 189t-30 249q0 106 16.5 205.5t49 187t80 160t110.5 125t141 81.5t170 29q76 -1 131 -15t92 -32v-130q-40 16 -96 29t-116 13
q-72 0 -139.5 -29.5t-122.5 -91t-93.5 -156t-53.5 -224.5h4q63 36 137 57.5t144 21.5zM560 107q53 0 99 19t80 56t53.5 91.5t19.5 124.5q0 75 -20.5 126.5t-56 83.5t-83 46t-101.5 14q-71 0 -145 -25t-134 -61q-1 -120 20.5 -209.5t59.5 -148.5t91.5 -88t116.5 -29z" />
    <glyph glyph-name="seven" unicode="7" horiz-adv-x="876" 
d="M39 807v143h784v-104l-551 -1233h-162l534 1194h-605z" />
    <glyph glyph-name="eight" unicode="8" horiz-adv-x="1054" 
d="M527 -25q-97 0 -176.5 28.5t-136.5 78.5t-88 118.5t-31 148.5q0 74 21 131t56.5 99t83 69.5t100.5 40.5v4q-50 17 -92.5 46t-74 69.5t-49 92t-17.5 113.5q0 85 34 150t90.5 109.5t129 67t150.5 22.5t150.5 -22.5t129 -67t90.5 -109.5t34 -150q0 -62 -19.5 -113.5
t-52.5 -92t-77 -69.5t-94 -46v-4q53 -13 102 -40.5t86.5 -69.5t60 -99t22.5 -131q0 -80 -31 -148.5t-88 -118.5t-136.5 -78.5t-176.5 -28.5zM527 1231q-52 0 -96.5 -14.5t-77 -43t-50.5 -69.5t-18 -95q0 -102 63.5 -166t178.5 -87q115 23 178.5 87t63.5 166q0 54 -18 95
t-50.5 69.5t-76.5 43t-97 14.5zM527 619q-56 -6 -105 -24.5t-86 -51t-58 -79.5t-21 -110q0 -57 20.5 -103t56.5 -78t85.5 -49t107.5 -17q59 0 108.5 17t85.5 49t56 78t20 103q0 63 -21 110t-58 79.5t-86 51t-105 24.5z" />
    <glyph glyph-name="nine" unicode="9" horiz-adv-x="1074" 
d="M384 -413q-76 0 -141.5 15.5t-115.5 42.5v133q50 -26 113.5 -41t130.5 -15q92 0 166.5 28t129.5 88.5t88.5 155.5t43.5 229h-4q-28 -17 -63.5 -31.5t-75 -25t-81 -16.5t-81.5 -6q-82 0 -153.5 25.5t-125 75t-84.5 123.5t-31 171q0 92 27.5 172t80 138.5t130 92
t176.5 33.5q109 0 193 -41.5t141 -122t86.5 -198.5t29.5 -271q0 -103 -14 -198.5t-43 -179.5t-75.5 -153.5t-110.5 -119t-148 -77t-189 -27.5zM516 282q76 0 151 23.5t135 59.5q-1 126 -22.5 216.5t-59.5 148.5t-91.5 85.5t-118.5 27.5q-54 0 -99.5 -19t-78.5 -56t-51.5 -91
t-18.5 -123q0 -74 18 -125.5t51 -84t80 -47.5t105 -15z" />
    <glyph glyph-name="colon" unicode=":" horiz-adv-x="541" 
d="M175 0v195h191v-195h-191zM366 807v-195h-191v195h191z" />
    <glyph glyph-name="semicolon" unicode=";" horiz-adv-x="546" 
d="M187 218h173l-189 -608h-151zM366 807v-195h-191v195h191z" />
    <glyph glyph-name="less" unicode="&#x3c;" 
d="M935 207v-152l-820 413v126l820 413v-152l-652 -322v-4z" />
    <glyph glyph-name="equal" unicode="=" 
d="M115 639v132h820v-132h-820zM115 273v132h820v-132h-820z" />
    <glyph glyph-name="greater" unicode="&#x3e;" 
d="M777 529v4l-662 324v150l820 -408v-136l-820 -408v150z" />
    <glyph glyph-name="question" unicode="?" horiz-adv-x="873" 
d="M223 0v195h191v-195h-191zM772 1049q0 -60 -18.5 -107.5t-49 -85t-68 -68t-75.5 -60.5q-33 -26 -64.5 -54t-55.5 -61t-38.5 -74.5t-14.5 -91.5v-16h-137q-2 29 -2 44q0 68 20 123t54.5 97t75 74t79.5 62q27 21 51 43t42.5 47t29 54.5t10.5 66.5q0 44 -18.5 79t-52 59
t-80 37t-103.5 13q-75 0 -147.5 -19t-129.5 -45v132q54 29 130.5 47t153.5 18q95 0 170.5 -22.5t128 -64t81 -99t28.5 -128.5z" />
    <glyph glyph-name="at" unicode="@" horiz-adv-x="2070" 
d="M1260 417q-21 6 -43.5 12t-47.5 11t-55 8.5t-66 3.5q-99 0 -155 -42t-56 -129q0 -39 13 -67.5t35.5 -48t53 -29t65.5 -9.5q38 0 74.5 10t69 26.5t61 38.5t51.5 45v170zM1268 125q-21 -24 -49 -47.5t-64 -42t-80 -29.5t-96 -11q-66 0 -121.5 20t-95.5 57.5t-62.5 90
t-22.5 118.5q0 71 25.5 127t71.5 95t110.5 60t142.5 21q76 0 129.5 -13t99.5 -30h4v56q0 53 -12 96t-40 73.5t-73.5 47t-113.5 16.5q-72 0 -135.5 -13.5t-126.5 -37.5v130q25 12 57 22.5t68 18t76 11.5t80 4q96 0 166.5 -25t117 -70t69 -109t22.5 -142v-391q0 -52 16 -76.5
t61 -24.5q55 0 101 35t79 95t51.5 140t18.5 170q0 162 -54 285.5t-148 207t-219 126t-268 42.5q-127 0 -229.5 -29t-182.5 -80.5t-137.5 -123.5t-94.5 -157.5t-55 -181.5t-18 -197q0 -162 46.5 -297.5t139.5 -234t232 -153.5t324 -55q87 0 166 8.5t148 22.5t126.5 31.5
t101.5 36.5v-135q-45 -18 -105.5 -35.5t-132.5 -31t-152.5 -21.5t-164.5 -8q-121 0 -233.5 24.5t-211 73t-179.5 120.5t-139 168t-90 215.5t-32 261.5q0 207 62 376t176 288t275.5 184t360.5 65q183 0 336.5 -56.5t264.5 -160t173 -248t62 -320.5q0 -135 -32.5 -243
t-89.5 -183.5t-135 -116t-169 -40.5q-43 0 -75.5 10t-55.5 27t-38 41t-23 52h-4z" />
    <glyph glyph-name="A" unicode="A" horiz-adv-x="1301" 
d="M35 0l545 1338h141l545 -1338h-177l-160 403h-559l-160 -403h-175zM649 1130q-89 -250 -171 -454l-50 -126h443l-50 126q-82 208 -168 454h-4z" />
    <glyph glyph-name="B" unicode="B" horiz-adv-x="1215" 
d="M830 692q62 -9 111.5 -33t85 -61.5t54.5 -89t19 -117.5q0 -47 -14 -98.5t-46.5 -100t-85 -89.5t-130.5 -67q-60 -20 -133 -28t-175 -8h-346v1338h334q46 0 83.5 -1.5t69 -4.5t58.5 -7.5t51 -10.5q63 -17 114.5 -46.5t87.5 -70.5t55.5 -93t19.5 -113q0 -49 -11.5 -94
t-37 -83t-66 -68t-98.5 -50v-4zM581 759q48 0 83 4.5t63 13.5q75 25 109.5 78t34.5 125q0 74 -36 121t-113 70q-38 11 -88 15.5t-118 4.5h-183v-432h248zM333 612v-465h197q70 0 130 6.5t102 20.5q46 15 78 38.5t51.5 52t28 60.5t8.5 65q0 38 -9 71.5t-29.5 60t-54 46.5
t-83.5 31q-30 7 -68.5 10t-95.5 3h-255z" />
    <glyph glyph-name="C" unicode="C" horiz-adv-x="1207" 
d="M820 1218q-111 0 -207.5 -35.5t-167.5 -106t-112 -175t-41 -243.5q0 -138 38 -239.5t108 -168t168.5 -98.5t219.5 -32q33 0 70 3.5t74.5 10t73 15t63.5 18.5v-144q-59 -23 -137 -35.5t-160 -12.5q-167 0 -296 46.5t-216.5 133.5t-132.5 212.5t-45 284.5q0 156 47.5 287
t137 225t217 146.5t286.5 52.5q42 0 83 -3.5t78.5 -10t69.5 -15.5t55 -19v-144q-60 20 -131 33.5t-143 13.5z" />
    <glyph glyph-name="D" unicode="D" horiz-adv-x="1374" 
d="M1254 675q0 -117 -29 -220t-87.5 -185.5t-146 -142.5t-204.5 -93q-67 -19 -145 -26.5t-169 -7.5h-303v1338h306q91 0 169 -7.5t145 -26.5q117 -33 204.5 -92t145 -139.5t86 -181t28.5 -216.5zM1082 675q0 193 -84 313t-241 170q-60 19 -134 26t-167 7h-123v-1044h123
q93 0 167 7t134 26q157 50 241 175t84 320z" />
    <glyph glyph-name="E" unicode="E" horiz-adv-x="1129" 
d="M333 147h686v-147h-849v1338h812v-147h-649v-432h577v-147h-577v-465z" />
    <glyph glyph-name="F" unicode="F" horiz-adv-x="1033" 
d="M333 0h-163v1338h798v-147h-635v-432h563v-147h-563v-612z" />
    <glyph glyph-name="G" unicode="G" horiz-adv-x="1368" 
d="M1045 541h-305v147h468v-647q-21 -11 -61.5 -22.5t-92.5 -21.5t-111.5 -16t-117.5 -6q-172 0 -303.5 47t-220.5 133t-135 209t-46 274q0 164 53.5 298t151 229t233 146.5t298.5 51.5q44 0 88 -3.5t84 -10t74 -15.5t57 -19v-144q-60 20 -138 33.5t-156 13.5
q-114 0 -217.5 -34.5t-182.5 -104.5t-126 -175.5t-47 -247.5q0 -139 38.5 -240t109 -167t171 -97.5t223.5 -31.5q57 0 112.5 6t98.5 17v398z" />
    <glyph glyph-name="H" unicode="H" horiz-adv-x="1367" 
d="M333 759h701v579h163v-1338h-163v612h-701v-612h-163v1338h163v-579z" />
    <glyph glyph-name="I" unicode="I" horiz-adv-x="503" 
d="M170 0v1338h163v-1338h-163z" />
    <glyph glyph-name="J" unicode="J" horiz-adv-x="767" 
d="M439 1338h163v-1031q0 -83 -25 -145t-71.5 -103.5t-111.5 -62.5t-146 -21q-69 1 -116.5 11.5t-71.5 21.5v144q37 -15 80.5 -23.5t93.5 -8.5q45 0 83 10t65 34t42 64t15 99v1011z" />
    <glyph glyph-name="K" unicode="K" horiz-adv-x="1239" 
d="M170 0v1338h163v-661h2l615 661h201l-624 -666l672 -672h-212l-652 655h-2v-655h-163z" />
    <glyph glyph-name="L" unicode="L" horiz-adv-x="1066" 
d="M333 1338v-1191h653v-147h-816v1338h163z" />
    <glyph glyph-name="M" unicode="M" horiz-adv-x="1683" 
d="M879 0h-75l-337 799q-70 165 -140 359h-8q14 -279 14 -511v-647h-163v1338h235l315 -757q54 -130 119 -313h5q72 203 119 313l315 757h235v-1338h-163v647q0 227 14 511h-8q-74 -205 -140 -359z" />
    <glyph glyph-name="N" unicode="N" horiz-adv-x="1426" 
d="M857 592q123 -177 243 -364h6q-13 195 -13 398v712h163v-1338h-162l-525 746q-136 195 -243 364h-6q13 -183 13 -427v-683h-163v1338h162z" />
    <glyph glyph-name="O" unicode="O" horiz-adv-x="1496" 
d="M1204 668q0 135 -35 238t-96.5 172t-145 104.5t-179.5 35.5t-179.5 -35.5t-145 -104.5t-96.5 -172t-35 -238t35.5 -237.5t97 -171.5t145 -104t180.5 -35q96 0 178.5 35t144 104t96.5 171.5t35 237.5zM1376 668q0 -152 -44 -279t-126 -219t-197.5 -143.5t-258.5 -51.5
q-148 0 -265 51.5t-198 143.5t-124 219t-43 279q0 153 44.5 280.5t126 219.5t197.5 143.5t260 51.5q147 0 263.5 -51.5t197.5 -143.5t124 -219.5t43 -280.5z" />
    <glyph glyph-name="P" unicode="P" horiz-adv-x="1168" 
d="M333 0h-163v1338h371q83 0 153.5 -10t129.5 -31q120 -43 182 -128.5t62 -210.5q0 -102 -40.5 -179.5t-117.5 -129.5t-187.5 -78.5t-250.5 -26.5q-67 0 -139 6v-550zM333 699q33 -4 69 -6t68 -2q115 0 196 18t132 52.5t74 84t23 112.5q0 78 -37.5 128t-106.5 76
q-43 16 -99 22.5t-130 6.5h-189v-492z" />
    <glyph glyph-name="Q" unicode="Q" horiz-adv-x="1514" 
d="M1204 668q0 135 -35 238t-96.5 172t-145 104.5t-179.5 35.5t-179.5 -35.5t-145 -104.5t-96.5 -172t-35 -238t35.5 -237.5t97 -171.5t145 -104t180.5 -35q96 0 178.5 35t144 104t96.5 171.5t35 237.5zM1376 682q0 -96 -20 -182t-57 -158.5t-88.5 -129.5t-113.5 -96v-4
q83 13 157 20t150 5v-147q-47 3 -102 6.5t-127 3.5q-54 0 -109 -3t-109 -7t-106 -7t-99 -3q-149 0 -266.5 50t-198.5 140.5t-124 217.5t-43 280t44.5 280.5t126 219.5t197.5 143.5t260 51.5q147 0 263.5 -51.5t197.5 -142.5t124 -216t43 -271z" />
    <glyph glyph-name="R" unicode="R" horiz-adv-x="1212" 
d="M333 554v-554h-163v1338h347q88 0 149.5 -6.5t112.5 -20.5q140 -38 214 -129.5t74 -228.5q0 -81 -26 -145t-73 -111t-112.5 -77t-145.5 -44v-4l437 -572h-205l-412 554h-197zM333 1191v-490h161q75 0 128 5t95 18q85 26 131 83t46 149q-1 86 -44 138.5t-119 75.5
q-36 11 -86 16t-127 5h-185z" />
    <glyph glyph-name="S" unicode="S" horiz-adv-x="1130" 
d="M294 984q0 -59 24 -97.5t64.5 -63.5t94 -41t111.5 -30q78 -19 153.5 -42t134.5 -63.5t95.5 -105.5t36.5 -167q0 -104 -38.5 -179.5t-107 -124t-163.5 -72t-208 -23.5q-52 0 -106.5 6.5t-104 17.5t-89.5 25t-63 28v149q36 -18 81 -33t93 -25.5t97 -16.5t92 -6
q70 0 133.5 12t111.5 40t76 76.5t28 121.5q0 60 -24.5 99t-65.5 64.5t-94.5 41.5t-112.5 30q-78 18 -152.5 40.5t-133 62.5t-94 103t-35.5 161q0 102 36 175.5t98 121.5t145 71t177 23q107 0 199.5 -20.5t169.5 -53.5v-151q-83 35 -171.5 57t-189.5 23q-76 0 -132 -16.5
t-93 -47t-55 -74t-18 -96.5z" />
    <glyph glyph-name="T" unicode="T" horiz-adv-x="1137" 
d="M650 0h-163v1191h-447v147h1057v-147h-447v-1191z" />
    <glyph glyph-name="U" unicode="U" horiz-adv-x="1374" 
d="M687 120q73 0 129.5 17t98.5 48t70 74.5t43 96.5q10 33 14 73.5t4 78.5v830h163v-826q0 -47 -5 -98t-16 -95q-19 -74 -57 -137t-99 -109t-146.5 -72t-200.5 -26q-110 0 -193 24t-142.5 66.5t-97.5 101t-59 127.5q-15 50 -21.5 107t-6.5 111v826h163v-830q0 -45 6.5 -92.5
t20.5 -86.5q35 -97 116.5 -153t215.5 -56z" />
    <glyph glyph-name="V" unicode="V" horiz-adv-x="1243" 
d="M624 208q72 219 155 442l255 688h169l-510 -1338h-143l-510 1338h169l255 -688q84 -223 156 -442h4z" />
    <glyph glyph-name="W" unicode="W" horiz-adv-x="1806" 
d="M901 1117q-16 -92 -75 -322l-208 -795h-166l-412 1338h171l226 -785q54 -189 92 -340h4q20 93 43.5 181t41.5 157l204 787h162l204 -787q75 -284 85 -338h4q34 140 92 340l226 785h171l-412 -1338h-166l-208 795q-57 222 -75 322h-4z" />
    <glyph glyph-name="X" unicode="X" horiz-adv-x="1196" 
d="M604 796l370 542h181l-454 -659l475 -679h-183l-392 567h-4l-392 -567h-185l479 683l-450 655h179l372 -542h4z" />
    <glyph glyph-name="Y" unicode="Y" horiz-adv-x="1217" 
d="M690 538v-538h-163v538l-487 800h178l388 -650h5l388 650h178z" />
    <glyph glyph-name="Z" unicode="Z" horiz-adv-x="1199" 
d="M1090 1338v-102l-776 -1089h785v-147h-999v102l778 1089h-760v147h972z" />
    <glyph glyph-name="bracketleft" unicode="[" horiz-adv-x="646" 
d="M160 1338h426v-123h-281v-1392h281v-123h-426v1638z" />
    <glyph glyph-name="backslash" unicode="\" horiz-adv-x="563" 
d="M373 -249l-380 1587h148l380 -1587h-148z" />
    <glyph glyph-name="bracketright" unicode="]" horiz-adv-x="646" 
d="M486 -300h-426v123h281v1392h-281v123h426v-1638z" />
    <glyph glyph-name="asciicircum" unicode="^" 
d="M199 543h-150l408 820h136l408 -820h-150l-324 662h-4z" />
    <glyph glyph-name="underscore" unicode="_" horiz-adv-x="1000" 
d="M0 -142h1000v-133h-1000v133z" />
    <glyph glyph-name="grave" unicode="`" horiz-adv-x="700" 
d="M376 1473l123 -349h-130l-161 349h168zM0 950z" />
    <glyph glyph-name="a" unicode="a" horiz-adv-x="1003" 
d="M706 105h-4q-19 -24 -48 -47.5t-67 -42t-83 -29.5t-96 -11q-69 0 -126.5 20.5t-99 60t-64.5 96.5t-23 129q0 71 25.5 127t71.5 95t110.5 60t142.5 21q74 -1 137 -13t112 -30h4v66q0 39 -5 69t-17 53q-26 48 -83 79.5t-154 31.5q-72 0 -135.5 -13.5t-126.5 -37.5v130
q24 12 56.5 22.5t68.5 18t76 11.5t80 4q144 0 235.5 -51t131.5 -135q15 -32 21.5 -70.5t6.5 -84.5v-634h-130zM698 417q-43 12 -102 23t-130 12q-99 0 -155 -42t-56 -129q0 -44 14 -77t38.5 -54.5t58 -32t71.5 -10.5q50 0 93 14.5t76.5 34.5t57 40t34.5 31v190z" />
    <glyph glyph-name="b" unicode="b" horiz-adv-x="1097" 
d="M840 479q0 113 -26.5 183.5t-68 110t-88.5 54.5t-94 15q-72 0 -135.5 -30t-112.5 -78v-497q14 -19 36.5 -41.5t53.5 -42t69.5 -33t84.5 -13.5q69 0 121.5 27t88 76.5t53.5 118t18 150.5zM1002 491q0 -133 -36 -230t-95 -160.5t-135 -94.5t-157 -31q-61 0 -107.5 15.5
t-79 37t-52 43.5t-27.5 35h-3l-33 -106h-117v1448h155v-587h3q51 54 119 84t155 30q40 0 86.5 -9t92 -31t87.5 -58t74 -89.5t51 -127t19 -169.5z" />
    <glyph glyph-name="c" unicode="c" horiz-adv-x="898" 
d="M558 975q69 0 132 -14.5t108 -40.5v-129q-63 24 -116 36t-108 12q-58 0 -115 -19t-102 -62.5t-72.5 -115t-27.5 -177.5q0 -77 20.5 -142t61 -112.5t101.5 -74t141 -26.5q58 0 117 12.5t115 35.5v-129q-17 -10 -44.5 -20t-60.5 -17.5t-70 -12t-74 -4.5q-96 0 -181.5 29
t-149.5 89t-101 152t-37 218q0 94 19.5 169t53.5 132t79.5 97t97 65.5t106.5 37t107 11.5z" />
    <glyph glyph-name="d" unicode="d" horiz-adv-x="1097" 
d="M257 465q0 -82 18.5 -148.5t53.5 -113t86 -71.5t117 -25q49 0 89 13t71.5 33t54 42.5t35.5 41.5v497q-48 49 -111 78.5t-136 29.5q-44 0 -92.5 -16.5t-90 -59.5t-68.5 -115.5t-27 -185.5zM95 463q0 99 19.5 175.5t51.5 133.5t75 95.5t89 62.5t93.5 34.5t89.5 10.5
q87 0 151 -29t115 -85h3v587h155v-1448h-117l-32 106h-4q-18 -23 -42 -46.5t-56.5 -42.5t-75 -30.5t-98.5 -11.5q-78 0 -153 26.5t-133.5 85t-94.5 151t-36 225.5z" />
    <glyph glyph-name="e" unicode="e" horiz-adv-x="1019" 
d="M522 842q-53 0 -98.5 -21t-79.5 -57t-55 -84.5t-26 -103.5h480q0 56 -14.5 104.5t-42.5 84.5t-69 56.5t-95 20.5zM607 110q77 0 140.5 12.5t126.5 35.5v-129q-51 -25 -126 -39.5t-161 -14.5q-102 0 -191.5 26t-156.5 84t-105.5 151.5t-38.5 225.5q0 130 36 225.5
t96 159.5t138 96t163 32q80 0 149.5 -26.5t120.5 -83.5t80.5 -147t29.5 -216v-20.5t-1 -38.5h-652q0 -91 27.5 -154.5t75 -103t111.5 -57.5t138 -18z" />
    <glyph glyph-name="f" unicode="f" horiz-adv-x="651" 
d="M701 1326q-30 6 -66 9t-62 3q-52 0 -93.5 -13t-69.5 -41.5t-43 -75t-15 -112.5v-146h283v-133h-283v-817h-155v817h-167v133h167v145q0 103 27.5 173.5t75.5 116t113 67t140 21.5q48 0 88.5 -5t59.5 -11v-131z" />
    <glyph glyph-name="g" unicode="g" horiz-adv-x="1087" 
d="M257 469q0 -112 27 -183t68.5 -110.5t90.5 -54t93 -14.5q72 0 135 29t111 79v497q-13 18 -36 41t-53.5 42.5t-69.5 33t-85 13.5q-69 0 -121.5 -27.5t-88 -76.5t-53.5 -117.5t-18 -151.5zM518 975q62 -1 108 -16t79 -37.5t52.5 -44.5t26.5 -35h4l32 108h117v-1006
q0 -110 -36 -191.5t-101 -135.5t-156.5 -80.5t-202.5 -26.5q-94 0 -168 16.5t-116 39.5v131q34 -14 66 -23.5t66 -16t69.5 -9.5t78.5 -3q167 0 256 78t89 238v127h-3q-51 -56 -118.5 -84.5t-154.5 -28.5q-40 0 -86 9t-92 30.5t-88 57t-74 89t-51.5 126.5t-19.5 169
q0 133 36 230.5t95 161.5t135 95.5t157 31.5z" />
    <glyph glyph-name="h" unicode="h" horiz-adv-x="1090" 
d="M315 820h3q26 33 58 61.5t71 49t84 32.5t97 12q54 0 108 -14.5t100 -51.5t75 -103t29 -170v-636h-155v611q0 115 -43.5 173t-142.5 58q-82 0 -156 -44.5t-128 -122.5v-675h-155v1448h155v-628z" />
    <glyph glyph-name="i" unicode="i" horiz-adv-x="475" 
d="M160 0v950h155v-950h-155zM156 1171v173h163v-173h-163z" />
    <glyph glyph-name="j" unicode="j" horiz-adv-x="494" 
d="M334 -212q0 -131 -75 -204.5t-238 -73.5q-43 0 -82.5 6.5t-58.5 13.5v132q30 -8 60 -12.5t62 -4.5q95 0 136 39t41 122v1144h155v-1162zM175 1171v173h163v-173h-163z" />
    <glyph glyph-name="k" unicode="k" horiz-adv-x="997" 
d="M765 950h202l-464 -437l463 -513h-193l-456 506h-2v-506h-155v1448h155v-922h2z" />
    <glyph glyph-name="l" unicode="l" horiz-adv-x="475" 
d="M160 0v1448h155v-1448h-155z" />
    <glyph glyph-name="m" unicode="m" horiz-adv-x="1697" 
d="M926 0h-155v611q0 62 -13.5 105.5t-39 71.5t-61 41t-79.5 13q-83 0 -151 -44.5t-122 -122.5v-675h-155v950h120l30 -132h3q26 33 56.5 61.5t68 50t82.5 33.5t98 12q106 0 176 -51t108 -139h4q63 89 144 139.5t189 50.5q50 0 106 -14t103 -51.5t78 -103.5t31 -170v-636
h-154v611q0 62 -13.5 105.5t-39 71.5t-61 41t-79.5 13q-83 0 -151.5 -44.5t-122.5 -122.5v-675z" />
    <glyph glyph-name="n" unicode="n" horiz-adv-x="1080" 
d="M300 818h3q26 33 57.5 61.5t70.5 50t85.5 33.5t101.5 12q65 0 122 -18t99 -58t66.5 -104.5t24.5 -158.5v-636h-155v611q0 123 -47.5 177t-138.5 54q-80 0 -155 -44.5t-129 -122.5v-675h-155v950h120z" />
    <glyph glyph-name="o" unicode="o" horiz-adv-x="1092" 
d="M835 474q0 88 -21.5 156.5t-60 116t-91.5 72t-116 24.5t-116 -24.5t-91.5 -72t-60 -116t-21.5 -156.5q0 -87 21.5 -155.5t60.5 -115.5t92 -71.5t116 -24.5t115.5 24.5t91 71.5t60 115.5t21.5 155.5zM997 474q0 -112 -32 -204t-90.5 -157.5t-141.5 -101.5t-186 -36
q-106 0 -189.5 36t-142 101.5t-89.5 157.5t-31 204q0 113 32 205t90.5 158t142 102t186.5 36q105 0 189 -36t142 -102t89 -158t31 -205z" />
    <glyph glyph-name="p" unicode="p" horiz-adv-x="1087" 
d="M830 484q0 83 -17.5 149t-52.5 112.5t-86 71.5t-118 25q-48 0 -87.5 -13t-71.5 -33t-55 -43t-37 -41v-497q49 -50 111.5 -79t134.5 -29q44 0 93 16.5t90.5 59t68.5 115.5t27 186zM992 486q0 -99 -19.5 -175.5t-51.5 -133.5t-75 -95.5t-89 -62t-93.5 -34t-89.5 -10.5
q-87 0 -151 28.5t-115 84.5h-3v-553h-155v1415h117l33 -108h3q13 20 33.5 39t55 40.5t83 37.5t105.5 16q80 0 154.5 -27t131.5 -86t91.5 -151.5t34.5 -224.5z" />
    <glyph glyph-name="q" unicode="q" horiz-adv-x="1072" 
d="M252 469q0 -112 27 -183t68.5 -110.5t90.5 -54t93 -14.5q72 0 135 29t111 79v497q-13 18 -36 41t-53.5 42.5t-69.5 33t-85 13.5q-69 0 -121.5 -27.5t-88 -76.5t-53.5 -117.5t-18 -151.5zM90 456q0 133 36 230.5t95 161.5t135 95.5t157 31.5q62 -1 108 -16t78 -36.5
t50.5 -42t29.5 -38.5h4l32 108h117v-1415h-155v553h-3q-51 -56 -118.5 -84.5t-154.5 -28.5q-40 0 -86 9t-92 30.5t-88 57t-74 89t-51.5 126.5t-19.5 169z" />
    <glyph glyph-name="r" unicode="r" horiz-adv-x="686" 
d="M671 824h-12q-55 0 -108 -10t-99.5 -30.5t-84 -50.5t-62.5 -71v-662h-155v950h120l30 -151h3q23 37 56.5 69t75.5 56t92 37.5t105 13.5q10 0 20.5 -0.5t18.5 -1.5v-149z" />
    <glyph glyph-name="s" unicode="s" horiz-adv-x="828" 
d="M250 697q0 -39 17 -64t45.5 -40.5t66 -25.5t77.5 -18q55 -12 104 -26.5t90.5 -43.5t67 -78.5t25.5 -128.5q0 -72 -28 -127.5t-79 -93t-122 -57t-156 -19.5q-52 0 -94.5 5.5t-75 14t-55.5 17.5t-38 17v130q60 -24 119 -38t130 -14q56 0 101 10t77.5 29.5t50 49t17.5 68.5
q0 40 -16 66t-43 43t-62.5 28t-74.5 20q-51 11 -103.5 26t-95.5 42t-69.5 73.5t-26.5 119.5q0 75 27 130t73 91t107 54t129 18q79 0 146.5 -15t122.5 -38v-132q-60 23 -121.5 37.5t-126.5 15.5q-55 0 -94 -11t-64 -30.5t-36.5 -46t-11.5 -58.5z" />
    <glyph glyph-name="t" unicode="t" horiz-adv-x="711" 
d="M651 -2q-20 -8 -61 -15t-98 -8q-75 0 -130 18.5t-91.5 53t-54.5 83.5t-18 109v578h-183v133h183v260h155v-260h284v-133h-284v-554q0 -33 9.5 -61t30 -48.5t52.5 -32t77 -11.5q31 0 65.5 5t63.5 13v-130z" />
    <glyph glyph-name="u" unicode="u" horiz-adv-x="1060" 
d="M527 -25q-74 0 -133 16t-103.5 45t-75.5 69.5t-49 88.5q-14 36 -20 79t-6 94v583h155v-582q0 -79 21 -132q24 -60 77.5 -94.5t136.5 -34.5q88 0 141.5 38t76.5 102q17 49 17 121v582h155v-584q0 -48 -5.5 -89.5t-17.5 -76.5q-18 -49 -49.5 -90.5t-77.5 -71.5
t-106.5 -46.5t-136.5 -16.5z" />
    <glyph glyph-name="v" unicode="v" horiz-adv-x="946" 
d="M474 157q34 104 92 265l188 528h162l-362 -950h-162l-362 950h160l188 -528q56 -156 92 -265h4z" />
    <glyph glyph-name="w" unicode="w" horiz-adv-x="1458" 
d="M726 793q-31 -131 -58 -226l-156 -567h-159l-313 950h157l176 -592q35 -117 53 -187h4q16 72 53 208l159 571h174l159 -571q32 -116 53 -208h4q24 92 53 187l176 592h157l-313 -950h-161l-156 567q-28 101 -58 226h-4z" />
    <glyph glyph-name="x" unicode="x" horiz-adv-x="932" 
d="M470 584l258 366h171l-347 -470l360 -480h-168l-278 380h-4l-274 -380h-168l360 484l-347 466h171l262 -366h4z" />
    <glyph glyph-name="y" unicode="y" horiz-adv-x="982" 
d="M30 950h159l295 -745h6l299 745h163l-593 -1415h-154l203 484z" />
    <glyph glyph-name="z" unicode="z" horiz-adv-x="910" 
d="M608 813v4h-522v133h719v-98l-528 -715v-4h563v-133h-770v84z" />
    <glyph glyph-name="braceleft" unicode="{" horiz-adv-x="615" 
d="M120 580q30 0 61 3.5t55.5 17t40.5 40.5t16 74q0 54 -18 99.5t-42 87.5q-23 41 -41 84t-18 95q0 37 14 82t52.5 84t107.5 65t178 26h34v-123h-12q-110 0 -164 -36t-54 -101q0 -43 14.5 -79.5t34.5 -73.5q21 -38 36.5 -82.5t15.5 -103.5q0 -54 -16 -94t-38 -66
t-45.5 -40.5t-37.5 -17.5v-4q14 -3 37.5 -17.5t45.5 -40.5t38 -66t16 -94q0 -56 -13.5 -96.5t-31.5 -75.5q-21 -40 -38.5 -80t-17.5 -87q0 -65 54.5 -101t163.5 -36h12v-123h-34q-109 0 -178 26t-107.5 65t-52.5 83.5t-14 80.5q0 32 6 58.5t16 50t22 46t25 45.5
q21 37 35.5 78t14.5 90q0 47 -16 74t-40.5 40.5t-55.5 17t-61 3.5v122z" />
    <glyph glyph-name="bar" unicode="|" horiz-adv-x="465" 
d="M305 -465h-145v1913h145v-1913z" />
    <glyph glyph-name="braceright" unicode="}" horiz-adv-x="615" 
d="M495 458q-30 0 -61 -3.5t-55.5 -17t-40.5 -40.5t-16 -74q0 -49 14.5 -90t35.5 -78q13 -23 25 -45.5t22 -46t16 -50t6 -58.5q0 -36 -14 -80.5t-52.5 -83.5t-107.5 -65t-178 -26h-34v123h12q109 0 163.5 36t54.5 101q0 47 -17.5 87t-38.5 80q-18 35 -31.5 75.5t-13.5 96.5
q0 54 16 94t38 66t45.5 40.5t37.5 17.5v4q-14 3 -37.5 17.5t-45.5 40.5t-38 66t-16 94q0 59 15.5 103.5t36.5 82.5q20 37 34.5 73.5t14.5 79.5q0 65 -54 101t-164 36h-12v123h34q109 0 178 -26t107.5 -65t52.5 -84t14 -82q0 -52 -18 -95t-41 -84q-24 -42 -42 -87.5
t-18 -99.5q0 -47 16 -74t40.5 -40.5t55.5 -17t61 -3.5v-122z" />
    <glyph glyph-name="asciitilde" unicode="~" 
d="M939 491q-15 -33 -39 -60.5t-54.5 -48t-67.5 -32t-79 -11.5q-43 0 -87 12.5t-85 29.5q-50 20 -95.5 38t-88.5 18q-50 0 -83 -24.5t-59 -66.5l-102 73q15 33 39 60.5t54.5 48t67.5 32t79 11.5q49 0 99 -16t96 -35q43 -18 84 -32.5t77 -14.5q49 0 83 24.5t59 66.5z" />
    <glyph glyph-name="exclamdown" unicode="&#xa1;" horiz-adv-x="541" 
d="M366 950v-195h-191v195h191zM336 519l24 -907h-179l24 907h131z" />
    <glyph glyph-name="cent" unicode="&#xa2;" 
d="M562 128q-196 22 -302 137.5t-106 331.5q0 106 28.5 191.5t81.5 148.5t128.5 102t169.5 52v163h132v-157q58 -2 111.5 -12.5t85.5 -24.5v-135q-44 14 -94.5 24.5t-102.5 12.5v-701q50 1 107 10t100 25v-136q-41 -15 -95.5 -25t-111.5 -12v-148h-132v153zM311 601
q0 -79 17 -136.5t49.5 -97.5t79 -63.5t105.5 -33.5v681q-55 -13 -101.5 -40t-79.5 -70t-51.5 -102.5t-18.5 -137.5z" />
    <glyph glyph-name="sterling" unicode="&#xa3;" 
d="M198 612h128l12 91q11 91 37.5 157.5t70 113t106 71.5t144.5 25q33 0 65.5 -3.5t62 -10t55 -15.5t44.5 -19v-134q-46 20 -103 33.5t-114 13.5q-54 0 -91 -15t-61.5 -47t-38.5 -82.5t-23 -121.5l-7 -57h318v-137h-335l-41 -332h529v-143h-837v143h149l41 332h-111v137z
" />
    <glyph glyph-name="currency" unicode="&#xa4;" 
d="M319 959q44 31 96 48.5t110 17.5t110 -17t96 -48l138 138l85 -85l-138 -138q31 -44 48 -96t17 -110t-17.5 -110t-48.5 -96l140 -139l-85 -85l-140 139q-44 -31 -96 -47.5t-109 -16.5q-58 0 -109.5 17t-95.5 48l-140 -140l-85 85l140 140q-31 44 -48 95.5t-17 109.5
q0 57 16.5 109t47.5 96l-138 139l85 85zM307 669q0 -47 16.5 -88t45.5 -71t69 -47.5t87 -17.5t87.5 17.5t69.5 47.5t45.5 71t16.5 88t-16.5 88t-45.5 71.5t-69.5 48t-87.5 17.5t-87 -17.5t-69 -48t-45.5 -71.5t-16.5 -88z" />
    <glyph glyph-name="yen" unicode="&#xa5;" 
d="M527 546l272 499h168l-303 -533h201v-133h-262v-142h262v-133h-262v-130h-157v130h-262v133h262v142h-262v133h200l-302 533h168l272 -499h5z" />
    <glyph glyph-name="brokenbar" unicode="&#xa6;" horiz-adv-x="465" 
d="M305 720h-145v728h145v-728zM305 -465h-145v696h145v-696z" />
    <glyph glyph-name="section" unicode="&#xa7;" horiz-adv-x="873" 
d="M249 1101q-14 -50 -20.5 -96t-6.5 -91q0 -70 14 -135.5t37 -127t53.5 -120t63.5 -115.5q41 -71 82.5 -140.5t73.5 -139t49.5 -136t17.5 -130.5q0 -8 -1 -21h12q14 46 20.5 94t6.5 93q0 69 -13.5 133.5t-36 125t-52.5 118.5t-62 114q-42 72 -83.5 142.5t-74.5 141t-51 137
t-18 129.5q0 12 1 24h-12zM361 1086q0 -45 22 -96.5t56.5 -110t77.5 -123.5t85 -137q33 -57 63.5 -119t54 -128.5t37 -139t13.5 -150.5q0 -146 -36.5 -242t-95 -152t-132 -78.5t-147.5 -22.5q-80 0 -142.5 15t-116.5 38v132q59 -23 119 -38t123 -15q83 0 126.5 35t43.5 110
q0 47 -23 100t-59 112.5t-80.5 127t-87.5 142.5q-32 56 -61 116t-50.5 125.5t-34.5 135.5t-13 145q0 146 37 242t95 152t129.5 78.5t139.5 22.5q79 0 146.5 -15t122.5 -38v-132q-60 23 -121.5 38t-126.5 15q-85 0 -124.5 -39t-39.5 -106z" />
    <glyph glyph-name="dieresis" unicode="&#xa8;" horiz-adv-x="700" 
d="M80 1171v167h159v-167h-159zM461 1171v167h159v-167h-159zM0 950z" />
    <glyph glyph-name="copyright" unicode="&#xa9;" horiz-adv-x="1686" 
d="M150 669q0 150 52.5 277t145.5 219.5t220 145t275 52.5t275 -52.5t220 -145t145.5 -219.5t52.5 -277t-52.5 -277t-145.5 -219.5t-220 -145t-275 -52.5t-275 52.5t-220 145t-145.5 219.5t-52.5 277zM883 938q-55 0 -102.5 -17t-82.5 -51t-54.5 -86t-19.5 -121t18 -119
t52 -81.5t83 -46.5t110 -15q36 0 81 7.5t78 19.5v-126q-33 -12 -79.5 -19t-94.5 -7q-88 0 -160 25.5t-123.5 74t-79.5 120t-28 164.5q0 91 29.5 165.5t81.5 127.5t124 82t156 29q48 0 94 -7.5t73 -20.5v-125q-34 12 -74.5 19.5t-81.5 7.5zM282 669q0 -117 41 -221t115 -181
t177 -122t228 -45t228 45t177 122t115 181t41 221t-41 221t-115 181t-177 122t-228 45t-228 -45t-177 -122t-115 -181t-41 -221z" />
    <glyph glyph-name="ordfeminine" unicode="&#xaa;" horiz-adv-x="777" 
d="M531 596h-4q-15 -19 -36.5 -37t-48.5 -32.5t-60.5 -23.5t-70.5 -9q-51 0 -94 15.5t-74.5 45t-49.5 71t-18 93.5q0 53 19.5 96.5t54.5 74.5t83.5 48t105.5 17q52 0 99 -8.5t84 -20.5h4v50q1 67 -43 107t-140 40q-52 0 -104.5 -10.5t-100.5 -28.5v118q39 18 98.5 30
t122.5 12q146 0 227.5 -67.5t81.5 -191.5v-472h-125zM525 810q-35 10 -79.5 17t-89.5 7q-29 0 -54.5 -6.5t-44 -21t-29.5 -36.5t-11 -52q0 -48 32 -75.5t83 -27.5q57 0 105.5 23.5t87.5 58.5v113z" />
    <glyph glyph-name="guillemotleft" unicode="&#xab;" horiz-adv-x="997" 
d="M110 474l293 376h151l-259 -376l259 -376h-151zM507 474l265 376h145l-225 -376l225 -376h-145z" />
    <glyph glyph-name="logicalnot" unicode="&#xac;" 
d="M115 455v132h820v-495h-140v363h-680z" />
    <glyph glyph-name="registered" unicode="&#xae;" horiz-adv-x="1270" 
d="M150 879q0 105 37.5 193.5t102.5 153t154 101t191 36.5t191 -36.5t154 -101t102.5 -153t37.5 -193.5t-37.5 -193.5t-102.5 -153t-154 -101t-191 -36.5t-191 36.5t-154 101t-102.5 153t-37.5 193.5zM255 879q0 -81 27 -152.5t77 -124t120 -83t156 -30.5t156 30.5t120 83
t77 124t27 152.5t-27 152.5t-77 124t-120 83t-156 30.5t-156 -30.5t-120 -83t-77 -124t-27 -152.5zM706 835l136 -201h-114l-121 190h-51v-190h-99v496h171q39 0 75.5 -7.5t64.5 -25.5t45 -46.5t17 -70.5q0 -60 -33.5 -95t-90.5 -46v-4zM556 1045v-136h55q58 0 86.5 16.5
t28.5 54.5q0 29 -19.5 47t-69.5 18h-81z" />
    <glyph glyph-name="macron" unicode="&#xaf;" horiz-adv-x="700" 
d="M80 1300h540v-129h-540v129zM0 950z" />
    <glyph glyph-name="macron" unicode="&#x2c9;" horiz-adv-x="700" 
d="M80 1300h540v-129h-540v129zM0 950z" />
    <glyph glyph-name="degree" unicode="&#xb0;" horiz-adv-x="836" 
d="M80 1027q0 72 26 133.5t71.5 106.5t107 70.5t133.5 25.5t133.5 -25.5t107 -70.5t71.5 -106.5t26 -133.5t-26 -133.5t-71.5 -106.5t-107 -70.5t-133.5 -25.5t-133.5 25.5t-107 70.5t-71.5 106.5t-26 133.5zM228 1027q0 -42 14 -77.5t39.5 -62t60 -41.5t76.5 -15t77 15
t60.5 41.5t39.5 62t14 77.5t-14 78t-39.5 62.5t-60.5 41.5t-77 15t-76.5 -15t-60 -41.5t-39.5 -62.5t-14 -78z" />
    <glyph glyph-name="plusminus" unicode="&#xb1;" 
d="M115 665h340v285h140v-285h340v-132h-340v-285h-140v285h-340v132zM115 0v132h820v-132h-820z" />
    <glyph glyph-name="uni00B2" unicode="&#xb2;" horiz-adv-x="641" 
d="M50 602q90 102 157.5 179t112 137.5t66.5 109.5t22 95q0 31 -11 53.5t-30.5 37t-45.5 21.5t-57 7q-51 0 -100.5 -14t-100.5 -37v121q36 19 93 34.5t124 16.5q69 0 119.5 -17t84 -47.5t50 -72t16.5 -90.5q0 -55 -17.5 -106.5t-56.5 -109.5t-100 -128.5t-148 -163.5v-4
q78 6 133 6h220v-117h-531v89z" />
    <glyph glyph-name="uni00B3" unicode="&#xb3;" horiz-adv-x="606" 
d="M229 494q-48 0 -101 9.5t-88 27.5v119q41 -19 90 -27t93 -8q49 0 85 10.5t58.5 29.5t32.5 45t10 56q0 63 -51 95t-146 32h-66v117h51q99 0 145 34t46 98q0 30 -12 51t-33 34t-48.5 19t-58.5 6q-48 0 -94.5 -10t-88.5 -27v121q35 15 87.5 26t107.5 11q66 0 118.5 -16
t89 -45t55.5 -69.5t19 -88.5q0 -32 -8 -62t-24.5 -55.5t-43 -45.5t-63.5 -32v-4q31 -4 60 -17t51 -37t35.5 -59.5t13.5 -83.5q0 -60 -23.5 -107t-66.5 -79.5t-103 -50t-129 -17.5z" />
    <glyph glyph-name="acute" unicode="&#xb4;" horiz-adv-x="700" 
d="M506 1473l-161 -349h-130l123 349h168zM0 950z" />
    <glyph glyph-name="mu" unicode="&#xb5;" horiz-adv-x="1180" 
d="M846 144q-52 -94 -132 -131.5t-180 -37.5q-72 0 -130 26t-90 71h-4l4 -362l1 -175h-155v1415h155v-589q0 -66 15.5 -113.5t44.5 -77.5t70.5 -44.5t93.5 -14.5q66 0 119 21t90.5 63.5t57.5 107t20 151.5v496h155v-638q0 -60 6 -99t18 -61.5t30.5 -31.5t43.5 -9
q6 0 20.5 1.5t25.5 4.5v-123q-17 -4 -39 -6.5t-39 -2.5q-46 0 -79.5 11.5t-57 32t-38 50t-22.5 65.5h-4z" />
    <glyph glyph-name="paragraph" unicode="&#xb6;" horiz-adv-x="1184" 
d="M498 -387v708q-91 18 -165 62t-127 109t-82 149t-29 183q0 114 38.5 208.5t108 162.5t165.5 105.5t217 37.5h390v-1725h-155v1588h-206v-1588h-155z" />
    <glyph glyph-name="periodcentered" unicode="&#xb7;" horiz-adv-x="541" 
d="M175 394v195h191v-195h-191z" />
    <glyph glyph-name="periodcentered" unicode="&#x2219;" horiz-adv-x="541" 
d="M175 394v195h191v-195h-191z" />
    <glyph glyph-name="cedilla" unicode="&#xb8;" horiz-adv-x="700" 
d="M294 0h122l-35 -126q40 -6 73.5 -18.5t57.5 -32.5t37 -48.5t13 -65.5q0 -52 -23 -89.5t-61.5 -62t-88.5 -36t-104 -11.5q-43 0 -77.5 5.5t-55.5 13.5v113q20 -6 50.5 -11t68.5 -6q29 0 56 3.5t49.5 13t36 25.5t13.5 39q0 21 -14 35.5t-39.5 23.5t-62 13.5t-81.5 6.5z" />
    <glyph glyph-name="uni00B9" unicode="&#xb9;" horiz-adv-x="631" 
d="M278 630v583l-223 -75v127l236 86h129v-721h171v-117h-518v117h205z" />
    <glyph glyph-name="ordmasculine" unicode="&#xba;" horiz-adv-x="838" 
d="M621 869q0 64 -14.5 111.5t-41.5 79t-64 47.5t-82 16q-92 0 -147 -64t-55 -190q0 -64 14.5 -111.5t41.5 -79t64.5 -47.5t82.5 -16q90 0 145.5 63.5t55.5 190.5zM763 869q0 -83 -25.5 -152t-71.5 -118.5t-108.5 -77t-137.5 -27.5q-77 0 -140.5 27.5t-109 77t-70.5 118.5
t-25 152t25.5 152t71.5 118.5t109 77t138 27.5q77 0 140.5 -27.5t108.5 -77t70 -118.5t25 -152z" />
    <glyph glyph-name="guillemotright" unicode="&#xbb;" horiz-adv-x="997" 
d="M594 98h-151l259 376l-259 376h151l293 -376zM225 98h-145l225 376l-225 376h145l265 -376z" />
    <glyph glyph-name="onequarter" unicode="&#xbc;" horiz-adv-x="1670" 
d="M278 630v583l-223 -75v127l236 86h129v-721h171v-117h-518v117h205zM1185 310v-4l91 6h106v192h142v-192h96v-117h-96v-187h-142v187h-346v98l230 540h143zM1370 1363l101 -78l-977 -1310l-101 78z" />
    <glyph glyph-name="onehalf" unicode="&#xbd;" horiz-adv-x="1776" 
d="M278 630v583l-223 -75v127l236 86h129v-721h171v-117h-518v117h205zM1370 1363l101 -78l-977 -1310l-101 78zM1195 97q90 102 157.5 179t112 137.5t66.5 109.5t22 95q0 31 -11 53.5t-30.5 37t-45.5 21.5t-57 7q-51 0 -100.5 -14t-100.5 -37v121q36 19 93 34.5t124 16.5
q69 0 119.5 -17t84 -47.5t50 -72t16.5 -90.5q0 -55 -17.5 -106.5t-56.5 -109.5t-100 -128.5t-148 -163.5v-4q78 6 133 6h220v-117h-531v89z" />
    <glyph glyph-name="threequarters" unicode="&#xbe;" horiz-adv-x="1592" 
d="M1107 310v-4l91 6h106v192h142v-192h96v-117h-96v-187h-142v187h-346v98l230 540h143zM1275 1363l101 -78l-977 -1310l-101 78zM229 494q-48 0 -101 9.5t-88 27.5v119q41 -19 90 -27t93 -8q49 0 85 10.5t58.5 29.5t32.5 45t10 56q0 63 -51 95t-146 32h-66v117h51
q99 0 145 34t46 98q0 30 -12 51t-33 34t-48.5 19t-58.5 6q-48 0 -94.5 -10t-88.5 -27v121q35 15 87.5 26t107.5 11q66 0 118.5 -16t89 -45t55.5 -69.5t19 -88.5q0 -32 -8 -62t-24.5 -55.5t-43 -45.5t-63.5 -32v-4q31 -4 60 -17t51 -37t35.5 -59.5t13.5 -83.5
q0 -60 -23.5 -107t-66.5 -79.5t-103 -50t-129 -17.5z" />
    <glyph glyph-name="questiondown" unicode="&#xbf;" horiz-adv-x="873" 
d="M650 950v-195h-191v195h191zM101 -99q0 56 16.5 101.5t43.5 81.5t61.5 65.5t70.5 57.5t70.5 57t62 64t43.5 78t16 97v16h137q2 -26 2 -44q0 -74 -21.5 -129t-56.5 -96t-76.5 -73.5t-82.5 -63.5q-25 -20 -48 -41.5t-40 -46t-27 -53t-10 -64.5q0 -44 18.5 -79t52 -59
t80 -37t103.5 -13q77 0 148.5 19t128.5 45v-132q-54 -29 -130.5 -47t-153.5 -18q-94 0 -170 22.5t-128.5 64t-81 99t-28.5 128.5z" />
    <glyph glyph-name="Agrave" unicode="&#xc0;" horiz-adv-x="1301" 
d="M35 0l545 1338h141l545 -1338h-177l-160 403h-559l-160 -403h-175zM649 1130q-89 -250 -171 -454l-50 -126h443l-50 126q-82 208 -168 454h-4zM569 1656l146 -247h-139l-181 247h174zM244 1338z" />
    <glyph glyph-name="Aacute" unicode="&#xc1;" horiz-adv-x="1301" 
d="M35 0l545 1338h141l545 -1338h-177l-160 403h-559l-160 -403h-175zM649 1130q-89 -250 -171 -454l-50 -126h443l-50 126q-82 208 -168 454h-4zM911 1656l-181 -247h-139l146 247h174zM441 1338z" />
    <glyph glyph-name="Acircumflex" unicode="&#xc2;" horiz-adv-x="1301" 
d="M35 0l545 1338h141l545 -1338h-177l-160 403h-559l-160 -403h-175zM649 1130q-89 -250 -171 -454l-50 -126h443l-50 126q-82 208 -168 454h-4zM731 1656l216 -247h-158l-137 151h-4l-136 -151h-158l216 247h161zM301 1338z" />
    <glyph glyph-name="Atilde" unicode="&#xc3;" horiz-adv-x="1301" 
d="M35 0l545 1338h141l545 -1338h-177l-160 403h-559l-160 -403h-175zM649 1130q-89 -250 -171 -454l-50 -126h443l-50 126q-82 208 -168 454h-4zM505 1641q41 0 80 -14.5t72 -32t62.5 -32t55.5 -14.5q34 0 47.5 23t13.5 62h125v-22q0 -33 -7 -66.5t-27.5 -62t-54 -45
t-81.5 -16.5q-41 0 -80 14.5t-72 32t-62.5 32t-55.5 14.5q-34 0 -47.5 -23t-13.5 -62h-125v14q-1 35 6.5 72t28 65.5t54 44.5t81.5 16zM298 1338z" />
    <glyph glyph-name="Adieresis" unicode="&#xc4;" horiz-adv-x="1301" 
d="M35 0l545 1338h141l545 -1338h-177l-160 403h-559l-160 -403h-175zM649 1130q-89 -250 -171 -454l-50 -126h443l-50 126q-82 208 -168 454h-4zM379 1448v169h161v-169h-161zM762 1448v169h161v-169h-161zM301 1338z" />
    <glyph glyph-name="Aring" unicode="&#xc5;" horiz-adv-x="1301" 
d="M35 0l545 1338h141l545 -1338h-177l-160 403h-559l-160 -403h-175zM649 1130q-89 -250 -171 -454l-50 -126h443l-50 126q-82 208 -168 454h-4zM649 1376q-48 0 -90 12.5t-72.5 36.5t-48.5 59t-18 79t18 79t48.5 59t72.5 36.5t90 12.5t90 -12.5t72.5 -36.5t48.5 -59
t18 -79t-18 -79t-48.5 -59t-72.5 -36.5t-90 -12.5zM649 1652q-45 0 -75.5 -22.5t-30.5 -66.5t30.5 -66.5t75.5 -22.5t75.5 22.5t30.5 66.5t-30.5 66.5t-75.5 22.5zM299 1338z" />
    <glyph glyph-name="AE" unicode="&#xc6;" horiz-adv-x="1814" 
d="M1120 147h614v-147h-752l-52 401h-514l-211 -401h-175l708 1338h886v-147h-638l56 -432h520v-147h-501zM493 550h418l-80 641h-4z" />
    <glyph glyph-name="Ccedilla" unicode="&#xc7;" horiz-adv-x="1207" 
d="M638 -11q-126 22 -223 77t-162.5 139.5t-99 197t-33.5 249.5q0 156 47.5 287t137 225t217 146.5t286.5 52.5q42 0 83 -3.5t78.5 -10t69.5 -15.5t55 -19v-144q-60 20 -131 33.5t-143 13.5q-111 0 -207.5 -35.5t-167.5 -106t-112 -175t-41 -243.5q0 -138 38 -239.5
t108 -168t168.5 -98.5t219.5 -32q33 0 70 3.5t74.5 10t73 15t63.5 18.5v-144q-59 -23 -137 -35.5t-160 -12.5q-14 0 -27 0.5t-27 1.5l-28 -103q40 -6 73.5 -18.5t57.5 -32.5t37 -48.5t13 -65.5q0 -52 -23 -89.5t-61.5 -62t-88.5 -36t-104 -11.5q-43 0 -77.5 5.5t-55.5 13.5
v113q12 -4 27.5 -7t32 -5.5t32 -3.5t27.5 -1q29 0 56.5 3.5t49.5 13t35.5 25t13.5 39.5q0 21 -14 35.5t-39.5 23.5t-62 13.5t-81.5 6.5z" />
    <glyph glyph-name="Egrave" unicode="&#xc8;" horiz-adv-x="1129" 
d="M333 147h686v-147h-849v1338h812v-147h-649v-432h577v-147h-577v-465zM527 1656l146 -247h-139l-181 247h174zM202 1338z" />
    <glyph glyph-name="Eacute" unicode="&#xc9;" horiz-adv-x="1129" 
d="M333 147h686v-147h-849v1338h812v-147h-649v-432h577v-147h-577v-465zM823 1656l-181 -247h-139l146 247h174zM353 1338z" />
    <glyph glyph-name="Ecircumflex" unicode="&#xca;" horiz-adv-x="1129" 
d="M333 147h686v-147h-849v1338h812v-147h-649v-432h577v-147h-577v-465zM657 1656l216 -247h-158l-137 151h-4l-136 -151h-158l216 247h161zM227 1338z" />
    <glyph glyph-name="Edieresis" unicode="&#xcb;" horiz-adv-x="1129" 
d="M333 147h686v-147h-849v1338h812v-147h-649v-432h577v-147h-577v-465zM302 1448v169h161v-169h-161zM685 1448v169h161v-169h-161zM224 1338z" />
    <glyph glyph-name="Igrave" unicode="&#xcc;" horiz-adv-x="503" 
d="M170 0v1338h163v-1338h-163zM199 1656l146 -247h-139l-181 247h174zM-126 1338z" />
    <glyph glyph-name="Iacute" unicode="&#xcd;" horiz-adv-x="503" 
d="M170 0v1338h163v-1338h-163zM491 1656l-181 -247h-139l146 247h174zM21 1338z" />
    <glyph glyph-name="Icircumflex" unicode="&#xce;" horiz-adv-x="503" 
d="M170 0v1338h163v-1338h-163zM338 1656l216 -247h-158l-137 151h-4l-136 -151h-158l216 247h161zM-92 1338z" />
    <glyph glyph-name="Idieresis" unicode="&#xcf;" horiz-adv-x="503" 
d="M170 0v1338h163v-1338h-163zM-15 1448v169h161v-169h-161zM368 1448v169h161v-169h-161zM-93 1338z" />
    <glyph glyph-name="Eth" unicode="&#xd0;" horiz-adv-x="1404" 
d="M60 759h140v579h306q91 0 169 -7.5t145 -26.5q117 -33 204.5 -92t145 -139.5t86 -181t28.5 -216.5q0 -117 -29 -220t-87.5 -185.5t-146 -142.5t-204.5 -93q-67 -19 -145 -26.5t-169 -7.5h-303v612h-140v147zM1112 675q0 193 -84 313t-241 170q-60 19 -134 26t-167 7h-123
v-432h344v-147h-344v-465h123q93 0 167 7t134 26q157 50 241 175t84 320z" />
    <glyph glyph-name="Ntilde" unicode="&#xd1;" horiz-adv-x="1426" 
d="M857 592q123 -177 243 -364h6q-13 195 -13 398v712h163v-1338h-162l-525 746q-136 195 -243 364h-6q13 -183 13 -427v-683h-163v1338h162zM580 1641q41 0 80 -14.5t72 -32t62.5 -32t55.5 -14.5q34 0 47.5 23t13.5 62h125v-22q0 -33 -7 -66.5t-27.5 -62t-54 -45
t-81.5 -16.5q-41 0 -80 14.5t-72 32t-62.5 32t-55.5 14.5q-34 0 -47.5 -23t-13.5 -62h-125v14q-1 35 6.5 72t28 65.5t54 44.5t81.5 16zM373 1338z" />
    <glyph glyph-name="Ograve" unicode="&#xd2;" horiz-adv-x="1496" 
d="M1204 668q0 135 -35 238t-96.5 172t-145 104.5t-179.5 35.5t-179.5 -35.5t-145 -104.5t-96.5 -172t-35 -238t35.5 -237.5t97 -171.5t145 -104t180.5 -35q96 0 178.5 35t144 104t96.5 171.5t35 237.5zM1376 668q0 -152 -44 -279t-126 -219t-197.5 -143.5t-258.5 -51.5
q-148 0 -265 51.5t-198 143.5t-124 219t-43 279q0 153 44.5 280.5t126 219.5t197.5 143.5t260 51.5q147 0 263.5 -51.5t197.5 -143.5t124 -219.5t43 -280.5zM683 1656l146 -247h-139l-181 247h174zM358 1338z" />
    <glyph glyph-name="Oacute" unicode="&#xd3;" horiz-adv-x="1496" 
d="M1204 668q0 135 -35 238t-96.5 172t-145 104.5t-179.5 35.5t-179.5 -35.5t-145 -104.5t-96.5 -172t-35 -238t35.5 -237.5t97 -171.5t145 -104t180.5 -35q96 0 178.5 35t144 104t96.5 171.5t35 237.5zM1376 668q0 -152 -44 -279t-126 -219t-197.5 -143.5t-258.5 -51.5
q-148 0 -265 51.5t-198 143.5t-124 219t-43 279q0 153 44.5 280.5t126 219.5t197.5 143.5t260 51.5q147 0 263.5 -51.5t197.5 -143.5t124 -219.5t43 -280.5zM990 1656l-181 -247h-139l146 247h174zM520 1338z" />
    <glyph glyph-name="Ocircumflex" unicode="&#xd4;" horiz-adv-x="1496" 
d="M1204 668q0 135 -35 238t-96.5 172t-145 104.5t-179.5 35.5t-179.5 -35.5t-145 -104.5t-96.5 -172t-35 -238t35.5 -237.5t97 -171.5t145 -104t180.5 -35q96 0 178.5 35t144 104t96.5 171.5t35 237.5zM1376 668q0 -152 -44 -279t-126 -219t-197.5 -143.5t-258.5 -51.5
q-148 0 -265 51.5t-198 143.5t-124 219t-43 279q0 153 44.5 280.5t126 219.5t197.5 143.5t260 51.5q147 0 263.5 -51.5t197.5 -143.5t124 -219.5t43 -280.5zM831 1656l216 -247h-158l-137 151h-4l-136 -151h-158l216 247h161zM401 1338z" />
    <glyph glyph-name="Otilde" unicode="&#xd5;" horiz-adv-x="1496" 
d="M1204 668q0 135 -35 238t-96.5 172t-145 104.5t-179.5 35.5t-179.5 -35.5t-145 -104.5t-96.5 -172t-35 -238t35.5 -237.5t97 -171.5t145 -104t180.5 -35q96 0 178.5 35t144 104t96.5 171.5t35 237.5zM1376 668q0 -152 -44 -279t-126 -219t-197.5 -143.5t-258.5 -51.5
q-148 0 -265 51.5t-198 143.5t-124 219t-43 279q0 153 44.5 280.5t126 219.5t197.5 143.5t260 51.5q147 0 263.5 -51.5t197.5 -143.5t124 -219.5t43 -280.5zM606 1641q41 0 80 -14.5t72 -32t62.5 -32t55.5 -14.5q34 0 47.5 23t13.5 62h125v-22q0 -33 -7 -66.5t-27.5 -62
t-54 -45t-81.5 -16.5q-41 0 -80 14.5t-72 32t-62.5 32t-55.5 14.5q-34 0 -47.5 -23t-13.5 -62h-125v14q-1 35 6.5 72t28 65.5t54 44.5t81.5 16zM399 1338z" />
    <glyph glyph-name="Odieresis" unicode="&#xd6;" horiz-adv-x="1496" 
d="M1204 668q0 135 -35 238t-96.5 172t-145 104.5t-179.5 35.5t-179.5 -35.5t-145 -104.5t-96.5 -172t-35 -238t35.5 -237.5t97 -171.5t145 -104t180.5 -35q96 0 178.5 35t144 104t96.5 171.5t35 237.5zM1376 668q0 -152 -44 -279t-126 -219t-197.5 -143.5t-258.5 -51.5
q-148 0 -265 51.5t-198 143.5t-124 219t-43 279q0 153 44.5 280.5t126 219.5t197.5 143.5t260 51.5q147 0 263.5 -51.5t197.5 -143.5t124 -219.5t43 -280.5zM476 1448v169h161v-169h-161zM859 1448v169h161v-169h-161zM398 1338z" />
    <glyph glyph-name="multiply" unicode="&#xd7;" 
d="M105 848l94 93l326 -327l327 327l93 -93l-327 -327l327 -326l-94 -93l-326 326l-326 -326l-93 93l326 326z" />
    <glyph glyph-name="Oslash" unicode="&#xd8;" horiz-adv-x="1496" 
d="M120 71l130 146q-64 89 -97 203t-33 248q0 153 44.5 280.5t126 219.5t197.5 143.5t260 51.5q121 0 221 -35t178 -100l120 135l109 -95l-130 -147q63 -89 96.5 -203.5t33.5 -249.5q0 -152 -44 -279t-126 -219t-197.5 -143.5t-258.5 -51.5q-123 0 -223.5 35t-178.5 100
l-120 -135zM1204 668q0 99 -19 179.5t-54 144.5l-677 -763q60 -54 135 -81.5t161 -27.5q96 0 178.5 35t144 104t96.5 171.5t35 237.5zM292 668q0 -99 18.5 -179t53.5 -144l677 764q-59 54 -133.5 81.5t-159.5 27.5q-96 0 -179.5 -35.5t-145 -104.5t-96.5 -172t-35 -238z" />
    <glyph glyph-name="Ugrave" unicode="&#xd9;" horiz-adv-x="1374" 
d="M687 120q73 0 129.5 17t98.5 48t70 74.5t43 96.5q10 33 14 73.5t4 78.5v830h163v-826q0 -47 -5 -98t-16 -95q-19 -74 -57 -137t-99 -109t-146.5 -72t-200.5 -26q-110 0 -193 24t-142.5 66.5t-97.5 101t-59 127.5q-15 50 -21.5 107t-6.5 111v826h163v-830q0 -45 6.5 -92.5
t20.5 -86.5q35 -97 116.5 -153t215.5 -56zM618 1656l146 -247h-139l-181 247h174zM293 1338z" />
    <glyph glyph-name="Uacute" unicode="&#xda;" horiz-adv-x="1374" 
d="M687 120q73 0 129.5 17t98.5 48t70 74.5t43 96.5q10 33 14 73.5t4 78.5v830h163v-826q0 -47 -5 -98t-16 -95q-19 -74 -57 -137t-99 -109t-146.5 -72t-200.5 -26q-110 0 -193 24t-142.5 66.5t-97.5 101t-59 127.5q-15 50 -21.5 107t-6.5 111v826h163v-830q0 -45 6.5 -92.5
t20.5 -86.5q35 -97 116.5 -153t215.5 -56zM925 1656l-181 -247h-139l146 247h174zM455 1338z" />
    <glyph glyph-name="Ucircumflex" unicode="&#xdb;" horiz-adv-x="1374" 
d="M687 120q73 0 129.5 17t98.5 48t70 74.5t43 96.5q10 33 14 73.5t4 78.5v830h163v-826q0 -47 -5 -98t-16 -95q-19 -74 -57 -137t-99 -109t-146.5 -72t-200.5 -26q-110 0 -193 24t-142.5 66.5t-97.5 101t-59 127.5q-15 50 -21.5 107t-6.5 111v826h163v-830q0 -45 6.5 -92.5
t20.5 -86.5q35 -97 116.5 -153t215.5 -56zM765 1656l216 -247h-158l-137 151h-4l-136 -151h-158l216 247h161zM335 1338z" />
    <glyph glyph-name="Udieresis" unicode="&#xdc;" horiz-adv-x="1374" 
d="M687 120q73 0 129.5 17t98.5 48t70 74.5t43 96.5q10 33 14 73.5t4 78.5v830h163v-826q0 -47 -5 -98t-16 -95q-19 -74 -57 -137t-99 -109t-146.5 -72t-200.5 -26q-110 0 -193 24t-142.5 66.5t-97.5 101t-59 127.5q-15 50 -21.5 107t-6.5 111v826h163v-830q0 -45 6.5 -92.5
t20.5 -86.5q35 -97 116.5 -153t215.5 -56zM415 1448v169h161v-169h-161zM798 1448v169h161v-169h-161zM337 1338z" />
    <glyph glyph-name="Yacute" unicode="&#xdd;" horiz-adv-x="1217" 
d="M690 538v-538h-163v538l-487 800h178l388 -650h5l388 650h178zM852 1656l-181 -247h-139l146 247h174zM382 1338z" />
    <glyph glyph-name="Thorn" unicode="&#xde;" horiz-adv-x="1162" 
d="M333 450q33 -4 69 -6t68 -2q115 0 195 15t129.5 45.5t72 77t22.5 109.5q0 78 -37.5 127t-106.5 75q-43 16 -99 22.5t-130 6.5h-183v-470zM526 1067q90 0 161.5 -10t130.5 -31q120 -43 182 -127t62 -210q0 -102 -40 -176.5t-116 -122.5t-185.5 -71.5t-248.5 -23.5
q-67 0 -139 6v-301h-163v1338h163v-271h193z" />
    <glyph glyph-name="germandbls" unicode="&#xdf;" horiz-adv-x="1248" 
d="M991 1192q0 -56 -18 -98.5t-45.5 -77t-59 -63.5t-59 -57.5t-45.5 -60t-18 -71.5q0 -33 14 -57t38 -42.5t55 -34t65 -30.5q43 -19 86.5 -42.5t79 -57.5t57.5 -83.5t22 -121.5t-28 -131t-79 -101t-122 -65t-156 -23q-45 0 -82 5.5t-67 13.5t-52.5 17.5t-36.5 17.5v130
q30 -12 56.5 -21.5t53 -16.5t54.5 -10.5t60 -3.5q56 0 101 13t77.5 37t50 57.5t17.5 74.5q0 42 -16 72.5t-42 53t-60.5 40t-70.5 33.5q-41 19 -82 39.5t-73.5 50t-52.5 71.5t-20 102q0 59 18 103t45 79.5t59 64.5t59 58t45 60t18 71q0 32 -12 59.5t-37.5 48t-66.5 32
t-99 11.5q-79 0 -136.5 -25.5t-95.5 -72t-56.5 -111.5t-18.5 -144v-985h-155v994q0 108 30.5 196t89.5 151t145 97.5t197 34.5q95 0 164.5 -23.5t115 -62.5t67.5 -89.5t22 -105.5z" />
    <glyph glyph-name="agrave" unicode="&#xe0;" horiz-adv-x="1003" 
d="M706 105h-4q-19 -24 -48 -47.5t-67 -42t-83 -29.5t-96 -11q-69 0 -126.5 20.5t-99 60t-64.5 96.5t-23 129q0 71 25.5 127t71.5 95t110.5 60t142.5 21q74 -1 137 -13t112 -30h4v66q0 39 -5 69t-17 53q-26 48 -83 79.5t-154 31.5q-72 0 -135.5 -13.5t-126.5 -37.5v130
q24 12 56.5 22.5t68.5 18t76 11.5t80 4q144 0 235.5 -51t131.5 -135q15 -32 21.5 -70.5t6.5 -84.5v-634h-130zM698 417q-43 12 -102 23t-130 12q-99 0 -155 -42t-56 -129q0 -44 14 -77t38.5 -54.5t58 -32t71.5 -10.5q50 0 93 14.5t76.5 34.5t57 40t34.5 31v190zM446 1473
l123 -349h-130l-161 349h168zM70 950z" />
    <glyph glyph-name="aacute" unicode="&#xe1;" horiz-adv-x="1003" 
d="M706 105h-4q-19 -24 -48 -47.5t-67 -42t-83 -29.5t-96 -11q-69 0 -126.5 20.5t-99 60t-64.5 96.5t-23 129q0 71 25.5 127t71.5 95t110.5 60t142.5 21q74 -1 137 -13t112 -30h4v66q0 39 -5 69t-17 53q-26 48 -83 79.5t-154 31.5q-72 0 -135.5 -13.5t-126.5 -37.5v130
q24 12 56.5 22.5t68.5 18t76 11.5t80 4q144 0 235.5 -51t131.5 -135q15 -32 21.5 -70.5t6.5 -84.5v-634h-130zM698 417q-43 12 -102 23t-130 12q-99 0 -155 -42t-56 -129q0 -44 14 -77t38.5 -54.5t58 -32t71.5 -10.5q50 0 93 14.5t76.5 34.5t57 40t34.5 31v190zM705 1473
l-161 -349h-130l123 349h168zM199 950z" />
    <glyph glyph-name="acircumflex" unicode="&#xe2;" horiz-adv-x="1003" 
d="M706 105h-4q-19 -24 -48 -47.5t-67 -42t-83 -29.5t-96 -11q-69 0 -126.5 20.5t-99 60t-64.5 96.5t-23 129q0 71 25.5 127t71.5 95t110.5 60t142.5 21q74 -1 137 -13t112 -30h4v66q0 39 -5 69t-17 53q-26 48 -83 79.5t-154 31.5q-72 0 -135.5 -13.5t-126.5 -37.5v130
q24 12 56.5 22.5t68.5 18t76 11.5t80 4q144 0 235.5 -51t131.5 -135q15 -32 21.5 -70.5t6.5 -84.5v-634h-130zM698 417q-43 12 -102 23t-130 12q-99 0 -155 -42t-56 -129q0 -44 14 -77t38.5 -54.5t58 -32t71.5 -10.5q50 0 93 14.5t76.5 34.5t57 40t34.5 31v190zM584 1473
l210 -349h-140l-147 246h-4l-146 -246h-140l210 349h157zM156 950z" />
    <glyph glyph-name="atilde" unicode="&#xe3;" horiz-adv-x="1003" 
d="M706 105h-4q-19 -24 -48 -47.5t-67 -42t-83 -29.5t-96 -11q-69 0 -126.5 20.5t-99 60t-64.5 96.5t-23 129q0 71 25.5 127t71.5 95t110.5 60t142.5 21q74 -1 137 -13t112 -30h4v66q0 39 -5 69t-17 53q-26 48 -83 79.5t-154 31.5q-72 0 -135.5 -13.5t-126.5 -37.5v130
q24 12 56.5 22.5t68.5 18t76 11.5t80 4q144 0 235.5 -51t131.5 -135q15 -32 21.5 -70.5t6.5 -84.5v-634h-130zM698 417q-43 12 -102 23t-130 12q-99 0 -155 -42t-56 -129q0 -44 14 -77t38.5 -54.5t58 -32t71.5 -10.5q50 0 93 14.5t76.5 34.5t57 40t34.5 31v190zM174 1178v23
q0 34 7.5 67.5t27 61t52.5 44t81 16.5q41 0 80 -14.5t72 -32.5t64.5 -33t55.5 -15q31 0 45.5 22t14.5 65h122v-23q0 -34 -7.5 -67.5t-27 -61t-52.5 -44t-81 -16.5q-41 0 -80 14.5t-72 32.5t-64.5 33t-55.5 15q-31 0 -45.5 -22t-14.5 -65h-122zM135 950z" />
    <glyph glyph-name="adieresis" unicode="&#xe4;" horiz-adv-x="1003" 
d="M706 105h-4q-19 -24 -48 -47.5t-67 -42t-83 -29.5t-96 -11q-69 0 -126.5 20.5t-99 60t-64.5 96.5t-23 129q0 71 25.5 127t71.5 95t110.5 60t142.5 21q74 -1 137 -13t112 -30h4v66q0 39 -5 69t-17 53q-26 48 -83 79.5t-154 31.5q-72 0 -135.5 -13.5t-126.5 -37.5v130
q24 12 56.5 22.5t68.5 18t76 11.5t80 4q144 0 235.5 -51t131.5 -135q15 -32 21.5 -70.5t6.5 -84.5v-634h-130zM698 417q-43 12 -102 23t-130 12q-99 0 -155 -42t-56 -129q0 -44 14 -77t38.5 -54.5t58 -32t71.5 -10.5q50 0 93 14.5t76.5 34.5t57 40t34.5 31v190zM229 1171
v167h159v-167h-159zM610 1171v167h159v-167h-159zM149 950z" />
    <glyph glyph-name="aring" unicode="&#xe5;" horiz-adv-x="1003" 
d="M706 105h-4q-19 -24 -48 -47.5t-67 -42t-83 -29.5t-96 -11q-69 0 -126.5 20.5t-99 60t-64.5 96.5t-23 129q0 71 25.5 127t71.5 95t110.5 60t142.5 21q74 -1 137 -13t112 -30h4v66q0 39 -5 69t-17 53q-26 48 -83 79.5t-154 31.5q-72 0 -135.5 -13.5t-126.5 -37.5v130
q24 12 56.5 22.5t68.5 18t76 11.5t80 4q144 0 235.5 -51t131.5 -135q15 -32 21.5 -70.5t6.5 -84.5v-634h-130zM698 417q-43 12 -102 23t-130 12q-99 0 -155 -42t-56 -129q0 -44 14 -77t38.5 -54.5t58 -32t71.5 -10.5q50 0 93 14.5t76.5 34.5t57 40t34.5 31v190zM479 1100
q-48 0 -90 13.5t-72.5 38.5t-48.5 61t-18 82t18 82t48.5 61t72.5 38.5t90 13.5t90 -13.5t72.5 -38.5t48.5 -61t18 -82t-18 -82t-48.5 -61t-72.5 -38.5t-90 -13.5zM479 1392q-45 0 -75.5 -25t-30.5 -72t30.5 -72t75.5 -25t75.5 25t30.5 72t-30.5 72t-75.5 25zM129 950z" />
    <glyph glyph-name="ae" unicode="&#xe6;" horiz-adv-x="1592" 
d="M458 975q71 0 123.5 -12.5t91.5 -35.5t67 -54t49 -69h4q55 84 133.5 127.5t178.5 43.5q83 0 155 -30t123 -94t75.5 -155.5t22.5 -200.5q0 -23 -1 -52h-632q0 -91 24.5 -154.5t68 -103t104.5 -57.5t135 -18q75 0 139.5 12t127.5 36v-129q-51 -25 -126 -40.5t-161 -13.5
q-115 3 -207.5 36.5t-154.5 108.5h-4q-28 -26 -63 -52t-79 -46.5t-98 -33.5t-119 -13q-79 0 -142 20.5t-107 60t-67.5 96.5t-23.5 129q0 71 25.5 127t71.5 95t110.5 60t142.5 21q76 0 138.5 -12.5t111.5 -30.5h4v58q0 116 -60.5 178.5t-199.5 62.5q-72 0 -135.5 -13.5
t-126.5 -37.5v130q25 12 55.5 22t67.5 17.5t77.5 12t80.5 4.5zM450 107q51 0 95 11t80 28.5t63.5 39t45.5 42.5q-31 78 -37 188q-40 11 -104 23.5t-127 12.5q-99 0 -155 -42t-56 -129q0 -44 14.5 -77t40 -54.5t61.5 -32t79 -10.5zM1095 842q-53 0 -95.5 -21t-73.5 -57
t-49.5 -84.5t-23.5 -103.5h463q0 56 -14.5 104.5t-42.5 84.5t-69 56.5t-95 20.5z" />
    <glyph glyph-name="ccedilla" unicode="&#xe7;" horiz-adv-x="898" 
d="M462 -16q-78 13 -145.5 49t-116.5 95.5t-77 142.5t-28 192q0 94 19.5 169t53.5 132t79.5 97t97 65.5t106.5 37t107 11.5q69 0 131.5 -14.5t108.5 -40.5v-129q-64 24 -117 36t-107 12q-60 0 -116 -19t-101 -62.5t-72.5 -116t-27.5 -176.5q0 -77 20.5 -142t61 -112.5
t101.5 -74t141 -26.5q57 0 116.5 12.5t115.5 35.5v-129q-16 -10 -41 -19.5t-55.5 -16.5t-65 -12t-69.5 -6l-28 -101q40 -6 73.5 -18.5t57.5 -32.5t37 -48.5t13 -65.5q0 -52 -23 -89.5t-61.5 -62t-88.5 -36t-104 -11.5q-43 0 -77.5 5.5t-55.5 13.5v113q12 -4 27.5 -7t32 -5.5
t32 -3.5t27.5 -1q29 0 56.5 3.5t49.5 13t35.5 25t13.5 39.5q0 21 -14 35.5t-39.5 23.5t-62 13.5t-81.5 6.5z" />
    <glyph glyph-name="egrave" unicode="&#xe8;" horiz-adv-x="1019" 
d="M477 1473l123 -349h-130l-161 349h168zM101 950zM522 842q-53 0 -98.5 -21t-79.5 -57t-55 -84.5t-26 -103.5h480q0 56 -14.5 104.5t-42.5 84.5t-69 56.5t-95 20.5zM607 110q77 0 140.5 12.5t126.5 35.5v-129q-51 -25 -126 -39.5t-161 -14.5q-102 0 -191.5 26t-156.5 84
t-105.5 151.5t-38.5 225.5q0 130 36 225.5t96 159.5t138 96t163 32q80 0 149.5 -26.5t120.5 -83.5t80.5 -147t29.5 -216v-20.5t-1 -38.5h-652q0 -91 27.5 -154.5t75 -103t111.5 -57.5t138 -18z" />
    <glyph glyph-name="eacute" unicode="&#xe9;" horiz-adv-x="1019" 
d="M743 1473l-161 -349h-130l123 349h168zM237 950zM522 842q-53 0 -98.5 -21t-79.5 -57t-55 -84.5t-26 -103.5h480q0 56 -14.5 104.5t-42.5 84.5t-69 56.5t-95 20.5zM607 110q77 0 140.5 12.5t126.5 35.5v-129q-51 -25 -126 -39.5t-161 -14.5q-102 0 -191.5 26t-156.5 84
t-105.5 151.5t-38.5 225.5q0 130 36 225.5t96 159.5t138 96t163 32q80 0 149.5 -26.5t120.5 -83.5t80.5 -147t29.5 -216v-20.5t-1 -38.5h-652q0 -91 27.5 -154.5t75 -103t111.5 -57.5t138 -18z" />
    <glyph glyph-name="ecircumflex" unicode="&#xea;" horiz-adv-x="1019" 
d="M598 1473l210 -349h-140l-147 246h-4l-146 -246h-140l210 349h157zM170 950zM522 842q-53 0 -98.5 -21t-79.5 -57t-55 -84.5t-26 -103.5h480q0 56 -14.5 104.5t-42.5 84.5t-69 56.5t-95 20.5zM607 110q77 0 140.5 12.5t126.5 35.5v-129q-51 -25 -126 -39.5t-161 -14.5
q-102 0 -191.5 26t-156.5 84t-105.5 151.5t-38.5 225.5q0 130 36 225.5t96 159.5t138 96t163 32q80 0 149.5 -26.5t120.5 -83.5t80.5 -147t29.5 -216v-20.5t-1 -38.5h-652q0 -91 27.5 -154.5t75 -103t111.5 -57.5t138 -18z" />
    <glyph glyph-name="edieresis" unicode="&#xeb;" horiz-adv-x="1019" 
d="M253 1171v167h159v-167h-159zM634 1171v167h159v-167h-159zM173 950zM522 842q-53 0 -98.5 -21t-79.5 -57t-55 -84.5t-26 -103.5h480q0 56 -14.5 104.5t-42.5 84.5t-69 56.5t-95 20.5zM607 110q77 0 140.5 12.5t126.5 35.5v-129q-51 -25 -126 -39.5t-161 -14.5
q-102 0 -191.5 26t-156.5 84t-105.5 151.5t-38.5 225.5q0 130 36 225.5t96 159.5t138 96t163 32q80 0 149.5 -26.5t120.5 -83.5t80.5 -147t29.5 -216v-20.5t-1 -38.5h-652q0 -91 27.5 -154.5t75 -103t111.5 -57.5t138 -18z" />
    <glyph glyph-name="igrave" unicode="&#xec;" horiz-adv-x="475" 
d="M160 0v950h155v-950h-155zM195 1473l123 -349h-130l-161 349h168zM-181 950z" />
    <glyph glyph-name="iacute" unicode="&#xed;" horiz-adv-x="475" 
d="M160 0v950h155v-950h-155zM468 1473l-161 -349h-130l123 349h168zM-38 950z" />
    <glyph glyph-name="icircumflex" unicode="&#xee;" horiz-adv-x="475" 
d="M160 0v950h155v-950h-155zM324 1473l210 -349h-140l-147 246h-4l-146 -246h-140l210 349h157zM-104 950z" />
    <glyph glyph-name="idieresis" unicode="&#xef;" horiz-adv-x="475" 
d="M160 0v950h155v-950h-155zM-25 1171v167h159v-167h-159zM356 1171v167h159v-167h-159zM-105 950z" />
    <glyph glyph-name="eth" unicode="&#xf0;" horiz-adv-x="1077" 
d="M891 1220l-194 -53q55 -70 104 -149t86 -165.5t58.5 -180.5t21.5 -193q0 -109 -29.5 -201t-85 -159.5t-136 -105.5t-181.5 -38q-104 0 -186 34.5t-138.5 96.5t-86 149.5t-29.5 193.5q0 107 31 195t86 151t129.5 98t161.5 35q78 0 135.5 -24t104.5 -69l3 3
q-38 75 -87.5 148t-106.5 142l-264 -72l-35 124l204 56q-56 59 -112.5 112t-110.5 100h194q41 -35 86 -78t91 -94l251 69zM808 468q0 90 -24.5 153.5t-64 102t-88.5 55.5t-99 17q-61 0 -111.5 -23.5t-87 -68t-56.5 -109t-20 -146.5q0 -81 20.5 -145t57 -107.5t88 -66.5
t112.5 -23t111.5 25.5t86.5 72.5t55.5 113.5t19.5 149.5z" />
    <glyph glyph-name="ntilde" unicode="&#xf1;" horiz-adv-x="1080" 
d="M300 818h3q26 33 57.5 61.5t70.5 50t85.5 33.5t101.5 12q65 0 122 -18t99 -58t66.5 -104.5t24.5 -158.5v-636h-155v611q0 123 -47.5 177t-138.5 54q-80 0 -155 -44.5t-129 -122.5v-675h-155v950h120zM221 1178v23q0 34 7.5 67.5t27 61t52.5 44t81 16.5q41 0 80 -14.5
t72 -32.5t64.5 -33t55.5 -15q31 0 45.5 22t14.5 65h122v-23q0 -34 -7.5 -67.5t-27 -61t-52.5 -44t-81 -16.5q-41 0 -80 14.5t-72 32.5t-64.5 33t-55.5 15q-31 0 -45.5 -22t-14.5 -65h-122zM182 950z" />
    <glyph glyph-name="ograve" unicode="&#xf2;" horiz-adv-x="1092" 
d="M835 474q0 88 -21.5 156.5t-60 116t-91.5 72t-116 24.5t-116 -24.5t-91.5 -72t-60 -116t-21.5 -156.5q0 -87 21.5 -155.5t60.5 -115.5t92 -71.5t116 -24.5t115.5 24.5t91 71.5t60 115.5t21.5 155.5zM997 474q0 -112 -32 -204t-90.5 -157.5t-141.5 -101.5t-186 -36
q-106 0 -189.5 36t-142 101.5t-89.5 157.5t-31 204q0 113 32 205t90.5 158t142 102t186.5 36q105 0 189 -36t142 -102t89 -158t31 -205zM492 1473l123 -349h-130l-161 349h168zM116 950z" />
    <glyph glyph-name="oacute" unicode="&#xf3;" horiz-adv-x="1092" 
d="M835 474q0 88 -21.5 156.5t-60 116t-91.5 72t-116 24.5t-116 -24.5t-91.5 -72t-60 -116t-21.5 -156.5q0 -87 21.5 -155.5t60.5 -115.5t92 -71.5t116 -24.5t115.5 24.5t91 71.5t60 115.5t21.5 155.5zM997 474q0 -112 -32 -204t-90.5 -157.5t-141.5 -101.5t-186 -36
q-106 0 -189.5 36t-142 101.5t-89.5 157.5t-31 204q0 113 32 205t90.5 158t142 102t186.5 36q105 0 189 -36t142 -102t89 -158t31 -205zM781 1473l-161 -349h-130l123 349h168zM275 950z" />
    <glyph glyph-name="ocircumflex" unicode="&#xf4;" horiz-adv-x="1092" 
d="M835 474q0 88 -21.5 156.5t-60 116t-91.5 72t-116 24.5t-116 -24.5t-91.5 -72t-60 -116t-21.5 -156.5q0 -87 21.5 -155.5t60.5 -115.5t92 -71.5t116 -24.5t115.5 24.5t91 71.5t60 115.5t21.5 155.5zM997 474q0 -112 -32 -204t-90.5 -157.5t-141.5 -101.5t-186 -36
q-106 0 -189.5 36t-142 101.5t-89.5 157.5t-31 204q0 113 32 205t90.5 158t142 102t186.5 36q105 0 189 -36t142 -102t89 -158t31 -205zM620 1473l210 -349h-140l-147 246h-4l-146 -246h-140l210 349h157zM192 950z" />
    <glyph glyph-name="otilde" unicode="&#xf5;" horiz-adv-x="1092" 
d="M835 474q0 88 -21.5 156.5t-60 116t-91.5 72t-116 24.5t-116 -24.5t-91.5 -72t-60 -116t-21.5 -156.5q0 -87 21.5 -155.5t60.5 -115.5t92 -71.5t116 -24.5t115.5 24.5t91 71.5t60 115.5t21.5 155.5zM997 474q0 -112 -32 -204t-90.5 -157.5t-141.5 -101.5t-186 -36
q-106 0 -189.5 36t-142 101.5t-89.5 157.5t-31 204q0 113 32 205t90.5 158t142 102t186.5 36q105 0 189 -36t142 -102t89 -158t31 -205zM228 1178v23q0 34 7.5 67.5t27 61t52.5 44t81 16.5q41 0 80 -14.5t72 -32.5t64.5 -33t55.5 -15q31 0 45.5 22t14.5 65h122v-23
q0 -34 -7.5 -67.5t-27 -61t-52.5 -44t-81 -16.5q-41 0 -80 14.5t-72 32.5t-64.5 33t-55.5 15q-31 0 -45.5 -22t-14.5 -65h-122zM189 950z" />
    <glyph glyph-name="odieresis" unicode="&#xf6;" horiz-adv-x="1092" 
d="M835 474q0 88 -21.5 156.5t-60 116t-91.5 72t-116 24.5t-116 -24.5t-91.5 -72t-60 -116t-21.5 -156.5q0 -87 21.5 -155.5t60.5 -115.5t92 -71.5t116 -24.5t115.5 24.5t91 71.5t60 115.5t21.5 155.5zM997 474q0 -112 -32 -204t-90.5 -157.5t-141.5 -101.5t-186 -36
q-106 0 -189.5 36t-142 101.5t-89.5 157.5t-31 204q0 113 32 205t90.5 158t142 102t186.5 36q105 0 189 -36t142 -102t89 -158t31 -205zM275 1171v167h159v-167h-159zM656 1171v167h159v-167h-159zM195 950z" />
    <glyph glyph-name="divide" unicode="&#xf7;" 
d="M445 257h160v-165h-160v165zM935 587v-132h-820v132h820zM445 950h160v-165h-160v165z" />
    <glyph glyph-name="oslash" unicode="&#xf8;" horiz-adv-x="1092" 
d="M95 60l85 97q-42 63 -63.5 142.5t-21.5 174.5q0 113 32 205t90.5 158t142 102t186.5 36q83 0 152 -22.5t124 -64.5l76 87l99 -85l-86 -98q42 -63 64 -143t22 -175q0 -112 -32 -204t-90.5 -157.5t-141.5 -101.5t-186 -36q-84 0 -153.5 22t-123.5 64l-76 -86zM257 474
q0 -109 34 -191l433 493q-73 67 -178 67q-63 0 -116 -24.5t-91.5 -72t-60 -116t-21.5 -156.5zM835 474q0 56 -9 104t-26 88l-432 -493q74 -66 179 -66q63 0 115.5 24.5t91 71.5t60 115.5t21.5 155.5z" />
    <glyph glyph-name="ugrave" unicode="&#xf9;" horiz-adv-x="1060" 
d="M527 -25q-74 0 -133 16t-103.5 45t-75.5 69.5t-49 88.5q-14 36 -20 79t-6 94v583h155v-582q0 -79 21 -132q24 -60 77.5 -94.5t136.5 -34.5q88 0 141.5 38t76.5 102q17 49 17 121v582h155v-584q0 -48 -5.5 -89.5t-17.5 -76.5q-18 -49 -49.5 -90.5t-77.5 -71.5
t-106.5 -46.5t-136.5 -16.5zM478 1473l123 -349h-130l-161 349h168zM102 950z" />
    <glyph glyph-name="uacute" unicode="&#xfa;" horiz-adv-x="1060" 
d="M527 -25q-74 0 -133 16t-103.5 45t-75.5 69.5t-49 88.5q-14 36 -20 79t-6 94v583h155v-582q0 -79 21 -132q24 -60 77.5 -94.5t136.5 -34.5q88 0 141.5 38t76.5 102q17 49 17 121v582h155v-584q0 -48 -5.5 -89.5t-17.5 -76.5q-18 -49 -49.5 -90.5t-77.5 -71.5
t-106.5 -46.5t-136.5 -16.5zM754 1473l-161 -349h-130l123 349h168zM248 950z" />
    <glyph glyph-name="ucircumflex" unicode="&#xfb;" horiz-adv-x="1060" 
d="M527 -25q-74 0 -133 16t-103.5 45t-75.5 69.5t-49 88.5q-14 36 -20 79t-6 94v583h155v-582q0 -79 21 -132q24 -60 77.5 -94.5t136.5 -34.5q88 0 141.5 38t76.5 102q17 49 17 121v582h155v-584q0 -48 -5.5 -89.5t-17.5 -76.5q-18 -49 -49.5 -90.5t-77.5 -71.5
t-106.5 -46.5t-136.5 -16.5zM610 1473l210 -349h-140l-147 246h-4l-146 -246h-140l210 349h157zM182 950z" />
    <glyph glyph-name="udieresis" unicode="&#xfc;" horiz-adv-x="1060" 
d="M527 -25q-74 0 -133 16t-103.5 45t-75.5 69.5t-49 88.5q-14 36 -20 79t-6 94v583h155v-582q0 -79 21 -132q24 -60 77.5 -94.5t136.5 -34.5q88 0 141.5 38t76.5 102q17 49 17 121v582h155v-584q0 -48 -5.5 -89.5t-17.5 -76.5q-18 -49 -49.5 -90.5t-77.5 -71.5
t-106.5 -46.5t-136.5 -16.5zM260 1171v167h159v-167h-159zM641 1171v167h159v-167h-159zM180 950z" />
    <glyph glyph-name="yacute" unicode="&#xfd;" horiz-adv-x="982" 
d="M30 950h159l295 -745h6l299 745h163l-593 -1415h-154l203 484zM703 1473l-161 -349h-130l123 349h168zM197 950z" />
    <glyph glyph-name="thorn" unicode="&#xfe;" horiz-adv-x="1087" 
d="M992 489q0 -100 -19.5 -176.5t-51.5 -134t-75 -96.5t-89 -62.5t-93.5 -34t-89.5 -10.5q-86 0 -150.5 28.5t-115.5 84.5h-3v-553h-155v1913h155v-587h3q51 56 118.5 85t154.5 29q41 0 87 -9.5t91.5 -31t87.5 -58t74.5 -90.5t51.5 -128t19 -169zM828 481q0 109 -26.5 181.5
t-68.5 112t-90 53.5t-92 14q-72 0 -134.5 -29.5t-111.5 -78.5v-519q49 -50 111.5 -79t134.5 -29q44 0 92 16.5t90 58.5t68.5 116t26.5 183z" />
    <glyph glyph-name="ydieresis" unicode="&#xff;" horiz-adv-x="982" 
d="M30 950h159l295 -745h6l299 745h163l-593 -1415h-154l203 484zM217 1171v167h159v-167h-159zM598 1171v167h159v-167h-159zM137 950z" />
    <glyph glyph-name="Amacron" unicode="&#x100;" horiz-adv-x="1301" 
d="M35 0l545 1338h141l545 -1338h-177l-160 403h-559l-160 -403h-175zM649 1130q-89 -250 -171 -454l-50 -126h443l-50 126q-82 208 -168 454h-4zM379 1581h540v-133h-540v133zM299 1338z" />
    <glyph glyph-name="amacron" unicode="&#x101;" horiz-adv-x="1003" 
d="M706 105h-4q-19 -24 -48 -47.5t-67 -42t-83 -29.5t-96 -11q-69 0 -126.5 20.5t-99 60t-64.5 96.5t-23 129q0 71 25.5 127t71.5 95t110.5 60t142.5 21q74 -1 137 -13t112 -30h4v66q0 39 -5 69t-17 53q-26 48 -83 79.5t-154 31.5q-72 0 -135.5 -13.5t-126.5 -37.5v130
q24 12 56.5 22.5t68.5 18t76 11.5t80 4q144 0 235.5 -51t131.5 -135q15 -32 21.5 -70.5t6.5 -84.5v-634h-130zM698 417q-43 12 -102 23t-130 12q-99 0 -155 -42t-56 -129q0 -44 14 -77t38.5 -54.5t58 -32t71.5 -10.5q50 0 93 14.5t76.5 34.5t57 40t34.5 31v190zM236 1300
h540v-129h-540v129zM156 950z" />
    <glyph glyph-name="Abreve" unicode="&#x102;" horiz-adv-x="1301" 
d="M35 0l545 1338h141l545 -1338h-177l-160 403h-559l-160 -403h-175zM649 1130q-89 -250 -171 -454l-50 -126h443l-50 126q-82 208 -168 454h-4zM648 1530q28 0 56.5 7.5t52.5 24.5t41 43.5t23 64.5h133q-7 -64 -33 -112.5t-66.5 -81.5t-93.5 -50t-113 -17t-113 17
t-93.5 50t-66.5 81.5t-33 112.5h133q6 -38 23 -64.5t41 -43.5t52.5 -24.5t56.5 -7.5zM301 1338z" />
    <glyph glyph-name="abreve" unicode="&#x103;" horiz-adv-x="1003" 
d="M706 105h-4q-19 -24 -48 -47.5t-67 -42t-83 -29.5t-96 -11q-69 0 -126.5 20.5t-99 60t-64.5 96.5t-23 129q0 71 25.5 127t71.5 95t110.5 60t142.5 21q74 -1 137 -13t112 -30h4v66q0 39 -5 69t-17 53q-26 48 -83 79.5t-154 31.5q-72 0 -135.5 -13.5t-126.5 -37.5v130
q24 12 56.5 22.5t68.5 18t76 11.5t80 4q144 0 235.5 -51t131.5 -135q15 -32 21.5 -70.5t6.5 -84.5v-634h-130zM698 417q-43 12 -102 23t-130 12q-99 0 -155 -42t-56 -129q0 -44 14 -77t38.5 -54.5t58 -32t71.5 -10.5q50 0 93 14.5t76.5 34.5t57 40t34.5 31v190zM496 1257
q74 0 117.5 42t57.5 133h131q-4 -64 -25.5 -118t-60 -93.5t-94 -62t-126.5 -22.5t-126.5 22.5t-94 62t-60 93.5t-25.5 118h131q14 -91 57.5 -133t117.5 -42zM146 950z" />
    <glyph glyph-name="Aogonek" unicode="&#x104;" horiz-adv-x="1301" 
d="M1266 0q-29 -18 -67 -46.5t-72.5 -63.5t-58 -74.5t-23.5 -83.5q0 -35 23.5 -61t74.5 -26q26 0 56 5.5t67 17.5v-128q-29 -13 -69.5 -21.5t-81.5 -8.5q-53 0 -93 15t-66.5 40t-40 58.5t-13.5 73.5q0 85 51 162.5t136 140.5l-160 403h-559l-160 -403h-175l545 1338h141z
M649 1130q-89 -250 -171 -454l-50 -126h443l-50 126q-82 208 -168 454h-4z" />
    <glyph glyph-name="aogonek" unicode="&#x105;" horiz-adv-x="1003" 
d="M698 417q-43 12 -101 23t-131 12q-99 0 -155 -42t-56 -129q0 -44 14 -77t38.5 -54.5t58 -32t71.5 -10.5q50 0 93 14.5t76.5 34.5t57 40t34.5 31v190zM706 105h-4q-19 -24 -48 -47.5t-67 -42t-83 -29.5t-96 -11q-69 0 -126.5 20.5t-99 60t-64.5 96.5t-23 129
q0 71 25.5 127t71.5 95t110.5 60t142.5 21q78 -1 141 -13.5t108 -29.5h4v66q0 39 -5 69t-17 53q-26 49 -83 79.5t-154 31.5q-72 0 -135.5 -13.5t-126.5 -37.5v130q24 12 56 22t69.5 18t76.5 12t79 4q144 -1 236 -51.5t131 -134.5q15 -32 21.5 -70.5t6.5 -84.5v-634
q-31 -20 -71 -52t-75.5 -69.5t-60 -78t-24.5 -78.5q0 -37 23 -57t71 -20q28 0 59 5.5t68 17.5v-128q-29 -13 -71 -21.5t-86 -8.5q-97 0 -152 44.5t-55 130.5q0 54 20.5 99.5t54.5 84.5t78 73t91 67z" />
    <glyph glyph-name="Cacute" unicode="&#x106;" horiz-adv-x="1207" 
d="M820 1218q-111 0 -207.5 -35.5t-167.5 -106t-112 -175t-41 -243.5q0 -138 38 -239.5t108 -168t168.5 -98.5t219.5 -32q33 0 70 3.5t74.5 10t73 15t63.5 18.5v-144q-59 -23 -137 -35.5t-160 -12.5q-167 0 -296 46.5t-216.5 133.5t-132.5 212.5t-45 284.5q0 156 47.5 287
t137 225t217 146.5t286.5 52.5q42 0 83 -3.5t78.5 -10t69.5 -15.5t55 -19v-144q-60 20 -131 33.5t-143 13.5zM1056 1656l-181 -247h-139l146 247h174zM586 1338z" />
    <glyph glyph-name="cacute" unicode="&#x107;" horiz-adv-x="898" 
d="M558 975q69 0 132 -14.5t108 -40.5v-129q-63 24 -116 36t-108 12q-58 0 -115 -19t-102 -62.5t-72.5 -115t-27.5 -177.5q0 -77 20.5 -142t61 -112.5t101.5 -74t141 -26.5q58 0 117 12.5t115 35.5v-129q-17 -10 -44.5 -20t-60.5 -17.5t-70 -12t-74 -4.5q-96 0 -181.5 29
t-149.5 89t-101 152t-37 218q0 94 19.5 169t53.5 132t79.5 97t97 65.5t106.5 37t107 11.5zM737 1473l-161 -349h-130l123 349h168zM231 950z" />
    <glyph glyph-name="Ccircumflex" unicode="&#x108;" horiz-adv-x="1207" 
d="M820 1218q-111 0 -207.5 -35.5t-167.5 -106t-112 -175t-41 -243.5q0 -138 38 -239.5t108 -168t168.5 -98.5t219.5 -32q33 0 70 3.5t74.5 10t73 15t63.5 18.5v-144q-59 -23 -137 -35.5t-160 -12.5q-167 0 -296 46.5t-216.5 133.5t-132.5 212.5t-45 284.5q0 156 47.5 287
t137 225t217 146.5t286.5 52.5q42 0 83 -3.5t78.5 -10t69.5 -15.5t55 -19v-144q-60 20 -131 33.5t-143 13.5zM849 1656l216 -247h-158l-137 151h-4l-136 -151h-158l216 247h161zM419 1338z" />
    <glyph glyph-name="ccircumflex" unicode="&#x109;" horiz-adv-x="898" 
d="M558 975q69 0 132 -14.5t108 -40.5v-129q-63 24 -116 36t-108 12q-58 0 -115 -19t-102 -62.5t-72.5 -115t-27.5 -177.5q0 -77 20.5 -142t61 -112.5t101.5 -74t141 -26.5q58 0 117 12.5t115 35.5v-129q-17 -10 -44.5 -20t-60.5 -17.5t-70 -12t-74 -4.5q-96 0 -181.5 29
t-149.5 89t-101 152t-37 218q0 94 19.5 169t53.5 132t79.5 97t97 65.5t106.5 37t107 11.5zM613 1473l210 -349h-140l-147 246h-4l-146 -246h-140l210 349h157zM185 950z" />
    <glyph glyph-name="Cdotaccent" unicode="&#x10a;" horiz-adv-x="1207" 
d="M820 1218q-111 0 -207.5 -35.5t-167.5 -106t-112 -175t-41 -243.5q0 -138 38 -239.5t108 -168t168.5 -98.5t219.5 -32q33 0 70 3.5t74.5 10t73 15t63.5 18.5v-144q-59 -23 -137 -35.5t-160 -12.5q-167 0 -296 46.5t-216.5 133.5t-132.5 212.5t-45 284.5q0 156 47.5 287
t137 225t217 146.5t286.5 52.5q42 0 83 -3.5t78.5 -10t69.5 -15.5t55 -19v-144q-60 20 -131 33.5t-143 13.5zM659 1448v173h163v-173h-163zM391 1338z" />
    <glyph glyph-name="cdotaccent" unicode="&#x10b;" horiz-adv-x="898" 
d="M558 975q69 0 132 -14.5t108 -40.5v-129q-63 24 -116 36t-108 12q-58 0 -115 -19t-102 -62.5t-72.5 -115t-27.5 -177.5q0 -77 20.5 -142t61 -112.5t101.5 -74t141 -26.5q58 0 117 12.5t115 35.5v-129q-17 -10 -44.5 -20t-60.5 -17.5t-70 -12t-74 -4.5q-96 0 -181.5 29
t-149.5 89t-101 152t-37 218q0 94 19.5 169t53.5 132t79.5 97t97 65.5t106.5 37t107 11.5zM455 1171v173h163v-173h-163zM187 950z" />
    <glyph glyph-name="Ccaron" unicode="&#x10c;" horiz-adv-x="1207" 
d="M820 1218q-111 0 -207.5 -35.5t-167.5 -106t-112 -175t-41 -243.5q0 -138 38 -239.5t108 -168t168.5 -98.5t219.5 -32q33 0 70 3.5t74.5 10t73 15t63.5 18.5v-144q-59 -23 -137 -35.5t-160 -12.5q-167 0 -296 46.5t-216.5 133.5t-132.5 212.5t-45 284.5q0 156 47.5 287
t137 225t217 146.5t286.5 52.5q42 0 83 -3.5t78.5 -10t69.5 -15.5t55 -19v-144q-60 20 -131 33.5t-143 13.5zM698 1410l-216 247h154l138 -153h4l139 153h154l-216 -247h-157zM427 1338z" />
    <glyph glyph-name="ccaron" unicode="&#x10d;" horiz-adv-x="898" 
d="M558 975q69 0 132 -14.5t108 -40.5v-129q-63 24 -116 36t-108 12q-58 0 -115 -19t-102 -62.5t-72.5 -115t-27.5 -177.5q0 -77 20.5 -142t61 -112.5t101.5 -74t141 -26.5q58 0 117 12.5t115 35.5v-129q-17 -10 -44.5 -20t-60.5 -17.5t-70 -12t-74 -4.5q-96 0 -181.5 29
t-149.5 89t-101 152t-37 218q0 94 19.5 169t53.5 132t79.5 97t97 65.5t106.5 37t107 11.5zM466 1124l-210 349h140l147 -246h4l146 246h140l-210 -349h-157zM194 950z" />
    <glyph glyph-name="Dcaron" unicode="&#x10e;" horiz-adv-x="1374" 
d="M1254 675q0 -117 -29 -220t-87.5 -185.5t-146 -142.5t-204.5 -93q-67 -19 -145 -26.5t-169 -7.5h-303v1338h306q91 0 169 -7.5t145 -26.5q117 -33 204.5 -92t145 -139.5t86 -181t28.5 -216.5zM1082 675q0 193 -84 313t-241 170q-60 19 -134 26t-167 7h-123v-1044h123
q93 0 167 7t134 26q157 50 241 175t84 320zM595 1410l-216 247h154l138 -153h4l139 153h154l-216 -247h-157zM324 1338z" />
    <glyph glyph-name="dcaron" unicode="&#x10f;" horiz-adv-x="1097" 
d="M257 465q0 -82 18.5 -148.5t53.5 -113t86 -71.5t117 -25q49 0 89 13t71.5 33t54 42.5t35.5 41.5v497q-48 49 -111 78.5t-136 29.5q-44 0 -92.5 -16.5t-90 -59.5t-68.5 -115.5t-27 -185.5zM95 463q0 99 19.5 175.5t51.5 133.5t75 95.5t89 62.5t93.5 34.5t89.5 10.5
q87 0 151 -29t115 -85h3v587h155v-1448h-117l-32 106h-4q-18 -23 -42 -46.5t-56.5 -42.5t-75 -30.5t-98.5 -11.5q-78 0 -153 26.5t-133.5 85t-94.5 151t-36 225.5zM1116 1245q0 39 -23.5 56.5t-60.5 17.5v129q16 1 31 1q90 0 144.5 -43t54.5 -123q0 -51 -19 -100t-60 -103
h-143q32 46 54 87t22 78z" />
    <glyph glyph-name="Dcroat" unicode="&#x110;" horiz-adv-x="1404" 
d="M60 759h140v579h306q91 0 169 -7.5t145 -26.5q117 -33 204.5 -92t145 -139.5t86 -181t28.5 -216.5q0 -117 -29 -220t-87.5 -185.5t-146 -142.5t-204.5 -93q-67 -19 -145 -26.5t-169 -7.5h-303v612h-140v147zM1112 675q0 193 -84 313t-241 170q-60 19 -134 26t-167 7h-123
v-432h344v-147h-344v-465h123q93 0 167 7t134 26q157 50 241 175t84 320z" />
    <glyph glyph-name="dcroat" unicode="&#x111;" horiz-adv-x="1097" 
d="M95 463q0 99 19.5 175.5t52 133.5t74.5 95.5t88.5 62.5t94 34.5t89.5 10.5q87 0 151 -29t115 -85h3v291h-289v133h289v163h155v-163h160v-133h-160v-1152h-117l-32 106h-4q-18 -24 -42 -47t-56.5 -42t-75 -30.5t-99.5 -11.5q-77 0 -152 26.5t-133.5 85t-94.5 151
t-36 225.5zM257 465q0 -82 18.5 -148.5t53.5 -113t86 -71.5t117 -25q47 0 88 13t72.5 33.5t53.5 42.5t36 41v497q-48 49 -111 78.5t-135 29.5q-44 0 -93 -17t-90.5 -59.5t-68.5 -115t-27 -185.5z" />
    <glyph glyph-name="Emacron" unicode="&#x112;" horiz-adv-x="1129" 
d="M333 147h686v-147h-849v1338h812v-147h-649v-432h577v-147h-577v-465zM309 1581h540v-133h-540v133zM229 1338z" />
    <glyph glyph-name="emacron" unicode="&#x113;" horiz-adv-x="1019" 
d="M250 1300h540v-129h-540v129zM170 950zM522 842q-53 0 -98.5 -21t-79.5 -57t-55 -84.5t-26 -103.5h480q0 56 -14.5 104.5t-42.5 84.5t-69 56.5t-95 20.5zM607 110q77 0 140.5 12.5t126.5 35.5v-129q-51 -25 -126 -39.5t-161 -14.5q-102 0 -191.5 26t-156.5 84
t-105.5 151.5t-38.5 225.5q0 130 36 225.5t96 159.5t138 96t163 32q80 0 149.5 -26.5t120.5 -83.5t80.5 -147t29.5 -216v-20.5t-1 -38.5h-652q0 -91 27.5 -154.5t75 -103t111.5 -57.5t138 -18z" />
    <glyph glyph-name="Ebreve" unicode="&#x114;" horiz-adv-x="1129" 
d="M333 147h686v-147h-849v1338h812v-147h-649v-432h577v-147h-577v-465zM575 1530q28 0 56.5 7.5t52.5 24.5t41 43.5t23 64.5h133q-7 -64 -33 -112.5t-66.5 -81.5t-93.5 -50t-113 -17t-113 17t-93.5 50t-66.5 81.5t-33 112.5h133q6 -38 23 -64.5t41 -43.5t52.5 -24.5
t56.5 -7.5zM228 1338z" />
    <glyph glyph-name="ebreve" unicode="&#x115;" horiz-adv-x="1019" 
d="M517 1257q74 0 117.5 42t57.5 133h131q-4 -64 -25.5 -118t-60 -93.5t-94 -62t-126.5 -22.5t-126.5 22.5t-94 62t-60 93.5t-25.5 118h131q14 -91 57.5 -133t117.5 -42zM167 950zM522 842q-53 0 -98.5 -21t-79.5 -57t-55 -84.5t-26 -103.5h480q0 56 -14.5 104.5t-42.5 84.5
t-69 56.5t-95 20.5zM607 110q77 0 140.5 12.5t126.5 35.5v-129q-51 -25 -126 -39.5t-161 -14.5q-102 0 -191.5 26t-156.5 84t-105.5 151.5t-38.5 225.5q0 130 36 225.5t96 159.5t138 96t163 32q80 0 149.5 -26.5t120.5 -83.5t80.5 -147t29.5 -216v-20.5t-1 -38.5h-652
q0 -91 27.5 -154.5t75 -103t111.5 -57.5t138 -18z" />
    <glyph glyph-name="Edotaccent" unicode="&#x116;" horiz-adv-x="1129" 
d="M333 147h686v-147h-849v1338h812v-147h-649v-432h577v-147h-577v-465zM500 1448v173h163v-173h-163zM232 1338z" />
    <glyph glyph-name="edotaccent" unicode="&#x117;" horiz-adv-x="1019" 
d="M438 1171v173h163v-173h-163zM170 950zM522 842q-53 0 -98.5 -21t-79.5 -57t-55 -84.5t-26 -103.5h480q0 56 -14.5 104.5t-42.5 84.5t-69 56.5t-95 20.5zM607 110q77 0 140.5 12.5t126.5 35.5v-129q-51 -25 -126 -39.5t-161 -14.5q-102 0 -191.5 26t-156.5 84
t-105.5 151.5t-38.5 225.5q0 130 36 225.5t96 159.5t138 96t163 32q80 0 149.5 -26.5t120.5 -83.5t80.5 -147t29.5 -216v-20.5t-1 -38.5h-652q0 -91 27.5 -154.5t75 -103t111.5 -57.5t138 -18z" />
    <glyph glyph-name="Eogonek" unicode="&#x118;" horiz-adv-x="1129" 
d="M654 -313q0 50 18 94.5t48 83t67.5 71.5t76.5 60v4h-694v1338h812v-147h-649v-432h577v-147h-577v-465h686v-147q-37 -27 -76 -59.5t-71.5 -68.5t-53.5 -73t-21 -72q0 -82 91 -82q30 0 62 5.5t69 17.5v-128q-29 -13 -70 -21.5t-90 -8.5q-98 0 -151.5 48t-53.5 129z" />
    <glyph glyph-name="eogonek" unicode="&#x119;" horiz-adv-x="1019" 
d="M667 -19q-20 -3 -43 -4.5t-37 -1.5q-102 0 -191.5 26t-156.5 84t-105.5 151.5t-38.5 227.5q0 128 36 223.5t96 159.5t138 96t163 32t157.5 -30t123.5 -94t75.5 -153.5t24.5 -193.5q0 -26 -2 -61h-652q0 -91 27.5 -154.5t75 -103t111.5 -57.5t138 -18q77 0 140.5 12.5
t126.5 35.5v-123q-24 -16 -52.5 -38t-57 -47.5t-55 -54t-47 -57.5t-32.5 -58t-12 -56q0 -38 23 -58.5t71 -20.5q28 0 59 5.5t68 17.5v-128q-29 -13 -68.5 -21.5t-88.5 -8.5q-97 0 -152 44.5t-55 130.5q0 45 16 86t42.5 77.5t61 68.5t72.5 60v4zM522 842q-53 0 -98.5 -21
t-79.5 -57t-55 -84.5t-26 -103.5h480q0 56 -14.5 104.5t-42.5 84.5t-69 56.5t-95 20.5z" />
    <glyph glyph-name="Ecaron" unicode="&#x11a;" horiz-adv-x="1129" 
d="M333 147h686v-147h-849v1338h812v-147h-649v-432h577v-147h-577v-465zM500 1410l-216 247h154l138 -153h4l139 153h154l-216 -247h-157zM229 1338z" />
    <glyph glyph-name="ecaron" unicode="&#x11b;" horiz-adv-x="1019" 
d="M448 1124l-210 349h140l147 -246h4l146 246h140l-210 -349h-157zM176 950zM522 842q-53 0 -98.5 -21t-79.5 -57t-55 -84.5t-26 -103.5h480q0 56 -14.5 104.5t-42.5 84.5t-69 56.5t-95 20.5zM607 110q77 0 140.5 12.5t126.5 35.5v-129q-51 -25 -126 -39.5t-161 -14.5
q-102 0 -191.5 26t-156.5 84t-105.5 151.5t-38.5 225.5q0 130 36 225.5t96 159.5t138 96t163 32q80 0 149.5 -26.5t120.5 -83.5t80.5 -147t29.5 -216v-20.5t-1 -38.5h-652q0 -91 27.5 -154.5t75 -103t111.5 -57.5t138 -18z" />
    <glyph glyph-name="Gcircumflex" unicode="&#x11c;" horiz-adv-x="1368" 
d="M1045 541h-305v147h468v-647q-21 -11 -61.5 -22.5t-92.5 -21.5t-111.5 -16t-117.5 -6q-172 0 -303.5 47t-220.5 133t-135 209t-46 274q0 164 53.5 298t151 229t233 146.5t298.5 51.5q44 0 88 -3.5t84 -10t74 -15.5t57 -19v-144q-60 20 -138 33.5t-156 13.5
q-114 0 -217.5 -34.5t-182.5 -104.5t-126 -175.5t-47 -247.5q0 -139 38.5 -240t109 -167t171 -97.5t223.5 -31.5q57 0 112.5 6t98.5 17v398zM878 1656l216 -247h-158l-137 151h-4l-136 -151h-158l216 247h161zM448 1338z" />
    <glyph glyph-name="gcircumflex" unicode="&#x11d;" horiz-adv-x="1087" 
d="M621 1473l210 -349h-140l-147 246h-4l-146 -246h-140l210 349h157zM193 950zM257 469q0 -112 27 -183t68.5 -110.5t90.5 -54t93 -14.5q72 0 135 29t111 79v497q-13 18 -36 41t-53.5 42.5t-69.5 33t-85 13.5q-69 0 -121.5 -27.5t-88 -76.5t-53.5 -117.5t-18 -151.5z
M518 975q62 -1 108 -16t79 -37.5t52.5 -44.5t26.5 -35h4l32 108h117v-1006q0 -110 -36 -191.5t-101 -135.5t-156.5 -80.5t-202.5 -26.5q-94 0 -168 16.5t-116 39.5v131q34 -14 66 -23.5t66 -16t69.5 -9.5t78.5 -3q167 0 256 78t89 238v127h-3q-51 -56 -118.5 -84.5
t-154.5 -28.5q-40 0 -86 9t-92 30.5t-88 57t-74 89t-51.5 126.5t-19.5 169q0 133 36 230.5t95 161.5t135 95.5t157 31.5z" />
    <glyph glyph-name="Gbreve" unicode="&#x11e;" horiz-adv-x="1368" 
d="M1045 541h-305v147h468v-647q-21 -11 -61.5 -22.5t-92.5 -21.5t-111.5 -16t-117.5 -6q-172 0 -303.5 47t-220.5 133t-135 209t-46 274q0 164 53.5 298t151 229t233 146.5t298.5 51.5q44 0 88 -3.5t84 -10t74 -15.5t57 -19v-144q-60 20 -138 33.5t-156 13.5
q-114 0 -217.5 -34.5t-182.5 -104.5t-126 -175.5t-47 -247.5q0 -139 38.5 -240t109 -167t171 -97.5t223.5 -31.5q57 0 112.5 6t98.5 17v398zM738 1530q28 0 56.5 7.5t52.5 24.5t41 43.5t23 64.5h133q-7 -64 -33 -112.5t-66.5 -81.5t-93.5 -50t-113 -17t-113 17t-93.5 50
t-66.5 81.5t-33 112.5h133q6 -38 23 -64.5t41 -43.5t52.5 -24.5t56.5 -7.5zM391 1338z" />
    <glyph glyph-name="gbreve" unicode="&#x11f;" horiz-adv-x="1087" 
d="M541 1257q74 0 117.5 42t57.5 133h131q-4 -64 -25.5 -118t-60 -93.5t-94 -62t-126.5 -22.5t-126.5 22.5t-94 62t-60 93.5t-25.5 118h131q14 -91 57.5 -133t117.5 -42zM191 950zM257 469q0 -112 27 -183t68.5 -110.5t90.5 -54t93 -14.5q72 0 135 29t111 79v497
q-13 18 -36 41t-53.5 42.5t-69.5 33t-85 13.5q-69 0 -121.5 -27.5t-88 -76.5t-53.5 -117.5t-18 -151.5zM518 975q62 -1 108 -16t79 -37.5t52.5 -44.5t26.5 -35h4l32 108h117v-1006q0 -110 -36 -191.5t-101 -135.5t-156.5 -80.5t-202.5 -26.5q-94 0 -168 16.5t-116 39.5v131
q34 -14 66 -23.5t66 -16t69.5 -9.5t78.5 -3q167 0 256 78t89 238v127h-3q-51 -56 -118.5 -84.5t-154.5 -28.5q-40 0 -86 9t-92 30.5t-88 57t-74 89t-51.5 126.5t-19.5 169q0 133 36 230.5t95 161.5t135 95.5t157 31.5z" />
    <glyph glyph-name="Gdotaccent" unicode="&#x120;" horiz-adv-x="1368" 
d="M1045 541h-305v147h468v-647q-21 -11 -61.5 -22.5t-92.5 -21.5t-111.5 -16t-117.5 -6q-172 0 -303.5 47t-220.5 133t-135 209t-46 274q0 164 53.5 298t151 229t233 146.5t298.5 51.5q44 0 88 -3.5t84 -10t74 -15.5t57 -19v-144q-60 20 -138 33.5t-156 13.5
q-114 0 -217.5 -34.5t-182.5 -104.5t-126 -175.5t-47 -247.5q0 -139 38.5 -240t109 -167t171 -97.5t223.5 -31.5q57 0 112.5 6t98.5 17v398zM693 1448v173h163v-173h-163zM425 1338z" />
    <glyph glyph-name="gdotaccent" unicode="&#x121;" horiz-adv-x="1087" 
d="M466 1171v173h163v-173h-163zM198 950zM257 469q0 -112 27 -183t68.5 -110.5t90.5 -54t93 -14.5q72 0 135 29t111 79v497q-13 18 -36 41t-53.5 42.5t-69.5 33t-85 13.5q-69 0 -121.5 -27.5t-88 -76.5t-53.5 -117.5t-18 -151.5zM518 975q62 -1 108 -16t79 -37.5
t52.5 -44.5t26.5 -35h4l32 108h117v-1006q0 -110 -36 -191.5t-101 -135.5t-156.5 -80.5t-202.5 -26.5q-94 0 -168 16.5t-116 39.5v131q34 -14 66 -23.5t66 -16t69.5 -9.5t78.5 -3q167 0 256 78t89 238v127h-3q-51 -56 -118.5 -84.5t-154.5 -28.5q-40 0 -86 9t-92 30.5
t-88 57t-74 89t-51.5 126.5t-19.5 169q0 133 36 230.5t95 161.5t135 95.5t157 31.5z" />
    <glyph glyph-name="uni0122" unicode="&#x122;" horiz-adv-x="1368" 
d="M1045 541h-305v147h468v-647q-21 -11 -61.5 -22.5t-92.5 -21.5t-111.5 -16t-117.5 -6q-172 0 -303.5 47t-220.5 133t-135 209t-46 274q0 164 53.5 298t151 229t233 146.5t298.5 51.5q44 0 88 -3.5t84 -10t74 -15.5t57 -19v-144q-60 20 -138 33.5t-156 13.5
q-114 0 -217.5 -34.5t-182.5 -104.5t-126 -175.5t-47 -247.5q0 -139 38.5 -240t109 -167t171 -97.5t223.5 -31.5q57 0 112.5 6t98.5 17v398zM721 -325q0 39 -23.5 56.5t-60.5 17.5v129q15 1 28 1q93 0 147.5 -42.5t54.5 -123.5q0 -50 -19 -99.5t-60 -103.5h-143q34 47 55 89
t21 76z" />
    <glyph glyph-name="uni0123" unicode="&#x123;" horiz-adv-x="1087" 
d="M532 1308q0 -39 23.5 -56.5t60.5 -17.5v-129q-14 -1 -28 -1q-92 0 -147 42t-55 124q0 51 19 100t60 103h143q-32 -46 -54 -87t-22 -78zM1054 950zM257 469q0 -112 27 -183t68.5 -110.5t90.5 -54t93 -14.5q72 0 135 29t111 79v497q-13 18 -36 41t-53.5 42.5t-69.5 33
t-85 13.5q-69 0 -121.5 -27.5t-88 -76.5t-53.5 -117.5t-18 -151.5zM518 975q62 -1 108 -16t79 -37.5t52.5 -44.5t26.5 -35h4l32 108h117v-1006q0 -110 -36 -191.5t-101 -135.5t-156.5 -80.5t-202.5 -26.5q-94 0 -168 16.5t-116 39.5v131q34 -14 66 -23.5t66 -16t69.5 -9.5
t78.5 -3q167 0 256 78t89 238v127h-3q-51 -56 -118.5 -84.5t-154.5 -28.5q-40 0 -86 9t-92 30.5t-88 57t-74 89t-51.5 126.5t-19.5 169q0 133 36 230.5t95 161.5t135 95.5t157 31.5z" />
    <glyph glyph-name="Hcircumflex" unicode="&#x124;" horiz-adv-x="1367" 
d="M333 759h701v579h163v-1338h-163v612h-701v-612h-163v1338h163v-579zM766 1656l216 -247h-158l-137 151h-4l-136 -151h-158l216 247h161zM336 1338z" />
    <glyph glyph-name="hcircumflex" unicode="&#x125;" horiz-adv-x="1090" 
d="M315 820h3q26 33 58 61.5t71 49t84 32.5t97 12q54 0 108 -14.5t100 -51.5t75 -103t29 -170v-636h-155v611q0 115 -43.5 173t-142.5 58q-82 0 -156 -44.5t-128 -122.5v-675h-155v1448h155v-628zM328 1767l216 -247h-158l-137 151h-4l-136 -151h-158l216 247h161z" />
    <glyph glyph-name="Hbar" unicode="&#x126;" horiz-adv-x="1367" 
d="M1337 966h-140v-966h-163v612h-701v-612h-163v966h-140v147h140v225h163v-225h701v225h163v-225h140v-147zM1034 759v207h-701v-207h701z" />
    <glyph glyph-name="hbar" unicode="&#x127;" horiz-adv-x="1090" 
d="M315 1152v-332h3q26 33 58 61.5t71 49t84 32.5t97 12q54 0 108 -14.5t100 -51.5t75 -103t29 -170v-636h-155v611q0 115 -43.5 173t-142.5 58q-82 0 -156 -44.5t-128 -122.5v-675h-155v1152h-160v133h160v163h155v-163h289v-133h-289z" />
    <glyph glyph-name="Itilde" unicode="&#x128;" horiz-adv-x="503" 
d="M170 0v1338h163v-1338h-163zM117 1641q41 0 80 -14.5t72 -32t62.5 -32t55.5 -14.5q34 0 47.5 23t13.5 62h125v-22q0 -33 -7 -66.5t-27.5 -62t-54 -45t-81.5 -16.5q-41 0 -80 14.5t-72 32t-62.5 32t-55.5 14.5q-34 0 -47.5 -23t-13.5 -62h-125v14q-1 35 6.5 72t28 65.5
t54 44.5t81.5 16zM-90 1338z" />
    <glyph glyph-name="itilde" unicode="&#x129;" horiz-adv-x="475" 
d="M160 0v950h155v-950h-155zM-66 1178v23q0 34 7.5 67.5t27 61t52.5 44t81 16.5q41 0 80 -14.5t72 -32.5t64.5 -33t55.5 -15q31 0 45.5 22t14.5 65h122v-23q0 -34 -7.5 -67.5t-27 -61t-52.5 -44t-81 -16.5q-41 0 -80 14.5t-72 32.5t-64.5 33t-55.5 15q-31 0 -45.5 -22
t-14.5 -65h-122zM-105 950z" />
    <glyph glyph-name="Imacron" unicode="&#x12a;" horiz-adv-x="503" 
d="M170 0v1338h163v-1338h-163zM-13 1581h540v-133h-540v133zM-93 1338z" />
    <glyph glyph-name="imacron" unicode="&#x12b;" horiz-adv-x="475" 
d="M160 0v950h155v-950h-155zM-26 1300h540v-129h-540v129zM-106 950z" />
    <glyph glyph-name="Ibreve" unicode="&#x12c;" horiz-adv-x="503" 
d="M170 0v1338h163v-1338h-163zM257 1530q28 0 56.5 7.5t52.5 24.5t41 43.5t23 64.5h133q-7 -64 -33 -112.5t-66.5 -81.5t-93.5 -50t-113 -17t-113 17t-93.5 50t-66.5 81.5t-33 112.5h133q6 -38 23 -64.5t41 -43.5t52.5 -24.5t56.5 -7.5zM-90 1338z" />
    <glyph glyph-name="ibreve" unicode="&#x12d;" horiz-adv-x="475" 
d="M160 0v950h155v-950h-155zM241 1257q74 0 117.5 42t57.5 133h131q-4 -64 -25.5 -118t-60 -93.5t-94 -62t-126.5 -22.5t-126.5 22.5t-94 62t-60 93.5t-25.5 118h131q14 -91 57.5 -133t117.5 -42zM-109 950z" />
    <glyph glyph-name="Iogonek" unicode="&#x12e;" horiz-adv-x="503" 
d="M170 1338h163v-1338q-30 -27 -61 -56.5t-55.5 -62.5t-40.5 -69t-16 -75q0 -40 23.5 -65.5t74.5 -26.5q26 0 56 5.5t67 17.5v-128q-29 -13 -69.5 -21.5t-81.5 -8.5q-53 0 -93 15t-66.5 42t-40 63t-13.5 78t11 80t31.5 74t48.5 70t62 68v1338z" />
    <glyph glyph-name="iogonek" unicode="&#x12f;" horiz-adv-x="475" 
d="M315 0q-33 -30 -64 -60.5t-55 -62t-38.5 -66.5t-14.5 -74q0 -40 22.5 -66t75.5 -26q26 0 56 5.5t67 17.5v-128q-29 -13 -69.5 -21.5t-81.5 -8.5q-53 0 -93 15t-66.5 42t-40 63t-13.5 78t12 80.5t33.5 75t51 71t63.5 68.5v947h155v-950zM156 1171v171h163v-171h-163z" />
    <glyph glyph-name="Idotaccent" unicode="&#x130;" horiz-adv-x="503" 
d="M170 0v1338h163v-1338h-163zM178 1448v173h163v-173h-163zM-90 1338z" />
    <glyph glyph-name="dotlessi" unicode="&#x131;" horiz-adv-x="475" 
d="M160 0v950h155v-950h-155z" />
    <glyph glyph-name="IJ" unicode="&#x132;" horiz-adv-x="1195" 
d="M170 0v1338h163v-1338h-163zM867 1338h163v-1031q0 -83 -25 -145t-71.5 -103.5t-111.5 -62.5t-146 -21q-69 1 -116.5 11.5t-71.5 21.5v144q37 -15 80.5 -23.5t93.5 -8.5q45 0 83 10t65 34t42 64t15 99v1011z" />
    <glyph glyph-name="ij" unicode="&#x133;" horiz-adv-x="969" 
d="M160 0v950h155v-950h-155zM156 1171v173h163v-173h-163zM809 -212q0 -131 -75 -204.5t-238 -73.5q-43 0 -82.5 6.5t-58.5 13.5v132q30 -8 60 -12.5t62 -4.5q95 0 136 39t41 122v1144h155v-1162zM650 1171v173h163v-173h-163z" />
    <glyph glyph-name="Jcircumflex" unicode="&#x134;" horiz-adv-x="767" 
d="M439 1338h163v-1031q0 -83 -25 -145t-71.5 -103.5t-111.5 -62.5t-146 -21q-69 1 -116.5 11.5t-71.5 21.5v144q37 -15 80.5 -23.5t93.5 -8.5q45 0 83 10t65 34t42 64t15 99v1011zM596 1656l216 -247h-158l-137 151h-4l-136 -151h-158l216 247h161zM166 1338z" />
    <glyph glyph-name="jcircumflex" unicode="&#x135;" horiz-adv-x="494" 
d="M334 -212q0 -131 -75 -204.5t-238 -73.5q-43 0 -82.5 6.5t-58.5 13.5v132q30 -7 59.5 -12t62.5 -5q95 0 136 39t41 122v1144h155v-1162zM333 1473l210 -349h-140l-147 246h-4l-146 -246h-140l210 349h157z" />
    <glyph glyph-name="uni0136" unicode="&#x136;" horiz-adv-x="1239" 
d="M170 0v1338h163v-661h2l615 661h201l-624 -666l672 -672h-212l-652 655h-2v-655h-163zM582 -325q0 39 -23.5 56.5t-60.5 17.5v129q15 1 28 1q93 0 147.5 -42.5t54.5 -123.5q0 -50 -19 -99.5t-60 -103.5h-143q34 47 55 89t21 76z" />
    <glyph glyph-name="uni0137" unicode="&#x137;" horiz-adv-x="997" 
d="M765 950h202l-464 -437l463 -513h-193l-456 506h-2v-506h-155v1448h155v-922h2zM477 -325q0 39 -23.5 56.5t-60.5 17.5v129q15 1 28 1q93 0 147.5 -42.5t54.5 -123.5q0 -50 -19 -99.5t-60 -103.5h-143q34 47 55 89t21 76z" />
    <glyph glyph-name="kgreenlandic" unicode="&#x138;" horiz-adv-x="987" 
d="M755 950h202l-464 -468l463 -482h-193l-456 476h-2v-476h-155v950h155v-454h2z" />
    <glyph glyph-name="Lacute" unicode="&#x139;" horiz-adv-x="1066" 
d="M333 1338v-1191h653v-147h-816v1338h163zM496 1656l-181 -247h-139l146 247h174zM26 1338z" />
    <glyph glyph-name="lacute" unicode="&#x13a;" horiz-adv-x="475" 
d="M160 0v1448h155v-1448h-155zM484 1766l-181 -247h-139l146 247h174zM14 1448z" />
    <glyph glyph-name="uni013B" unicode="&#x13b;" horiz-adv-x="1066" 
d="M333 1338v-1191h653v-147h-816v1338h163zM546 -325q0 39 -23.5 56.5t-60.5 17.5v129q15 1 28 1q93 0 147.5 -42.5t54.5 -123.5q0 -50 -19 -99.5t-60 -103.5h-143q34 47 55 89t21 76z" />
    <glyph glyph-name="uni013C" unicode="&#x13c;" horiz-adv-x="475" 
d="M160 0v1448h155v-1448h-155zM227 -325q0 39 -23.5 56.5t-60.5 17.5v129q15 1 28 1q93 0 147.5 -42.5t54.5 -123.5q0 -50 -19 -99.5t-60 -103.5h-143q34 47 55 89t21 76z" />
    <glyph glyph-name="Lcaron" unicode="&#x13d;" horiz-adv-x="1066" 
d="M668 1143q0 39 -23.5 56.5t-60.5 17.5v129q16 1 31 1q90 0 144.5 -43t54.5 -123q0 -51 -19 -100t-60 -103h-143q32 46 54 87t22 78zM333 1338v-1191h653v-147h-816v1338h163z" />
    <glyph glyph-name="lcaron" unicode="&#x13e;" horiz-adv-x="475" 
d="M160 0v1448h155v-1448h-155zM499 1245q0 39 -23.5 56.5t-60.5 17.5v129q16 1 31 1q90 0 144.5 -43t54.5 -123q0 -51 -19 -100t-60 -103h-143q32 46 54 87t22 78z" />
    <glyph glyph-name="Ldot" unicode="&#x13f;" horiz-adv-x="1066" 
d="M333 1338v-1191h653v-147h-816v1338h163zM570 624v173h163v-173h-163z" />
    <glyph glyph-name="ldot" unicode="&#x140;" horiz-adv-x="638" 
d="M160 0v1448h155v-1448h-155zM475 548v173h163v-173h-163z" />
    <glyph glyph-name="Lslash" unicode="&#x141;" horiz-adv-x="1066" 
d="M709 758l-376 -151v-460h653v-147h-816v543l-145 -58v151l145 58v644h163v-580l376 151v-151z" />
    <glyph glyph-name="lslash" unicode="&#x142;" horiz-adv-x="475" 
d="M160 0v618l-169 -108v158l169 108v672h155v-580l188 121v-158l-188 -121v-710h-155z" />
    <glyph glyph-name="Nacute" unicode="&#x143;" horiz-adv-x="1426" 
d="M857 592q123 -177 243 -364h6q-13 195 -13 398v712h163v-1338h-162l-525 746q-136 195 -243 364h-6q13 -183 13 -427v-683h-163v1338h162zM961 1656l-181 -247h-139l146 247h174zM491 1338z" />
    <glyph glyph-name="nacute" unicode="&#x144;" horiz-adv-x="1080" 
d="M300 818h3q26 33 57.5 61.5t70.5 50t85.5 33.5t101.5 12q65 0 122 -18t99 -58t66.5 -104.5t24.5 -158.5v-636h-155v611q0 123 -47.5 177t-138.5 54q-80 0 -155 -44.5t-129 -122.5v-675h-155v950h120zM798 1473l-161 -349h-130l123 349h168zM292 950z" />
    <glyph glyph-name="uni0145" unicode="&#x145;" horiz-adv-x="1426" 
d="M857 592q123 -177 243 -364h6q-13 195 -13 398v712h163v-1338h-162l-525 746q-136 195 -243 364h-6q13 -183 13 -427v-683h-163v1338h162zM692 -325q0 39 -23.5 56.5t-60.5 17.5v129q15 1 28 1q93 0 147.5 -42.5t54.5 -123.5q0 -50 -19 -99.5t-60 -103.5h-143
q34 47 55 89t21 76z" />
    <glyph glyph-name="uni0146" unicode="&#x146;" horiz-adv-x="1080" 
d="M300 818h3q26 33 57.5 61.5t70.5 50t85.5 33.5t101.5 12q65 0 122 -18t99 -58t66.5 -104.5t24.5 -158.5v-636h-155v611q0 123 -47.5 177t-138.5 54q-80 0 -155 -44.5t-129 -122.5v-675h-155v950h120zM498 -325q0 39 -23.5 56.5t-60.5 17.5v129q15 1 28 1
q93 0 147.5 -42.5t54.5 -123.5q0 -50 -19 -99.5t-60 -103.5h-143q34 47 55 89t21 76z" />
    <glyph glyph-name="Ncaron" unicode="&#x147;" horiz-adv-x="1426" 
d="M857 592q123 -177 243 -364h6q-13 195 -13 398v712h163v-1338h-162l-525 746q-136 195 -243 364h-6q13 -183 13 -427v-683h-163v1338h162zM639 1410l-216 247h154l138 -153h4l139 153h154l-216 -247h-157zM368 1338z" />
    <glyph glyph-name="ncaron" unicode="&#x148;" horiz-adv-x="1080" 
d="M300 818h3q26 33 57.5 61.5t70.5 50t85.5 33.5t101.5 12q65 0 122 -18t99 -58t66.5 -104.5t24.5 -158.5v-636h-155v611q0 123 -47.5 177t-138.5 54q-80 0 -155 -44.5t-129 -122.5v-675h-155v950h120zM480 1124l-210 349h140l147 -246h4l146 246h140l-210 -349h-157z
M208 950z" />
    <glyph glyph-name="napostrophe" unicode="&#x149;" horiz-adv-x="1080" 
d="M300 818h3q26 33 57.5 61.5t70.5 50t85.5 33.5t101.5 12q65 0 122 -18t99 -58t66.5 -104.5t24.5 -158.5v-636h-155v611q0 123 -47.5 177t-138.5 54q-80 0 -155 -44.5t-129 -122.5v-675h-155v950h120zM42 1245q0 39 -23.5 56.5t-60.5 17.5v129q16 1 31 1q90 0 144.5 -43
t54.5 -123q0 -51 -19 -100t-60 -103h-143q32 46 54 87t22 78z" />
    <glyph glyph-name="Eng" unicode="&#x14a;" horiz-adv-x="1426" 
d="M1256 -130q0 -66 -18.5 -118.5t-56.5 -89t-97.5 -56t-140.5 -19.5q-24 0 -47 2t-43 6v138q17 -3 34.5 -5t36.5 -2q95 0 136 37.5t41 120.5v108l-532 754q-136 195 -243 364h-6q13 -183 13 -427v-683h-163v1338h162l525 -746q123 -177 243 -364h6q-13 195 -13 398v712h163
v-1468z" />
    <glyph glyph-name="eng" unicode="&#x14b;" horiz-adv-x="1080" 
d="M617 -413q-24 0 -47 2t-43 6v134q17 -3 34.5 -5t36.5 -2q95 0 136 37.5t41 120.5v731q0 123 -47.5 177t-138.5 54q-80 0 -155 -44.5t-129 -122.5v-675h-155v950h120l30 -132h3q26 33 57.5 61.5t70.5 50t85.5 33.5t101.5 12q65 0 122 -18t99 -58t66.5 -104.5t24.5 -158.5
v-766q0 -66 -18.5 -118.5t-56.5 -89t-97.5 -56t-140.5 -19.5z" />
    <glyph glyph-name="Omacron" unicode="&#x14c;" horiz-adv-x="1496" 
d="M1204 668q0 135 -35 238t-96.5 172t-145 104.5t-179.5 35.5t-179.5 -35.5t-145 -104.5t-96.5 -172t-35 -238t35.5 -237.5t97 -171.5t145 -104t180.5 -35q96 0 178.5 35t144 104t96.5 171.5t35 237.5zM1376 668q0 -152 -44 -279t-126 -219t-197.5 -143.5t-258.5 -51.5
q-148 0 -265 51.5t-198 143.5t-124 219t-43 279q0 153 44.5 280.5t126 219.5t197.5 143.5t260 51.5q147 0 263.5 -51.5t197.5 -143.5t124 -219.5t43 -280.5zM478 1581h540v-133h-540v133zM398 1338z" />
    <glyph glyph-name="omacron" unicode="&#x14d;" horiz-adv-x="1092" 
d="M835 474q0 88 -21.5 156.5t-60 116t-91.5 72t-116 24.5t-116 -24.5t-91.5 -72t-60 -116t-21.5 -156.5q0 -87 21.5 -155.5t60.5 -115.5t92 -71.5t116 -24.5t115.5 24.5t91 71.5t60 115.5t21.5 155.5zM997 474q0 -112 -32 -204t-90.5 -157.5t-141.5 -101.5t-186 -36
q-106 0 -189.5 36t-142 101.5t-89.5 157.5t-31 204q0 113 32 205t90.5 158t142 102t186.5 36q105 0 189 -36t142 -102t89 -158t31 -205zM274 1300h540v-129h-540v129zM194 950z" />
    <glyph glyph-name="Obreve" unicode="&#x14e;" horiz-adv-x="1496" 
d="M1204 668q0 135 -35 238t-96.5 172t-145 104.5t-179.5 35.5t-179.5 -35.5t-145 -104.5t-96.5 -172t-35 -238t35.5 -237.5t97 -171.5t145 -104t180.5 -35q96 0 178.5 35t144 104t96.5 171.5t35 237.5zM1376 668q0 -152 -44 -279t-126 -219t-197.5 -143.5t-258.5 -51.5
q-148 0 -265 51.5t-198 143.5t-124 219t-43 279q0 153 44.5 280.5t126 219.5t197.5 143.5t260 51.5q147 0 263.5 -51.5t197.5 -143.5t124 -219.5t43 -280.5zM750 1530q28 0 56.5 7.5t52.5 24.5t41 43.5t23 64.5h133q-7 -64 -33 -112.5t-66.5 -81.5t-93.5 -50t-113 -17
t-113 17t-93.5 50t-66.5 81.5t-33 112.5h133q6 -38 23 -64.5t41 -43.5t52.5 -24.5t56.5 -7.5zM403 1338z" />
    <glyph glyph-name="obreve" unicode="&#x14f;" horiz-adv-x="1092" 
d="M835 474q0 88 -21.5 156.5t-60 116t-91.5 72t-116 24.5t-116 -24.5t-91.5 -72t-60 -116t-21.5 -156.5q0 -87 21.5 -155.5t60.5 -115.5t92 -71.5t116 -24.5t115.5 24.5t91 71.5t60 115.5t21.5 155.5zM997 474q0 -112 -32 -204t-90.5 -157.5t-141.5 -101.5t-186 -36
q-106 0 -189.5 36t-142 101.5t-89.5 157.5t-31 204q0 113 32 205t90.5 158t142 102t186.5 36q105 0 189 -36t142 -102t89 -158t31 -205zM540 1257q74 0 117.5 42t57.5 133h131q-4 -64 -25.5 -118t-60 -93.5t-94 -62t-126.5 -22.5t-126.5 22.5t-94 62t-60 93.5t-25.5 118h131
q14 -91 57.5 -133t117.5 -42zM190 950z" />
    <glyph glyph-name="Ohungarumlaut" unicode="&#x150;" horiz-adv-x="1496" 
d="M1204 668q0 135 -35 238t-96.5 172t-145 104.5t-179.5 35.5t-179.5 -35.5t-145 -104.5t-96.5 -172t-35 -238t35.5 -237.5t97 -171.5t145 -104t180.5 -35q96 0 178.5 35t144 104t96.5 171.5t35 237.5zM1376 668q0 -152 -44 -279t-126 -219t-197.5 -143.5t-258.5 -51.5
q-148 0 -265 51.5t-198 143.5t-124 219t-43 279q0 153 44.5 280.5t126 219.5t197.5 143.5t260 51.5q147 0 263.5 -51.5t197.5 -143.5t124 -219.5t43 -280.5zM838 1656l-171 -247h-139l136 247h174zM1145 1656l-191 -247h-139l156 247h174zM477 1338z" />
    <glyph glyph-name="ohungarumlaut" unicode="&#x151;" horiz-adv-x="1092" 
d="M835 474q0 88 -21.5 156.5t-60 116t-91.5 72t-116 24.5t-116 -24.5t-91.5 -72t-60 -116t-21.5 -156.5q0 -87 21.5 -155.5t60.5 -115.5t92 -71.5t116 -24.5t115.5 24.5t91 71.5t60 115.5t21.5 155.5zM997 474q0 -112 -32 -204t-90.5 -157.5t-141.5 -101.5t-186 -36
q-106 0 -189.5 36t-142 101.5t-89.5 157.5t-31 204q0 113 32 205t90.5 158t142 102t186.5 36q105 0 189 -36t142 -102t89 -158t31 -205zM621 1473l-157 -349h-129l123 349h163zM932 1473l-177 -349h-130l143 349h164zM275 950z" />
    <glyph glyph-name="OE" unicode="&#x152;" horiz-adv-x="2163" 
d="M1367 147h686v-147h-849v205h-4q-73 -107 -186.5 -168.5t-269.5 -61.5q-144 0 -259.5 51.5t-196.5 143.5t-124.5 219t-43.5 279q0 153 44.5 280.5t126 219.5t196 143.5t254.5 51.5q154 0 271 -61t188 -165h4v201h812v-147h-649v-432h577v-147h-577v-465zM1204 668
q0 135 -35 238t-96.5 172t-145 104.5t-179.5 35.5t-179.5 -35.5t-145 -104.5t-96.5 -172t-35 -238t35.5 -237.5t97 -171.5t145 -104t180.5 -35q96 0 178.5 35t144 104t96.5 171.5t35 237.5z" />
    <glyph glyph-name="oe" unicode="&#x153;" horiz-adv-x="1759" 
d="M1347 110q77 0 140.5 12.5t126.5 35.5v-129q-51 -25 -126 -39.5t-161 -14.5q-72 0 -135.5 12.5t-117 39.5t-95.5 70t-70 103h-4q-51 -104 -142.5 -164.5t-219.5 -60.5q-105 0 -188 36t-140.5 101.5t-88.5 157.5t-31 204q0 113 31.5 205t90 158t141 102t184.5 36
q133 0 225 -63t142 -169h4q54 117 147 174.5t208 57.5q84 0 157 -30t124.5 -94t75.5 -153t24 -193q0 -30 -2 -62h-652q0 -91 27.5 -154.5t75 -103t111.5 -57.5t138 -18zM835 474q0 88 -21.5 156.5t-60 116t-91.5 72t-116 24.5t-116 -24.5t-91.5 -72t-60 -116t-21.5 -156.5
q0 -87 21.5 -155.5t60.5 -115.5t92 -71.5t116 -24.5t115.5 24.5t91 71.5t60 115.5t21.5 155.5zM1262 842q-53 0 -98.5 -21t-79.5 -57t-55 -84.5t-26 -103.5h480q0 56 -14.5 104.5t-42.5 84.5t-69 56.5t-95 20.5z" />
    <glyph glyph-name="Racute" unicode="&#x154;" horiz-adv-x="1212" 
d="M333 554v-554h-163v1338h347q88 0 149.5 -6.5t112.5 -20.5q140 -38 214 -129.5t74 -228.5q0 -81 -26 -145t-73 -111t-112.5 -77t-145.5 -44v-4l437 -572h-205l-412 554h-197zM333 1191v-490h161q75 0 128 5t95 18q85 26 131 83t46 149q-1 86 -44 138.5t-119 75.5
q-36 11 -86 16t-127 5h-185zM778 1656l-181 -247h-139l146 247h174zM308 1338z" />
    <glyph glyph-name="racute" unicode="&#x155;" horiz-adv-x="686" 
d="M594 1473l-161 -349h-130l123 349h168zM88 950zM671 824h-12q-55 0 -108 -10t-99.5 -30.5t-84 -50.5t-62.5 -71v-662h-155v950h120l30 -151h3q23 37 56.5 69t75.5 56t92 37.5t105 13.5q10 0 20.5 -0.5t18.5 -1.5v-149z" />
    <glyph glyph-name="uni0156" unicode="&#x156;" horiz-adv-x="1212" 
d="M333 554v-554h-163v1338h347q88 0 149.5 -6.5t112.5 -20.5q140 -38 214 -129.5t74 -228.5q0 -81 -26 -145t-73 -111t-112.5 -77t-145.5 -44v-4l437 -572h-205l-412 554h-197zM333 1191v-490h161q75 0 128 5t95 18q85 26 131 83t46 149q-1 86 -44 138.5t-119 75.5
q-36 11 -86 16t-127 5h-185zM608 -325q0 39 -23.5 56.5t-60.5 17.5v129q15 1 28 1q93 0 147.5 -42.5t54.5 -123.5q0 -50 -19 -99.5t-60 -103.5h-143q34 47 55 89t21 76z" />
    <glyph glyph-name="uni0157" unicode="&#x157;" horiz-adv-x="686" 
d="M242 -325q0 39 -23.5 56.5t-60.5 17.5v129q15 1 28 1q93 0 147.5 -42.5t54.5 -123.5q0 -50 -19 -99.5t-60 -103.5h-143q34 47 55 89t21 76zM671 824h-12q-55 0 -108 -10t-99.5 -30.5t-84 -50.5t-62.5 -71v-662h-155v950h120l30 -151h3q23 37 56.5 69t75.5 56t92 37.5
t105 13.5q10 0 20.5 -0.5t18.5 -1.5v-149z" />
    <glyph glyph-name="Rcaron" unicode="&#x158;" horiz-adv-x="1212" 
d="M333 554v-554h-163v1338h347q88 0 149.5 -6.5t112.5 -20.5q140 -38 214 -129.5t74 -228.5q0 -81 -26 -145t-73 -111t-112.5 -77t-145.5 -44v-4l437 -572h-205l-412 554h-197zM333 1191v-490h161q75 0 128 5t95 18q85 26 131 83t46 149q-1 86 -44 138.5t-119 75.5
q-36 11 -86 16t-127 5h-185zM485 1410l-216 247h154l138 -153h4l139 153h154l-216 -247h-157zM214 1338z" />
    <glyph glyph-name="rcaron" unicode="&#x159;" horiz-adv-x="686" 
d="M313 1124l-210 349h140l147 -246h4l146 246h140l-210 -349h-157zM41 950zM671 824h-12q-55 0 -108 -10t-99.5 -30.5t-84 -50.5t-62.5 -71v-662h-155v950h120l30 -151h3q23 37 56.5 69t75.5 56t92 37.5t105 13.5q10 0 20.5 -0.5t18.5 -1.5v-149z" />
    <glyph glyph-name="Sacute" unicode="&#x15a;" horiz-adv-x="1130" 
d="M294 984q0 -59 24 -97.5t64.5 -63.5t94 -41t111.5 -30q78 -19 153.5 -42t134.5 -63.5t95.5 -105.5t36.5 -167q0 -104 -38.5 -179.5t-107 -124t-163.5 -72t-208 -23.5q-52 0 -106.5 6.5t-104 17.5t-89.5 25t-63 28v149q36 -18 81 -33t93 -25.5t97 -16.5t92 -6
q70 0 133.5 12t111.5 40t76 76.5t28 121.5q0 60 -24.5 99t-65.5 64.5t-94.5 41.5t-112.5 30q-78 18 -152.5 40.5t-133 62.5t-94 103t-35.5 161q0 102 36 175.5t98 121.5t145 71t177 23q107 0 199.5 -20.5t169.5 -53.5v-151q-83 35 -171.5 57t-189.5 23q-76 0 -132 -16.5
t-93 -47t-55 -74t-18 -96.5zM839 1656l-181 -247h-139l146 247h174zM369 1338z" />
    <glyph glyph-name="sacute" unicode="&#x15b;" horiz-adv-x="828" 
d="M639 1473l-161 -349h-130l123 349h168zM133 950zM250 697q0 -39 17 -64t45.5 -40.5t66 -25.5t77.5 -18q55 -12 104 -26.5t90.5 -43.5t67 -78.5t25.5 -128.5q0 -72 -28 -127.5t-79 -93t-122 -57t-156 -19.5q-52 0 -94.5 5.5t-75 14t-55.5 17.5t-38 17v130q60 -24 119 -38
t130 -14q56 0 101 10t77.5 29.5t50 49t17.5 68.5q0 40 -16 66t-43 43t-62.5 28t-74.5 20q-51 11 -103.5 26t-95.5 42t-69.5 73.5t-26.5 119.5q0 75 27 130t73 91t107 54t129 18q79 0 146.5 -15t122.5 -38v-132q-60 23 -121.5 37.5t-126.5 15.5q-55 0 -94 -11t-64 -30.5
t-36.5 -46t-11.5 -58.5z" />
    <glyph glyph-name="Scircumflex" unicode="&#x15c;" horiz-adv-x="1130" 
d="M294 984q0 -59 24 -97.5t64.5 -63.5t94 -41t111.5 -30q78 -19 153.5 -42t134.5 -63.5t95.5 -105.5t36.5 -167q0 -104 -38.5 -179.5t-107 -124t-163.5 -72t-208 -23.5q-52 0 -106.5 6.5t-104 17.5t-89.5 25t-63 28v149q36 -18 81 -33t93 -25.5t97 -16.5t92 -6
q70 0 133.5 12t111.5 40t76 76.5t28 121.5q0 60 -24.5 99t-65.5 64.5t-94.5 41.5t-112.5 30q-78 18 -152.5 40.5t-133 62.5t-94 103t-35.5 161q0 102 36 175.5t98 121.5t145 71t177 23q107 0 199.5 -20.5t169.5 -53.5v-151q-83 35 -171.5 57t-189.5 23q-76 0 -132 -16.5
t-93 -47t-55 -74t-18 -96.5zM653 1656l216 -247h-158l-137 151h-4l-136 -151h-158l216 247h161zM223 1338z" />
    <glyph glyph-name="scircumflex" unicode="&#x15d;" horiz-adv-x="828" 
d="M498 1473l210 -349h-140l-147 246h-4l-146 -246h-140l210 349h157zM70 950zM250 697q0 -39 17 -64t45.5 -40.5t66 -25.5t77.5 -18q55 -12 104 -26.5t90.5 -43.5t67 -78.5t25.5 -128.5q0 -72 -28 -127.5t-79 -93t-122 -57t-156 -19.5q-52 0 -94.5 5.5t-75 14t-55.5 17.5
t-38 17v130q60 -24 119 -38t130 -14q56 0 101 10t77.5 29.5t50 49t17.5 68.5q0 40 -16 66t-43 43t-62.5 28t-74.5 20q-51 11 -103.5 26t-95.5 42t-69.5 73.5t-26.5 119.5q0 75 27 130t73 91t107 54t129 18q79 0 146.5 -15t122.5 -38v-132q-60 23 -121.5 37.5t-126.5 15.5
q-55 0 -94 -11t-64 -30.5t-36.5 -46t-11.5 -58.5z" />
    <glyph glyph-name="Scedilla" unicode="&#x15e;" horiz-adv-x="1130" 
d="M440 -23q-47 3 -94 10t-89 17.5t-75.5 22.5t-53.5 25v149q36 -18 81 -33t93 -25.5t97 -16.5t92 -6q70 0 133.5 11.5t111.5 40t76 77t28 121.5q0 60 -24.5 99t-65.5 64.5t-94.5 41.5t-112.5 30q-78 18 -152.5 41t-133 62.5t-94 102.5t-35.5 161q0 102 36 175.5t98 121.5
t145 71t177 23q109 0 200.5 -20.5t168.5 -53.5v-151q-83 35 -171.5 57.5t-189.5 22.5q-76 0 -132 -16.5t-93 -47t-55 -74t-18 -96.5q0 -59 24 -97.5t64.5 -63.5t94 -41t111.5 -30q78 -19 153.5 -42t134.5 -63.5t95.5 -105.5t36.5 -167q0 -96 -32.5 -167t-91.5 -120
t-141 -75.5t-181 -33.5l-28 -104q40 -6 73.5 -18.5t57.5 -32.5t37 -48.5t13 -65.5q0 -52 -23 -89.5t-61.5 -62t-88.5 -36t-104 -11.5q-43 0 -77.5 5.5t-55.5 13.5v113q12 -4 27.5 -7t32 -5.5t32 -3.5t27.5 -1q29 0 56.5 3.5t49.5 13t35.5 25t13.5 39.5q0 21 -14 35.5
t-39.5 23.5t-62 13.5t-81.5 6.5z" />
    <glyph glyph-name="scedilla" unicode="&#x15f;" horiz-adv-x="828" 
d="M743 272q0 -63 -22 -114t-62 -87.5t-96.5 -59.5t-125.5 -31l-29 -106q40 -6 73.5 -18.5t57.5 -32.5t37 -48.5t13 -65.5q0 -52 -23 -89.5t-61.5 -62t-88.5 -36t-104 -11.5q-41 0 -76.5 5.5t-56.5 13.5v113q12 -4 27.5 -7t32.5 -5.5t32 -3.5t27 -1q29 0 56.5 3.5t49.5 13
t35.5 25t13.5 39.5q0 21 -14 35.5t-39.5 23.5t-62 13.5t-81.5 6.5l58 191q-84 5 -137 20.5t-82 32.5v130q61 -25 120.5 -38.5t128.5 -13.5q56 0 101 10t77.5 29.5t50 49t17.5 68.5q0 40 -16 66t-43 43t-62.5 28t-74.5 20q-51 11 -103.5 26t-95.5 42t-69.5 73.5t-26.5 119.5
q0 75 27 130t73 91t107 54t129 18q79 0 146.5 -15t122.5 -38v-132q-60 23 -121.5 37.5t-126.5 15.5q-55 0 -94 -11t-64 -30.5t-36.5 -46t-11.5 -58.5q0 -39 17 -64t45.5 -40.5t66 -25.5t77.5 -18q55 -12 104 -26.5t90.5 -43.5t67 -78.5t25.5 -128.5z" />
    <glyph glyph-name="Scaron" unicode="&#x160;" horiz-adv-x="1130" 
d="M294 984q0 -59 24 -97.5t64.5 -63.5t94 -41t111.5 -30q78 -19 153.5 -42t134.5 -63.5t95.5 -105.5t36.5 -167q0 -104 -38.5 -179.5t-107 -124t-163.5 -72t-208 -23.5q-52 0 -106.5 6.5t-104 17.5t-89.5 25t-63 28v149q36 -18 81 -33t93 -25.5t97 -16.5t92 -6
q70 0 133.5 12t111.5 40t76 76.5t28 121.5q0 60 -24.5 99t-65.5 64.5t-94.5 41.5t-112.5 30q-78 18 -152.5 40.5t-133 62.5t-94 103t-35.5 161q0 102 36 175.5t98 121.5t145 71t177 23q107 0 199.5 -20.5t169.5 -53.5v-151q-83 35 -171.5 57t-189.5 23q-76 0 -132 -16.5
t-93 -47t-55 -74t-18 -96.5zM509 1410l-216 247h154l138 -153h4l139 153h154l-216 -247h-157zM238 1338z" />
    <glyph glyph-name="scaron" unicode="&#x161;" horiz-adv-x="828" 
d="M351 1124l-210 349h140l147 -246h4l146 246h140l-210 -349h-157zM79 950zM250 697q0 -39 17 -64t45.5 -40.5t66 -25.5t77.5 -18q55 -12 104 -26.5t90.5 -43.5t67 -78.5t25.5 -128.5q0 -72 -28 -127.5t-79 -93t-122 -57t-156 -19.5q-52 0 -94.5 5.5t-75 14t-55.5 17.5
t-38 17v130q60 -24 119 -38t130 -14q56 0 101 10t77.5 29.5t50 49t17.5 68.5q0 40 -16 66t-43 43t-62.5 28t-74.5 20q-51 11 -103.5 26t-95.5 42t-69.5 73.5t-26.5 119.5q0 75 27 130t73 91t107 54t129 18q79 0 146.5 -15t122.5 -38v-132q-60 23 -121.5 37.5t-126.5 15.5
q-55 0 -94 -11t-64 -30.5t-36.5 -46t-11.5 -58.5z" />
    <glyph glyph-name="uni0162" unicode="&#x162;" horiz-adv-x="1137" 
d="M650 0h-163v1191h-447v147h1057v-147h-447v-1191zM541 -325q0 39 -23.5 56.5t-60.5 17.5v129q15 1 28 1q93 0 147.5 -42.5t54.5 -123.5q0 -50 -19 -99.5t-60 -103.5h-143q34 47 55 89t21 76z" />
    <glyph glyph-name="uni0162" unicode="&#x21a;" horiz-adv-x="1137" 
d="M650 0h-163v1191h-447v147h1057v-147h-447v-1191zM541 -325q0 39 -23.5 56.5t-60.5 17.5v129q15 1 28 1q93 0 147.5 -42.5t54.5 -123.5q0 -50 -19 -99.5t-60 -103.5h-143q34 47 55 89t21 76z" />
    <glyph glyph-name="uni0163" unicode="&#x163;" horiz-adv-x="711" 
d="M651 -2q-20 -8 -61 -15t-98 -8q-75 0 -130 18.5t-91.5 53t-54.5 83.5t-18 109v578h-183v133h183v260h155v-260h284v-133h-284v-554q0 -33 9.5 -61t30 -48.5t52.5 -32t77 -11.5q31 0 65.5 5t63.5 13v-130zM365 -325q0 39 -23.5 56.5t-60.5 17.5v129q15 1 28 1
q93 0 147.5 -42.5t54.5 -123.5q0 -50 -19 -99.5t-60 -103.5h-143q34 47 55 89t21 76z" />
    <glyph glyph-name="uni0163" unicode="&#x21b;" horiz-adv-x="711" 
d="M651 -2q-20 -8 -61 -15t-98 -8q-75 0 -130 18.5t-91.5 53t-54.5 83.5t-18 109v578h-183v133h183v260h155v-260h284v-133h-284v-554q0 -33 9.5 -61t30 -48.5t52.5 -32t77 -11.5q31 0 65.5 5t63.5 13v-130zM365 -325q0 39 -23.5 56.5t-60.5 17.5v129q15 1 28 1
q93 0 147.5 -42.5t54.5 -123.5q0 -50 -19 -99.5t-60 -103.5h-143q34 47 55 89t21 76z" />
    <glyph glyph-name="Tcaron" unicode="&#x164;" horiz-adv-x="1137" 
d="M650 0h-163v1191h-447v147h1057v-147h-447v-1191zM485 1410l-216 247h154l138 -153h4l139 153h154l-216 -247h-157zM214 1338z" />
    <glyph glyph-name="tcaron" unicode="&#x165;" horiz-adv-x="711" 
d="M651 -2q-20 -8 -61 -15t-98 -8q-75 0 -130 18.5t-91.5 53t-54.5 83.5t-18 109v578h-183v133h183v260h155v-260h284v-133h-284v-554q0 -33 9.5 -61t30 -48.5t52.5 -32t77 -11.5q31 0 65.5 5t63.5 13v-130zM609 1245q0 39 -23.5 56.5t-60.5 17.5v129q16 1 31 1
q90 0 144.5 -43t54.5 -123q0 -51 -19 -100t-60 -103h-143q32 46 54 87t22 78zM593 950z" />
    <glyph glyph-name="Tbar" unicode="&#x166;" horiz-adv-x="1137" 
d="M250 759h237v432h-447v147h1057v-147h-447v-432h242v-147h-242v-612h-163v612h-237v147z" />
    <glyph glyph-name="tbar" unicode="&#x167;" horiz-adv-x="711" 
d="M651 -2q-21 -8 -64.5 -15.5t-94.5 -7.5q-75 0 -130 18.5t-91.5 53t-54.5 83.5t-18 109v229h-183v133h183v216h-183v133h183v260h155v-260h284v-133h-284v-216h233v-133h-233v-205q0 -33 9.5 -60.5t30 -48.5t53 -32.5t76.5 -11.5q29 0 64.5 5t64.5 13v-130z" />
    <glyph glyph-name="Utilde" unicode="&#x168;" horiz-adv-x="1374" 
d="M687 120q73 0 129.5 17t98.5 48t70 74.5t43 96.5q10 33 14 73.5t4 78.5v830h163v-826q0 -47 -5 -98t-16 -95q-19 -74 -57 -137t-99 -109t-146.5 -72t-200.5 -26q-110 0 -193 24t-142.5 66.5t-97.5 101t-59 127.5q-15 50 -21.5 107t-6.5 111v826h163v-830q0 -45 6.5 -92.5
t20.5 -86.5q35 -97 116.5 -153t215.5 -56zM551 1641q41 0 80 -14.5t72 -32t62.5 -32t55.5 -14.5q34 0 47.5 23t13.5 62h125v-22q0 -33 -7 -66.5t-27.5 -62t-54 -45t-81.5 -16.5q-41 0 -80 14.5t-72 32t-62.5 32t-55.5 14.5q-34 0 -47.5 -23t-13.5 -62h-125v14q-1 35 6.5 72
t28 65.5t54 44.5t81.5 16zM344 1338z" />
    <glyph glyph-name="utilde" unicode="&#x169;" horiz-adv-x="1060" 
d="M527 -25q-74 0 -133 16t-103.5 45t-75.5 69.5t-49 88.5q-14 36 -20 79t-6 94v583h155v-582q0 -79 21 -132q24 -60 77.5 -94.5t136.5 -34.5q88 0 141.5 38t76.5 102q17 49 17 121v582h155v-584q0 -48 -5.5 -89.5t-17.5 -76.5q-18 -49 -49.5 -90.5t-77.5 -71.5
t-106.5 -46.5t-136.5 -16.5zM222 1178v23q0 34 7.5 67.5t27 61t52.5 44t81 16.5q41 0 80 -14.5t72 -32.5t64.5 -33t55.5 -15q31 0 45.5 22t14.5 65h122v-23q0 -34 -7.5 -67.5t-27 -61t-52.5 -44t-81 -16.5q-41 0 -80 14.5t-72 32.5t-64.5 33t-55.5 15q-31 0 -45.5 -22
t-14.5 -65h-122zM183 950z" />
    <glyph glyph-name="Umacron" unicode="&#x16a;" horiz-adv-x="1374" 
d="M687 120q73 0 129.5 17t98.5 48t70 74.5t43 96.5q10 33 14 73.5t4 78.5v830h163v-826q0 -47 -5 -98t-16 -95q-19 -74 -57 -137t-99 -109t-146.5 -72t-200.5 -26q-110 0 -193 24t-142.5 66.5t-97.5 101t-59 127.5q-15 50 -21.5 107t-6.5 111v826h163v-830q0 -45 6.5 -92.5
t20.5 -86.5q35 -97 116.5 -153t215.5 -56zM417 1581h540v-133h-540v133zM337 1338z" />
    <glyph glyph-name="umacron" unicode="&#x16b;" horiz-adv-x="1060" 
d="M527 -25q-74 0 -133 16t-103.5 45t-75.5 69.5t-49 88.5q-14 36 -20 79t-6 94v583h155v-582q0 -79 21 -132q24 -60 77.5 -94.5t136.5 -34.5q88 0 141.5 38t76.5 102q17 49 17 121v582h155v-584q0 -48 -5.5 -89.5t-17.5 -76.5q-18 -49 -49.5 -90.5t-77.5 -71.5
t-106.5 -46.5t-136.5 -16.5zM261 1300h540v-129h-540v129zM181 950z" />
    <glyph glyph-name="Ubreve" unicode="&#x16c;" horiz-adv-x="1374" 
d="M687 120q73 0 129.5 17t98.5 48t70 74.5t43 96.5q10 33 14 73.5t4 78.5v830h163v-826q0 -47 -5 -98t-16 -95q-19 -74 -57 -137t-99 -109t-146.5 -72t-200.5 -26q-110 0 -193 24t-142.5 66.5t-97.5 101t-59 127.5q-15 50 -21.5 107t-6.5 111v826h163v-830q0 -45 6.5 -92.5
t20.5 -86.5q35 -97 116.5 -153t215.5 -56zM684 1530q28 0 56.5 7.5t52.5 24.5t41 43.5t23 64.5h133q-7 -64 -33 -112.5t-66.5 -81.5t-93.5 -50t-113 -17t-113 17t-93.5 50t-66.5 81.5t-33 112.5h133q6 -38 23 -64.5t41 -43.5t52.5 -24.5t56.5 -7.5zM337 1338z" />
    <glyph glyph-name="ubreve" unicode="&#x16d;" horiz-adv-x="1060" 
d="M527 -25q-74 0 -133 16t-103.5 45t-75.5 69.5t-49 88.5q-14 36 -20 79t-6 94v583h155v-582q0 -79 21 -132q24 -60 77.5 -94.5t136.5 -34.5q88 0 141.5 38t76.5 102q17 49 17 121v582h155v-584q0 -48 -5.5 -89.5t-17.5 -76.5q-18 -49 -49.5 -90.5t-77.5 -71.5
t-106.5 -46.5t-136.5 -16.5zM526 1257q74 0 117.5 42t57.5 133h131q-4 -64 -25.5 -118t-60 -93.5t-94 -62t-126.5 -22.5t-126.5 22.5t-94 62t-60 93.5t-25.5 118h131q14 -91 57.5 -133t117.5 -42zM176 950z" />
    <glyph glyph-name="Uring" unicode="&#x16e;" horiz-adv-x="1374" 
d="M687 120q73 0 129.5 17t98.5 48t70 74.5t43 96.5q10 33 14 73.5t4 78.5v830h163v-826q0 -47 -5 -98t-16 -95q-19 -74 -57 -137t-99 -109t-146.5 -72t-200.5 -26q-110 0 -193 24t-142.5 66.5t-97.5 101t-59 127.5q-15 50 -21.5 107t-6.5 111v826h163v-830q0 -45 6.5 -92.5
t20.5 -86.5q35 -97 116.5 -153t215.5 -56zM686 1376q-48 0 -90 12.5t-72.5 36.5t-48.5 59t-18 79t18 79t48.5 59t72.5 36.5t90 12.5t90 -12.5t72.5 -36.5t48.5 -59t18 -79t-18 -79t-48.5 -59t-72.5 -36.5t-90 -12.5zM686 1652q-45 0 -75.5 -22.5t-30.5 -66.5t30.5 -66.5
t75.5 -22.5t75.5 22.5t30.5 66.5t-30.5 66.5t-75.5 22.5zM336 1338z" />
    <glyph glyph-name="uring" unicode="&#x16f;" horiz-adv-x="1060" 
d="M527 -25q-74 0 -133 16t-103.5 45t-75.5 69.5t-49 88.5q-14 36 -20 79t-6 94v583h155v-582q0 -79 21 -132q24 -60 77.5 -94.5t136.5 -34.5q88 0 141.5 38t76.5 102q17 49 17 121v582h155v-584q0 -48 -5.5 -89.5t-17.5 -76.5q-18 -49 -49.5 -90.5t-77.5 -71.5
t-106.5 -46.5t-136.5 -16.5zM531 1100q-48 0 -90 13.5t-72.5 38.5t-48.5 61t-18 82t18 82t48.5 61t72.5 38.5t90 13.5t90 -13.5t72.5 -38.5t48.5 -61t18 -82t-18 -82t-48.5 -61t-72.5 -38.5t-90 -13.5zM531 1392q-45 0 -75.5 -25t-30.5 -72t30.5 -72t75.5 -25t75.5 25
t30.5 72t-30.5 72t-75.5 25zM181 950z" />
    <glyph glyph-name="Uhungarumlaut" unicode="&#x170;" horiz-adv-x="1374" 
d="M687 120q73 0 129.5 17t98.5 48t70 74.5t43 96.5q10 33 14 73.5t4 78.5v830h163v-826q0 -47 -5 -98t-16 -95q-19 -74 -57 -137t-99 -109t-146.5 -72t-200.5 -26q-110 0 -193 24t-142.5 66.5t-97.5 101t-59 127.5q-15 50 -21.5 107t-6.5 111v826h163v-830q0 -45 6.5 -92.5
t20.5 -86.5q35 -97 116.5 -153t215.5 -56zM770 1656l-171 -247h-139l136 247h174zM1077 1656l-191 -247h-139l156 247h174zM409 1338z" />
    <glyph glyph-name="uhungarumlaut" unicode="&#x171;" horiz-adv-x="1060" 
d="M527 -25q-74 0 -133 16t-103.5 45t-75.5 69.5t-49 88.5q-14 36 -20 79t-6 94v583h155v-582q0 -79 21 -132q24 -60 77.5 -94.5t136.5 -34.5q88 0 141.5 38t76.5 102q17 49 17 121v582h155v-584q0 -48 -5.5 -89.5t-17.5 -76.5q-18 -49 -49.5 -90.5t-77.5 -71.5
t-106.5 -46.5t-136.5 -16.5zM597 1473l-157 -349h-129l123 349h163zM908 1473l-177 -349h-130l143 349h164zM251 950z" />
    <glyph glyph-name="Uogonek" unicode="&#x172;" horiz-adv-x="1374" 
d="M785 -12q-20 -4 -53 -8t-63 -4q-104 0 -183.5 23.5t-137.5 66t-96 101t-59 127.5q-15 50 -21.5 107t-6.5 111v826h163v-830q0 -45 6.5 -92.5t20.5 -86.5q35 -96 115.5 -152.5t216.5 -56.5q73 0 129.5 17t98.5 48t70 74.5t43 96.5q10 33 14 73.5t4 78.5v830h163v-848
q0 -70 -11.5 -127.5t-32 -105.5t-49 -87.5t-63.5 -73.5q-48 -46 -97.5 -88t-89 -84.5t-65 -88t-25.5 -98.5q0 -48 27.5 -70t75.5 -22q28 0 59 5.5t68 17.5v-128q-29 -13 -68.5 -21.5t-88.5 -8.5q-48 0 -87.5 11.5t-68 34.5t-44.5 57t-16 80q0 39 11.5 79t32.5 77.5t49 72
t61 61.5z" />
    <glyph glyph-name="uogonek" unicode="&#x173;" horiz-adv-x="1060" 
d="M641 5q-26 -13 -60.5 -20.5t-76.5 -7.5q-61 0 -115 15.5t-97.5 43.5t-75.5 68.5t-50 89.5q-14 36 -20 79t-6 94v583h155v-582q0 -79 21 -132q24 -60 78 -94.5t136 -34.5q86 0 140.5 37.5t77.5 102.5q17 49 17 121v582h155v-584q0 -66 -12.5 -116.5t-36 -93.5t-56.5 -84
t-74 -89q-25 -29 -47 -57.5t-39 -58.5t-27 -62t-10 -68q0 -48 27.5 -70t75.5 -22q28 0 59 5.5t68 17.5v-128q-29 -13 -68.5 -21.5t-88.5 -8.5q-48 0 -87.5 11.5t-68 34.5t-44.5 57t-16 80q0 41 12.5 84t35 83.5t53.5 76.5t67 65z" />
    <glyph glyph-name="Wcircumflex" unicode="&#x174;" horiz-adv-x="1806" 
d="M901 1117q-16 -92 -75 -322l-208 -795h-166l-412 1338h171l226 -785q54 -189 92 -340h4q20 93 43.5 181t41.5 157l204 787h162l204 -787q75 -284 85 -338h4q34 140 92 340l226 785h171l-412 -1338h-166l-208 795q-57 222 -75 322h-4zM982 1656l216 -247h-158l-137 151h-4
l-136 -151h-158l216 247h161zM552 1338z" />
    <glyph glyph-name="wcircumflex" unicode="&#x175;" horiz-adv-x="1458" 
d="M726 793q-31 -131 -58 -226l-156 -567h-159l-313 950h157l176 -592q35 -117 53 -187h4q16 72 53 208l159 571h174l159 -571q32 -116 53 -208h4q24 92 53 187l176 592h157l-313 -950h-161l-156 567q-28 101 -58 226h-4zM806 1473l210 -349h-140l-147 246h-4l-146 -246
h-140l210 349h157zM378 950z" />
    <glyph glyph-name="Ycircumflex" unicode="&#x176;" horiz-adv-x="1217" 
d="M690 538v-538h-163v538l-487 800h178l388 -650h5l388 650h178zM690 1656l216 -247h-158l-137 151h-4l-136 -151h-158l216 247h161zM260 1338z" />
    <glyph glyph-name="ycircumflex" unicode="&#x177;" horiz-adv-x="982" 
d="M30 950h159l295 -745h6l299 745h163l-593 -1415h-154l203 484zM565 1473l210 -349h-140l-147 246h-4l-146 -246h-140l210 349h157zM137 950z" />
    <glyph glyph-name="Ydieresis" unicode="&#x178;" horiz-adv-x="1217" 
d="M690 538v-538h-163v538l-487 800h178l388 -650h5l388 650h178zM337 1448v169h161v-169h-161zM720 1448v169h161v-169h-161zM259 1338z" />
    <glyph glyph-name="Zacute" unicode="&#x179;" horiz-adv-x="1199" 
d="M1090 1338v-102l-776 -1089h785v-147h-999v102l778 1089h-760v147h972zM822 1656l-181 -247h-139l146 247h174zM352 1338z" />
    <glyph glyph-name="zacute" unicode="&#x17a;" horiz-adv-x="910" 
d="M608 813v4h-522v133h719v-98l-528 -715v-4h563v-133h-770v84zM650 1473l-161 -349h-130l123 349h168zM144 950z" />
    <glyph glyph-name="Zdotaccent" unicode="&#x17b;" horiz-adv-x="1199" 
d="M1090 1338v-102l-776 -1089h785v-147h-999v102l778 1089h-760v147h972zM507 1448v173h163v-173h-163zM239 1338z" />
    <glyph glyph-name="zdotaccent" unicode="&#x17c;" horiz-adv-x="910" 
d="M608 813v4h-522v133h719v-98l-528 -715v-4h563v-133h-770v84zM359 1171v173h163v-173h-163zM91 950z" />
    <glyph glyph-name="Zcaron" unicode="&#x17d;" horiz-adv-x="1199" 
d="M1090 1338v-102l-776 -1089h785v-147h-999v102l778 1089h-760v147h972zM509 1410l-216 247h154l138 -153h4l139 153h154l-216 -247h-157zM238 1338z" />
    <glyph glyph-name="zcaron" unicode="&#x17e;" horiz-adv-x="910" 
d="M608 813v4h-522v133h719v-98l-528 -715v-4h563v-133h-770v84zM361 1124l-210 349h140l147 -246h4l146 246h140l-210 -349h-157zM89 950z" />
    <glyph glyph-name="longs" unicode="&#x17f;" horiz-adv-x="585" 
d="M160 1096q0 102 27.5 172.5t74.5 116t110.5 67t136.5 21.5q35 0 69 -4t57 -9v-131q-28 5 -56 7t-48 2q-51 0 -91.5 -13t-68 -41.5t-42 -75t-14.5 -112.5v-1096h-155v1096z" />
    <glyph glyph-name="florin" unicode="&#x192;" 
d="M195 822h235q11 108 36 206t71 172.5t115.5 118.5t169.5 44q22 0 49 -3.5t45 -9.5v-130q-19 4 -40.5 6t-38.5 2q-60 0 -102.5 -26.5t-72 -78t-48 -127.5t-29.5 -174h259v-137h-274q-23 -251 -52.5 -442t-81 -320t-131.5 -194.5t-203 -65.5q-28 0 -51 4t-37 9v130
q16 -4 35 -6t37 -2q75 0 127.5 47.5t90.5 153.5t64.5 275t47.5 411h-221v137z" />
    <glyph glyph-name="Aringacute" unicode="&#x1fa;" horiz-adv-x="1301" 
d="M918 1943l-189 -199h-127l136 199h180zM646 1363q-48 0 -90 11.5t-72.5 34t-48.5 55.5t-18 76t18 76t48.5 55.5t72.5 34t90 11.5t90 -11.5t72.5 -34t48.5 -55.5t18 -76t-18 -76t-48.5 -55.5t-72.5 -34t-90 -11.5zM646 1619q-44 0 -75 -19t-31 -60t31 -60t75 -19t75 19
t31 60t-31 60t-75 19zM35 0l545 1338h141l545 -1338h-177l-160 403h-559l-160 -403h-175zM649 1130q-89 -250 -171 -454l-50 -126h443l-50 126q-82 208 -168 454h-4z" />
    <glyph glyph-name="aringacute" unicode="&#x1fb;" horiz-adv-x="1003" 
d="M755 1774l-201 -256h-127l148 256h180zM487 1086q-48 0 -90 12.5t-72.5 36.5t-48.5 59t-18 79t18 79t48.5 59t72.5 36.5t90 12.5t90 -12.5t72.5 -36.5t48.5 -59t18 -79t-18 -79t-48.5 -59t-72.5 -36.5t-90 -12.5zM487 1362q-45 0 -75.5 -22t-30.5 -67t30.5 -67t75.5 -22
t75.5 22t30.5 67t-30.5 67t-75.5 22zM706 105h-4q-19 -24 -48 -47.5t-67 -42t-83 -29.5t-96 -11q-69 0 -126.5 20.5t-99 60t-64.5 96.5t-23 129q0 71 25.5 127t71.5 95t110.5 60t142.5 21q74 -1 137 -13t112 -30h4v66q0 39 -5 69t-17 53q-26 48 -83 79.5t-154 31.5
q-72 0 -135.5 -13.5t-126.5 -37.5v130q24 12 56.5 22.5t68.5 18t76 11.5t80 4q144 0 235.5 -51t131.5 -135q15 -32 21.5 -70.5t6.5 -84.5v-634h-130zM698 417q-43 12 -102 23t-130 12q-99 0 -155 -42t-56 -129q0 -44 14 -77t38.5 -54.5t58 -32t71.5 -10.5q50 0 93 14.5
t76.5 34.5t57 40t34.5 31v190z" />
    <glyph glyph-name="AEacute" unicode="&#x1fc;" horiz-adv-x="1814" 
d="M1120 147h614v-147h-752l-52 401h-514l-211 -401h-175l708 1338h886v-147h-638l56 -432h520v-147h-501zM493 550h418l-80 641h-4zM1387 1656l-181 -247h-139l146 247h174zM917 1338z" />
    <glyph glyph-name="aeacute" unicode="&#x1fd;" horiz-adv-x="1592" 
d="M458 975q71 0 123.5 -12.5t91.5 -35.5t67 -54t49 -69h4q55 84 133.5 127.5t178.5 43.5q83 0 155 -30t123 -94t75.5 -155.5t22.5 -200.5q0 -23 -1 -52h-632q0 -91 24.5 -154.5t68 -103t104.5 -57.5t135 -18q75 0 139.5 12t127.5 36v-129q-51 -25 -126 -40.5t-161 -13.5
q-115 3 -207.5 36.5t-154.5 108.5h-4q-28 -26 -63 -52t-79 -46.5t-98 -33.5t-119 -13q-79 0 -142 20.5t-107 60t-67.5 96.5t-23.5 129q0 71 25.5 127t71.5 95t110.5 60t142.5 21q76 0 138.5 -12.5t111.5 -30.5h4v58q0 116 -60.5 178.5t-199.5 62.5q-72 0 -135.5 -13.5
t-126.5 -37.5v130q25 12 55.5 22t67.5 17.5t77.5 12t80.5 4.5zM450 107q51 0 95 11t80 28.5t63.5 39t45.5 42.5q-31 78 -37 188q-40 11 -104 23.5t-127 12.5q-99 0 -155 -42t-56 -129q0 -44 14.5 -77t40 -54.5t61.5 -32t79 -10.5zM1095 842q-53 0 -95.5 -21t-73.5 -57
t-49.5 -84.5t-23.5 -103.5h463q0 56 -14.5 104.5t-42.5 84.5t-69 56.5t-95 20.5zM1027 1473l-161 -349h-130l123 349h168zM521 950z" />
    <glyph glyph-name="Oslashacute" unicode="&#x1fe;" horiz-adv-x="1496" 
d="M120 71l130 146q-64 89 -97 203t-33 248q0 153 44.5 280.5t126 219.5t197.5 143.5t260 51.5q121 0 221 -35t178 -100l120 135l109 -95l-130 -147q63 -89 96.5 -203.5t33.5 -249.5q0 -152 -44 -279t-126 -219t-197.5 -143.5t-258.5 -51.5q-123 0 -223.5 35t-178.5 100
l-120 -135zM1204 668q0 99 -19 179.5t-54 144.5l-677 -763q60 -54 135 -81.5t161 -27.5q96 0 178.5 35t144 104t96.5 171.5t35 237.5zM292 668q0 -99 18.5 -179t53.5 -144l677 764q-59 54 -133.5 81.5t-159.5 27.5q-96 0 -179.5 -35.5t-145 -104.5t-96.5 -172t-35 -238z
M1004 1656l-181 -247h-139l146 247h174zM534 1338z" />
    <glyph glyph-name="oslashacute" unicode="&#x1ff;" horiz-adv-x="1092" 
d="M95 60l85 97q-42 63 -63.5 142.5t-21.5 174.5q0 113 32 205t90.5 158t142 102t186.5 36q83 0 152 -22.5t124 -64.5l76 87l99 -85l-86 -98q42 -63 64 -143t22 -175q0 -112 -32 -204t-90.5 -157.5t-141.5 -101.5t-186 -36q-84 0 -153.5 22t-123.5 64l-76 -86zM257 474
q0 -109 34 -191l433 493q-73 67 -178 67q-63 0 -116 -24.5t-91.5 -72t-60 -116t-21.5 -156.5zM835 474q0 56 -9 104t-26 88l-432 -493q74 -66 179 -66q63 0 115.5 24.5t91 71.5t60 115.5t21.5 155.5zM783 1473l-161 -349h-130l123 349h168zM277 950z" />
    <glyph glyph-name="uni0218" unicode="&#x218;" horiz-adv-x="1130" 
d="M294 984q0 -59 24 -97.5t64.5 -63.5t94 -41t111.5 -30q78 -19 153.5 -42t134.5 -63.5t95.5 -105.5t36.5 -167q0 -104 -38.5 -179.5t-107 -124t-163.5 -72t-208 -23.5q-52 0 -106.5 6.5t-104 17.5t-89.5 25t-63 28v149q36 -18 81 -33t93 -25.5t97 -16.5t92 -6
q70 0 133.5 12t111.5 40t76 76.5t28 121.5q0 60 -24.5 99t-65.5 64.5t-94.5 41.5t-112.5 30q-78 18 -152.5 40.5t-133 62.5t-94 103t-35.5 161q0 102 36 175.5t98 121.5t145 71t177 23q107 0 199.5 -20.5t169.5 -53.5v-151q-83 35 -171.5 57t-189.5 23q-76 0 -132 -16.5
t-93 -47t-55 -74t-18 -96.5zM504 -325q0 39 -23.5 56.5t-60.5 17.5v129q15 1 28 1q93 0 147.5 -42.5t54.5 -123.5q0 -50 -19 -99.5t-60 -103.5h-143q34 47 55 89t21 76z" />
    <glyph glyph-name="uni0219" unicode="&#x219;" horiz-adv-x="828" 
d="M367 -325q0 39 -23.5 56.5t-60.5 17.5v129q15 1 28 1q93 0 147.5 -42.5t54.5 -123.5q0 -50 -19 -99.5t-60 -103.5h-143q34 47 55 89t21 76zM250 697q0 -39 17 -64t45.5 -40.5t66 -25.5t77.5 -18q55 -12 104 -26.5t90.5 -43.5t67 -78.5t25.5 -128.5q0 -72 -28 -127.5
t-79 -93t-122 -57t-156 -19.5q-52 0 -94.5 5.5t-75 14t-55.5 17.5t-38 17v130q60 -24 119 -38t130 -14q56 0 101 10t77.5 29.5t50 49t17.5 68.5q0 40 -16 66t-43 43t-62.5 28t-74.5 20q-51 11 -103.5 26t-95.5 42t-69.5 73.5t-26.5 119.5q0 75 27 130t73 91t107 54t129 18
q79 0 146.5 -15t122.5 -38v-132q-60 23 -121.5 37.5t-126.5 15.5q-55 0 -94 -11t-64 -30.5t-36.5 -46t-11.5 -58.5z" />
    <glyph glyph-name="circumflex" unicode="&#x2c6;" horiz-adv-x="700" 
d="M428 1473l210 -349h-140l-147 246h-4l-146 -246h-140l210 349h157zM0 950z" />
    <glyph glyph-name="caron" unicode="&#x2c7;" horiz-adv-x="700" 
d="M272 1124l-210 349h140l147 -246h4l146 246h140l-210 -349h-157zM0 950z" />
    <glyph glyph-name="breve" unicode="&#x2d8;" horiz-adv-x="700" 
d="M350 1257q74 0 117.5 42t57.5 133h131q-4 -64 -25.5 -118t-60 -93.5t-94 -62t-126.5 -22.5t-126.5 22.5t-94 62t-60 93.5t-25.5 118h131q14 -91 57.5 -133t117.5 -42zM0 950z" />
    <glyph glyph-name="dotaccent" unicode="&#x2d9;" horiz-adv-x="700" 
d="M268 1171v173h163v-173h-163zM0 950z" />
    <glyph glyph-name="ring" unicode="&#x2da;" horiz-adv-x="700" 
d="M350 1100q-48 0 -90 13.5t-72.5 38.5t-48.5 61t-18 82t18 82t48.5 61t72.5 38.5t90 13.5t90 -13.5t72.5 -38.5t48.5 -61t18 -82t-18 -82t-48.5 -61t-72.5 -38.5t-90 -13.5zM350 1392q-45 0 -75.5 -25t-30.5 -72t30.5 -72t75.5 -25t75.5 25t30.5 72t-30.5 72t-75.5 25z
M0 950z" />
    <glyph glyph-name="ogonek" unicode="&#x2db;" horiz-adv-x="700" 
d="M577 29q-37 -26 -82 -61.5t-83.5 -76.5t-64.5 -84t-26 -84q0 -78 91 -78q30 0 61.5 5.5t68.5 17.5v-128q-29 -13 -70 -21.5t-89 -8.5q-98 0 -151.5 44.5t-53.5 130.5q0 53 23.5 102t60.5 93t82 81.5t88 67.5h145z" />
    <glyph glyph-name="tilde" unicode="&#x2dc;" horiz-adv-x="700" 
d="M39 1178v23q0 34 7.5 67.5t27 61t52.5 44t81 16.5q41 0 80 -14.5t72 -32.5t64.5 -33t55.5 -15q31 0 45.5 22t14.5 65h122v-23q0 -34 -7.5 -67.5t-27 -61t-52.5 -44t-81 -16.5q-41 0 -80 14.5t-72 32.5t-64.5 33t-55.5 15q-31 0 -45.5 -22t-14.5 -65h-122zM0 950z" />
    <glyph glyph-name="hungarumlaut" unicode="&#x2dd;" horiz-adv-x="700" 
d="M346 1473l-157 -349h-129l123 349h163zM657 1473l-177 -349h-130l143 349h164zM0 950z" />
    <glyph glyph-name="gravecomb" unicode="&#x300;" horiz-adv-x="0" 
d="M-553 1473l123 -349h-130l-161 349h168zM-929 950z" />
    <glyph glyph-name="acutecomb" unicode="&#x301;" horiz-adv-x="0" 
d="M-294 1473l-161 -349h-130l123 349h168zM-800 950z" />
    <glyph glyph-name="uni0302" unicode="&#x302;" horiz-adv-x="0" 
d="M-431 1473l210 -349h-140l-147 246h-4l-146 -246h-140l210 349h157zM-859 950z" />
    <glyph glyph-name="tildecomb" unicode="&#x303;" horiz-adv-x="0" 
d="M-818 1178v23q0 34 7.5 67.5t27 61t52.5 44t81 16.5q41 0 80 -14.5t72 -32.5t64.5 -33t55.5 -15q31 0 45.5 22t14.5 65h122v-23q0 -34 -7.5 -67.5t-27 -61t-52.5 -44t-81 -16.5q-41 0 -80 14.5t-72 32.5t-64.5 33t-55.5 15q-31 0 -45.5 -22t-14.5 -65h-122zM-857 950z
" />
    <glyph glyph-name="uni0304" unicode="&#x304;" horiz-adv-x="0" 
d="M-781 1300h540v-129h-540v129zM-861 950z" />
    <glyph glyph-name="uni0306" unicode="&#x306;" horiz-adv-x="0" 
d="M-494 1257q74 0 117.5 42t57.5 133h131q-4 -64 -25.5 -118t-60 -93.5t-94 -62t-126.5 -22.5t-126.5 22.5t-94 62t-60 93.5t-25.5 118h131q14 -91 57.5 -133t117.5 -42zM-844 950z" />
    <glyph glyph-name="uni0307" unicode="&#x307;" horiz-adv-x="0" 
d="M-608 1171v173h163v-173h-163zM-876 950z" />
    <glyph glyph-name="uni0308" unicode="&#x308;" horiz-adv-x="0" 
d="M-777 1171v167h159v-167h-159zM-396 1171v167h159v-167h-159zM-857 950z" />
    <glyph glyph-name="uni030A" unicode="&#x30a;" horiz-adv-x="0" 
d="M-522 1100q-48 0 -90 13.5t-72.5 38.5t-48.5 61t-18 82t18 82t48.5 61t72.5 38.5t90 13.5t90 -13.5t72.5 -38.5t48.5 -61t18 -82t-18 -82t-48.5 -61t-72.5 -38.5t-90 -13.5zM-522 1392q-45 0 -75.5 -25t-30.5 -72t30.5 -72t75.5 -25t75.5 25t30.5 72t-30.5 72t-75.5 25z
M-872 950z" />
    <glyph glyph-name="uni030B" unicode="&#x30b;" horiz-adv-x="0" 
d="M-479 1473l-157 -349h-129l123 349h163zM-168 1473l-177 -349h-130l143 349h164zM-825 950z" />
    <glyph glyph-name="uni030C" unicode="&#x30c;" horiz-adv-x="0" 
d="M-598 1124l-210 349h140l147 -246h4l146 246h140l-210 -349h-157zM-870 950z" />
    <glyph glyph-name="uni0312" unicode="&#x312;" horiz-adv-x="0" 
d="M-522 1308q0 -39 23.5 -56.5t60.5 -17.5v-129q-14 -1 -28 -1q-92 0 -147 42t-55 124q0 51 19 100t60 103h143q-32 -46 -54 -87t-22 -78zM0 950z" />
    <glyph glyph-name="uni0315" unicode="&#x315;" horiz-adv-x="106" 
d="M16 1245q0 39 -23.5 56.5t-60.5 17.5v129q16 1 31 1q90 0 144.5 -43t54.5 -123q0 -51 -19 -100t-60 -103h-143q32 46 54 87t22 78zM0 950z" />
    <glyph glyph-name="uni0326" unicode="&#x326;" horiz-adv-x="700" 
d="M342 -325q0 39 -23.5 56.5t-60.5 17.5v129q15 1 28 1q93 0 147.5 -42.5t54.5 -123.5q0 -50 -19 -99.5t-60 -103.5h-143q34 47 55 89t21 76z" />
    <glyph glyph-name="uni0327" unicode="&#x327;" horiz-adv-x="0" 
d="M-485 0h122l-35 -126q40 -6 73.5 -18.5t57.5 -32.5t37 -48.5t13 -65.5q0 -52 -23 -89.5t-61.5 -62t-88.5 -36t-104 -11.5q-43 0 -77.5 5.5t-55.5 13.5v113q20 -6 50.5 -11t68.5 -6q29 0 56 3.5t49.5 13t36 25.5t13.5 39q0 21 -14 35.5t-39.5 23.5t-62 13.5t-81.5 6.5z
" />
    <glyph glyph-name="uni0328" unicode="&#x328;" horiz-adv-x="0" 
d="M-160 29q-37 -26 -82 -61.5t-83.5 -76.5t-64.5 -84t-26 -84q0 -78 91 -78q30 0 61.5 5.5t68.5 17.5v-128q-29 -13 -70 -21.5t-89 -8.5q-98 0 -151.5 44.5t-53.5 130.5q0 53 23.5 102t60.5 93t82 81.5t88 67.5h145z" />
    <glyph glyph-name="uni0344" unicode="&#x344;" horiz-adv-x="0" 
d="M-849 1173v163h149v-163h-149zM-398 1173v163h149v-163h-149zM-433 1473l-83 -349h-119l49 349h153zM-901 950z" />
    <glyph glyph-name="uni0374" unicode="&#x374;" horiz-adv-x="420" 
d="M420 1397l-219 -349h-136l183 349h172zM0 950z" />
    <glyph glyph-name="uni0375" unicode="&#x375;" horiz-adv-x="420" 
d="M-53 -349l219 349h136l-183 -349h-172z" />
    <glyph glyph-name="uni037E" unicode="&#x37e;" horiz-adv-x="546" 
d="M187 218h173l-189 -608h-151zM366 807v-195h-191v195h191z" />
    <glyph glyph-name="tonos" unicode="&#x384;" horiz-adv-x="700" 
d="M545 1473l-219 -349h-136l183 349h172zM0 950z" />
    <glyph glyph-name="dieresistonos" unicode="&#x385;" horiz-adv-x="700" 
d="M52 1173v163h149v-163h-149zM503 1173v163h149v-163h-149zM468 1473l-83 -349h-119l49 349h153zM0 950z" />
    <glyph glyph-name="Alphatonos" unicode="&#x386;" horiz-adv-x="1301" 
d="M334 1338l-106 -379h-138l94 379h150zM35 0l545 1338h141l545 -1338h-177l-160 403h-559l-160 -403h-175zM649 1130q-89 -250 -171 -454l-50 -126h443l-50 126q-82 208 -168 454h-4z" />
    <glyph glyph-name="anoteleia" unicode="&#x387;" horiz-adv-x="541" 
d="M175 755v195h191v-195h-191z" />
    <glyph glyph-name="Epsilontonos" unicode="&#x388;" horiz-adv-x="1295" 
d="M244 1338l-106 -379h-138l94 379h150zM499 147h686v-147h-849v1338h812v-147h-649v-432h577v-147h-577v-465z" />
    <glyph glyph-name="Etatonos" unicode="&#x389;" horiz-adv-x="1533" 
d="M244 1338l-106 -379h-138l94 379h150zM499 759h701v579h163v-1338h-163v612h-701v-612h-163v1338h163v-579z" />
    <glyph glyph-name="Iotatonos" unicode="&#x38a;" horiz-adv-x="669" 
d="M244 1338l-106 -379h-138l94 379h150zM336 0v1338h163v-1338h-163z" />
    <glyph glyph-name="Omicrontonos" unicode="&#x38c;" horiz-adv-x="1617" 
d="M244 1338l-106 -379h-138l94 379h150zM1325 668q0 135 -35 238t-96.5 172t-145 104.5t-179.5 35.5t-179.5 -35.5t-145 -104.5t-96.5 -172t-35 -238t35.5 -237.5t97 -171.5t145 -104t180.5 -35q96 0 178.5 35t144 104t96.5 171.5t35 237.5zM1497 668q0 -152 -44 -279
t-126 -219t-197.5 -143.5t-258.5 -51.5q-148 0 -265 51.5t-198 143.5t-124 219t-43 279q0 153 44.5 280.5t126 219.5t197.5 143.5t260 51.5q147 0 263.5 -51.5t197.5 -143.5t124 -219.5t43 -280.5z" />
    <glyph glyph-name="Upsilontonos" unicode="&#x38e;" horiz-adv-x="1467" 
d="M244 1338l-106 -379h-138l94 379h150zM862 678q23 80 57.5 155.5t80.5 154t102 164.5t123 186h192q-55 -79 -111.5 -157.5t-109.5 -158t-99 -161.5t-80.5 -170t-54.5 -182t-20 -198v-311h-163v311q0 155 -43 290.5t-111.5 259.5t-152.5 241t-167 236h194
q65 -98 121 -183.5t101 -165t80 -155.5t58 -156h3z" />
    <glyph glyph-name="Omegatonos" unicode="&#x38f;" horiz-adv-x="1627" 
d="M244 1338l-106 -379h-138l94 379h150zM874 1363q144 0 258.5 -48.5t194.5 -133.5t122.5 -201t42.5 -250q0 -100 -24.5 -186t-65 -158t-92.5 -131t-107 -104v-4h294v-147h-475v112q57 66 110.5 129t95 134t67 156.5t25.5 195.5q0 128 -35.5 220.5t-96.5 152.5t-142 89
t-172 29t-172 -28.5t-142 -88.5t-96.5 -152t-35.5 -219q0 -111 25.5 -197t67 -157.5t95 -134.5t110.5 -129v-112h-475v147h290v4q-59 48 -111 107t-90.5 130.5t-61 156.5t-22.5 185q0 134 42.5 250t122.5 201t194.5 133.5t258.5 48.5z" />
    <glyph glyph-name="iotadieresistonos" unicode="&#x390;" horiz-adv-x="535" 
d="M305 234q0 -36 4 -59t14 -36t26.5 -17.5t41.5 -4.5q20 0 47.5 5t41.5 10v-129q-23 -7 -59 -12.5t-72 -5.5q-56 0 -94 13.5t-61.5 40t-33.5 65t-10 88.5v758h155v-716zM-46 1173v163h149v-163h-149zM405 1173v163h149v-163h-149zM370 1473l-83 -349h-119l49 349h153z
M-98 950z" />
    <glyph glyph-name="Alpha" unicode="&#x391;" horiz-adv-x="1301" 
d="M35 0l545 1338h141l545 -1338h-177l-160 403h-559l-160 -403h-175zM649 1130q-89 -250 -171 -454l-50 -126h443l-50 126q-82 208 -168 454h-4z" />
    <glyph glyph-name="Beta" unicode="&#x392;" horiz-adv-x="1215" 
d="M830 692q62 -9 111.5 -33t85 -61.5t54.5 -89t19 -117.5q0 -47 -14 -98.5t-46.5 -100t-85 -89.5t-130.5 -67q-60 -20 -133 -28t-175 -8h-346v1338h334q46 0 83.5 -1.5t69 -4.5t58.5 -7.5t51 -10.5q63 -17 114.5 -46.5t87.5 -70.5t55.5 -93t19.5 -113q0 -49 -11.5 -94
t-37 -83t-66 -68t-98.5 -50v-4zM581 759q48 0 83 4.5t63 13.5q75 25 109.5 78t34.5 125q0 74 -36 121t-113 70q-38 11 -88 15.5t-118 4.5h-183v-432h248zM333 612v-465h197q70 0 130 6.5t102 20.5q46 15 78 38.5t51.5 52t28 60.5t8.5 65q0 38 -9 71.5t-29.5 60t-54 46.5
t-83.5 31q-30 7 -68.5 10t-95.5 3h-255z" />
    <glyph glyph-name="Gamma" unicode="&#x393;" horiz-adv-x="1062" 
d="M170 0v1338h852v-147h-689v-1191h-163z" />
    <glyph glyph-name="uni0394" unicode="&#x394;" horiz-adv-x="1286" 
d="M561 1338h163l502 -1236v-102h-1166v102zM253 147h781l-238 607q-74 189 -149 391h-6q-87 -234 -148 -388z" />
    <glyph glyph-name="Epsilon" unicode="&#x395;" horiz-adv-x="1129" 
d="M333 147h686v-147h-849v1338h812v-147h-649v-432h577v-147h-577v-465z" />
    <glyph glyph-name="Zeta" unicode="&#x396;" horiz-adv-x="1199" 
d="M1090 1338v-102l-776 -1089h785v-147h-999v102l778 1089h-760v147h972z" />
    <glyph glyph-name="Eta" unicode="&#x397;" horiz-adv-x="1367" 
d="M333 759h701v579h163v-1338h-163v612h-701v-612h-163v1338h163v-579z" />
    <glyph glyph-name="Theta" unicode="&#x398;" horiz-adv-x="1496" 
d="M1048 612h-600v147h600v-147zM1204 668q0 135 -35 238t-96.5 172t-145 104.5t-179.5 35.5t-179.5 -35.5t-145 -104.5t-96.5 -172t-35 -238t35.5 -237.5t97 -171.5t145 -104t180.5 -35q96 0 178.5 35t144 104t96.5 171.5t35 237.5zM1376 668q0 -152 -44 -279t-126 -219
t-197.5 -143.5t-258.5 -51.5q-148 0 -265 51.5t-198 143.5t-124 219t-43 279q0 153 44.5 280.5t126 219.5t197.5 143.5t260 51.5q147 0 263.5 -51.5t197.5 -143.5t124 -219.5t43 -280.5z" />
    <glyph glyph-name="Iota" unicode="&#x399;" horiz-adv-x="503" 
d="M170 0v1338h163v-1338h-163z" />
    <glyph glyph-name="Kappa" unicode="&#x39a;" horiz-adv-x="1239" 
d="M170 0v1338h163v-661h2l615 661h201l-624 -666l672 -672h-212l-652 655h-2v-655h-163z" />
    <glyph glyph-name="Lambda" unicode="&#x39b;" horiz-adv-x="1285" 
d="M642 1117q-85 -232 -166 -435l-268 -682h-173l535 1338h143l537 -1338h-173l-268 682q-85 215 -163 435h-4z" />
    <glyph glyph-name="Mu" unicode="&#x39c;" horiz-adv-x="1683" 
d="M879 0h-75l-337 799q-70 165 -140 359h-8q14 -279 14 -511v-647h-163v1338h235l315 -757q54 -130 119 -313h5q72 203 119 313l315 757h235v-1338h-163v647q0 227 14 511h-8q-74 -205 -140 -359z" />
    <glyph glyph-name="Nu" unicode="&#x39d;" horiz-adv-x="1426" 
d="M857 592q123 -177 243 -364h6q-13 195 -13 398v712h163v-1338h-162l-525 746q-136 195 -243 364h-6q13 -183 13 -427v-683h-163v1338h162z" />
    <glyph glyph-name="Xi" unicode="&#x39e;" horiz-adv-x="1168" 
d="M207 759h754v-147h-754v147zM100 147h968v-147h-968v147zM135 1338h898v-147h-898v147z" />
    <glyph glyph-name="Omicron" unicode="&#x39f;" horiz-adv-x="1496" 
d="M1204 668q0 135 -35 238t-96.5 172t-145 104.5t-179.5 35.5t-179.5 -35.5t-145 -104.5t-96.5 -172t-35 -238t35.5 -237.5t97 -171.5t145 -104t180.5 -35q96 0 178.5 35t144 104t96.5 171.5t35 237.5zM1376 668q0 -152 -44 -279t-126 -219t-197.5 -143.5t-258.5 -51.5
q-148 0 -265 51.5t-198 143.5t-124 219t-43 279q0 153 44.5 280.5t126 219.5t197.5 143.5t260 51.5q147 0 263.5 -51.5t197.5 -143.5t124 -219.5t43 -280.5z" />
    <glyph glyph-name="Pi" unicode="&#x3a0;" horiz-adv-x="1357" 
d="M1187 1338v-1338h-163v1191h-691v-1191h-163v1338h1017z" />
    <glyph glyph-name="Rho" unicode="&#x3a1;" horiz-adv-x="1168" 
d="M333 0h-163v1338h371q83 0 153.5 -10t129.5 -31q120 -43 182 -128.5t62 -210.5q0 -102 -40.5 -179.5t-117.5 -129.5t-187.5 -78.5t-250.5 -26.5q-67 0 -139 6v-550zM333 699q33 -4 69 -6t68 -2q115 0 196 18t132 52.5t74 84t23 112.5q0 78 -37.5 128t-106.5 76
q-43 16 -99 22.5t-130 6.5h-189v-492z" />
    <glyph glyph-name="Sigma" unicode="&#x3a3;" horiz-adv-x="1203" 
d="M503 314q-73 -80 -159 -167v-4q143 4 246 4h503v-147h-993v106l552 598v6l-515 528v100h948v-147h-482q-107 0 -206 4v-4q77 -76 151 -152l315 -330z" />
    <glyph glyph-name="Tau" unicode="&#x3a4;" horiz-adv-x="1137" 
d="M650 0h-163v1191h-447v147h1057v-147h-447v-1191z" />
    <glyph glyph-name="Upsilon" unicode="&#x3a5;" horiz-adv-x="1212" 
d="M607 678q23 80 57.5 155.5t80.5 154t102 164.5t123 186h192q-55 -79 -111.5 -157.5t-109.5 -158t-99 -161.5t-80.5 -170t-54.5 -182t-20 -198v-311h-163v311q0 155 -43 290.5t-111.5 259.5t-152.5 241t-167 236h194q65 -98 121 -183.5t101 -165t80 -155.5t58 -156h3z" />
    <glyph glyph-name="Phi" unicode="&#x3a6;" horiz-adv-x="1557" 
d="M698 -67v151q-139 11 -248.5 59t-185 126t-115 182.5t-39.5 227.5q0 124 40.5 228.5t117 183t185.5 126.5t245 58v150h163v-150q139 -10 248 -58t184 -126t114.5 -183t39.5 -229q0 -123 -40.5 -227.5t-116.5 -182.5t-184.5 -126t-244.5 -59v-151h-163zM280 680
q0 -110 32.5 -192t89 -137.5t132.5 -86t164 -37.5v905q-88 -6 -164 -36.5t-132.5 -86.5t-89 -137.5t-32.5 -191.5zM1278 680q0 110 -32.5 191.5t-89 137t-132.5 85.5t-163 37v-904q87 6 163 36.5t132.5 86t89 138t32.5 192.5z" />
    <glyph glyph-name="Chi" unicode="&#x3a7;" horiz-adv-x="1236" 
d="M624 796l370 542h181l-454 -659l475 -679h-183l-392 567h-4l-392 -567h-185l479 683l-450 655h179l372 -542h4z" />
    <glyph glyph-name="Psi" unicode="&#x3a8;" horiz-adv-x="1467" 
d="M815 0h-163v427q-163 7 -268.5 55.5t-166 145.5t-84 246t-23.5 357q0 38 2 107h165q-1 -62 -1 -95q0 -192 17.5 -319t60.5 -203.5t115.5 -110t182.5 -38.5v766h163v-766q110 5 182.5 38.5t115.5 110t60.5 203.5t17.5 319q0 44 -1 95h165q2 -52 2 -107q0 -208 -23.5 -357
t-84 -246t-165.5 -145.5t-269 -55.5v-427z" />
    <glyph glyph-name="uni03A9" unicode="&#x3a9;" horiz-adv-x="1526" 
d="M763 1363q144 0 258.5 -48.5t194.5 -133.5t122.5 -201t42.5 -250q0 -100 -24.5 -186t-65 -158t-92.5 -131t-107 -104v-4h294v-147h-475v112q57 66 110.5 129t95 134t67 156.5t25.5 195.5q0 128 -35.5 220.5t-96.5 152.5t-142 89t-172 29t-172 -28.5t-142 -88.5
t-96.5 -152t-35.5 -219q0 -111 25.5 -197t67 -157.5t95 -134.5t110.5 -129v-112h-475v147h290v4q-59 48 -111 107t-90.5 130.5t-61 156.5t-22.5 185q0 134 42.5 250t122.5 201t194.5 133.5t258.5 48.5z" />
    <glyph glyph-name="Iotadieresis" unicode="&#x3aa;" horiz-adv-x="503" 
d="M170 0v1338h163v-1338h-163zM-18 1448v169h161v-169h-161zM365 1448v169h161v-169h-161zM-96 1338z" />
    <glyph glyph-name="Upsilondieresis" unicode="&#x3ab;" horiz-adv-x="1212" 
d="M607 678q23 80 57.5 155.5t80.5 154t102 164.5t123 186h192q-55 -79 -111.5 -157.5t-109.5 -158t-99 -161.5t-80.5 -170t-54.5 -182t-20 -198v-311h-163v311q0 155 -43 290.5t-111.5 259.5t-152.5 241t-167 236h194q65 -98 121 -183.5t101 -165t80 -155.5t58 -156h3z
M331 1448v169h161v-169h-161zM714 1448v169h161v-169h-161zM253 1338z" />
    <glyph glyph-name="alphatonos" unicode="&#x3ac;" horiz-adv-x="1144" 
d="M1013 -15q-49 0 -88.5 19t-68 51.5t-46.5 73.5t-27 86h-5q-19 -41 -44.5 -83t-63 -77.5t-88.5 -57.5t-119 -22q-73 0 -139.5 30t-117.5 90t-81 151t-30 213q0 139 36 237t91.5 160t122.5 90.5t130 28.5q65 0 116 -20.5t91.5 -55.5t71 -82.5t53.5 -100.5h4q8 28 19 60
t22 63.5t22 60.5t19 50h147q-27 -66 -51.5 -126.5t-45.5 -119t-38 -116.5t-29 -120q0 -99 12 -165.5t33.5 -106.5t51.5 -57.5t66 -17.5q8 0 26 1.5t29 4.5v-133q-18 -4 -39 -6.5t-42 -2.5zM735 515q-12 59 -33.5 117t-53 105t-73.5 76t-95 29q-47 0 -87.5 -25.5t-70 -73.5
t-46.5 -117.5t-17 -157.5q0 -60 11.5 -123.5t36.5 -116.5t66.5 -86.5t101.5 -34.5q60 1 107.5 38.5t79.5 98t50.5 132.5t22.5 139zM788 1473l-219 -349h-136l183 349h172zM243 950z" />
    <glyph glyph-name="epsilontonos" unicode="&#x3ad;" horiz-adv-x="941" 
d="M709 421q-42 3 -89.5 5.5t-110.5 2.5q-125 0 -186 -40t-61 -114q0 -36 16 -67t48.5 -53.5t82 -35t115.5 -12.5q104 0 190.5 22t146.5 51v-131q-51 -29 -140.5 -51.5t-210.5 -22.5q-103 0 -180 21.5t-128 60t-76.5 91t-25.5 115.5q0 50 16.5 89t43.5 68t62 47.5t71 26.5v4
q-30 9 -59 26t-52 43t-36.5 62t-13.5 82q0 59 28 108t80 83.5t126 53.5t166 19q85 0 161 -12t138 -30v-131q-72 18 -141.5 29t-141.5 11q-57 0 -104 -11.5t-80.5 -31.5t-51.5 -47.5t-18 -60.5q0 -29 10.5 -54t35.5 -43t65 -28.5t98 -10.5q68 0 118 1.5t88 5.5v-141z
M798 1473l-219 -349h-136l183 349h172zM253 950z" />
    <glyph glyph-name="etatonos" unicode="&#x3ae;" horiz-adv-x="1145" 
d="M333 818q26 33 58 61.5t71 50t84.5 33.5t97.5 12q34 0 73 -6t77 -20.5t72.5 -39t61 -62t42 -90t15.5 -121.5v-1101h-155v1076q0 62 -17 105.5t-46 71.5t-68 41t-83 13q-82 -1 -152.5 -45t-124.5 -122v-675h-155v704q0 32 -1.5 57t-9 42.5t-23 26.5t-42.5 9q-17 0 -32 -3
t-26 -7v124q17 5 43.5 8.5t46.5 3.5q48 0 81.5 -10t55.5 -28.5t35 -46.5t18 -62h3zM913 1473l-219 -349h-136l183 349h172zM368 950z" />
    <glyph glyph-name="iotatonos" unicode="&#x3af;" horiz-adv-x="535" 
d="M305 234q0 -36 4 -59t14 -36t26.5 -17.5t41.5 -4.5q20 0 47.5 5t41.5 10v-129q-23 -7 -59 -12.5t-72 -5.5q-56 0 -94 13.5t-61.5 40t-33.5 65t-10 88.5v758h155v-716zM530 1473l-219 -349h-136l183 349h172zM-15 950z" />
    <glyph glyph-name="upsilondieresistonos" unicode="&#x3b0;" horiz-adv-x="1117" 
d="M265 1173v163h149v-163h-149zM716 1173v163h149v-163h-149zM681 1473l-83 -349h-119l49 349h153zM213 950zM50 952q18 6 43.5 9.5t49.5 3.5q51 0 88.5 -14.5t61 -43.5t33.5 -70.5t10 -89.5q0 -37 -1.5 -75t-3 -72t-3 -84t-1.5 -93q0 -161 62 -238.5t179 -77.5
q60 0 111 23.5t87.5 71t57 120t20.5 169.5q0 103 -24.5 222.5t-62.5 236.5h163q19 -56 35 -111.5t27.5 -112.5t18 -116t6.5 -124q0 -116 -27.5 -210.5t-83 -161t-138 -103t-193.5 -36.5q-108 0 -184 31t-124 88.5t-70 139t-22 182.5q0 66 5 151t5 165q0 56 -16 78.5
t-56 22.5q-14 0 -28 -2.5t-25 -6.5v128z" />
    <glyph glyph-name="alpha" unicode="&#x3b1;" horiz-adv-x="1149" 
d="M1013 -15q-49 0 -88.5 19t-68 51.5t-46.5 73.5t-27 86h-5q-19 -41 -44.5 -83t-63 -77.5t-88.5 -57.5t-119 -22q-73 0 -139.5 30t-117.5 90t-81 151t-30 213q0 139 36 237t91.5 160t122.5 90.5t130 28.5q65 0 116 -20.5t91.5 -55.5t71 -82.5t53.5 -100.5h4q8 28 19 60
t22 63.5t22 60.5t19 50h147q-27 -66 -51.5 -126.5t-45.5 -119t-38 -116.5t-29 -120q0 -99 12 -165.5t33.5 -106.5t51.5 -57.5t66 -17.5q8 0 26 1.5t29 4.5v-133q-18 -4 -39 -6.5t-42 -2.5zM735 515q-12 59 -33.5 117t-53 105t-73.5 76t-95 29q-47 0 -87.5 -25.5t-70 -73.5
t-46.5 -117.5t-17 -157.5q0 -60 11.5 -123.5t36.5 -116.5t66.5 -86.5t101.5 -34.5q60 1 107.5 38.5t79.5 98t50.5 132.5t22.5 139z" />
    <glyph glyph-name="beta" unicode="&#x3b2;" horiz-adv-x="1128" 
d="M752 774q59 -16 108 -46.5t84 -75.5t54.5 -105.5t19.5 -137.5q0 -92 -28 -171.5t-83 -138t-136 -91.5t-187 -33q-81 0 -147 23.5t-109 64.5h-3v-528h-155v1505q0 101 18 167t52 115.5t81.5 83t105.5 50.5t124 17q83 0 154 -24.5t124 -71.5t83 -117t30 -160
q0 -55 -11 -105t-34 -92t-59 -74t-86 -51v-4zM449 835q45 -3 83 -3q72 0 119.5 22.5t76 60t40 86t11.5 99.5t-14.5 95t-43 76.5t-72 51t-101.5 18.5q-44 0 -84.5 -15.5t-71 -49.5t-49 -87.5t-18.5 -128.5v-854q49 -50 111.5 -74.5t135.5 -24.5t126.5 24t88.5 64.5t52 94
t17 112.5q0 84 -28.5 140t-73 89t-99.5 47t-108 14q-15 0 -40.5 -0.5t-57.5 -2.5v146z" />
    <glyph glyph-name="gamma" unicode="&#x3b3;" horiz-adv-x="992" 
d="M520 -82q3 -106 3 -163v-220h-182q23 173 23 287q0 151 -28.5 304.5t-75 299.5t-104 279.5t-116.5 244.5h172q39 -73 80 -169t78.5 -203.5t67.5 -221t45 -223.5h4q46 88 87.5 180t78.5 192.5t68 210.5t55 234h166q-24 -144 -69.5 -286t-104 -275t-123.5 -252.5
t-125 -218.5z" />
    <glyph glyph-name="delta" unicode="&#x3b4;" horiz-adv-x="1090" 
d="M512 931q-42 35 -81.5 72.5t-71.5 77.5t-51.5 83.5t-19.5 90.5q0 52 21 92.5t60 68.5t95 42.5t126 14.5q52 0 105 -7t103.5 -19t97.5 -27.5t87 -32.5v-142q-97 42 -193.5 69.5t-187.5 27.5q-70 0 -114.5 -20.5t-44.5 -67.5q0 -35 26 -70.5t67.5 -74.5t94.5 -83t107 -95
q49 -46 95 -99.5t82.5 -115.5t58 -134.5t21.5 -154.5q0 -99 -33 -182t-93.5 -143t-145 -93.5t-188.5 -33.5q-99 0 -180.5 30t-139 84.5t-89 132t-31.5 172.5q0 101 34.5 186t92.5 152.5t133.5 117t156.5 77.5v4zM833 432q0 70 -16.5 127.5t-46 106.5t-67.5 91t-83 82
q-72 -24 -138 -63.5t-115.5 -94t-79.5 -124t-30 -155.5q0 -65 20 -119.5t56 -93.5t87 -60.5t114 -21.5q68 0 123 21.5t94 62.5t60.5 102t21.5 139z" />
    <glyph glyph-name="epsilon" unicode="&#x3b5;" horiz-adv-x="941" 
d="M709 421q-42 3 -89.5 5.5t-110.5 2.5q-125 0 -186 -40t-61 -114q0 -36 16 -67t48.5 -53.5t82 -35t115.5 -12.5q104 0 190.5 22t146.5 51v-131q-51 -29 -140.5 -51.5t-210.5 -22.5q-103 0 -180 21.5t-128 60t-76.5 91t-25.5 115.5q0 50 16.5 89t43.5 68t62 47.5t71 26.5v4
q-30 9 -59 26t-52 43t-36.5 62t-13.5 82q0 59 28 108t80 83.5t126 53.5t166 19q85 0 161 -12t138 -30v-131q-72 18 -141.5 29t-141.5 11q-57 0 -104 -11.5t-80.5 -31.5t-51.5 -47.5t-18 -60.5q0 -29 10.5 -54t35.5 -43t65 -28.5t98 -10.5q68 0 118 1.5t88 5.5v-141z" />
    <glyph glyph-name="zeta" unicode="&#x3b6;" horiz-adv-x="921" 
d="M722 1341q-264 -54 -513 -56v138q373 0 682 49v-122q-120 -75 -234 -167.5t-203.5 -199.5t-143.5 -230.5t-54 -261.5q0 -73 22 -123t59 -84.5t85.5 -56t101.5 -37.5q48 -14 92 -26t86.5 -26t79.5 -33t64.5 -47t43.5 -66.5t16 -92.5q0 -84 -28.5 -157t-75.5 -143h-166
q56 80 81 145.5t25 122.5q0 48 -26.5 79t-71.5 51t-102 34.5t-117 32.5q-61 18 -120.5 45.5t-106 74t-75 117.5t-28.5 175q0 139 50 268t135.5 238t199.5 198.5t242 152.5v8z" />
    <glyph glyph-name="eta" unicode="&#x3b7;" horiz-adv-x="1145" 
d="M333 818q26 33 58 61.5t71 50t84.5 33.5t97.5 12q34 0 73 -6t77 -20.5t72.5 -39t61 -62t42 -90t15.5 -121.5v-1101h-155v1076q0 62 -17 105.5t-46 71.5t-68 41t-83 13q-82 -1 -152.5 -45t-124.5 -122v-675h-155v704q0 32 -1.5 57t-9 42.5t-23 26.5t-42.5 9q-17 0 -32 -3
t-26 -7v124q17 5 43.5 8.5t46.5 3.5q48 0 81.5 -10t55.5 -28.5t35 -46.5t18 -62h3z" />
    <glyph glyph-name="theta" unicode="&#x3b8;" horiz-adv-x="1112" 
d="M1007 734q0 -190 -30.5 -332t-88 -237t-141 -142.5t-190.5 -47.5q-109 0 -193.5 44t-142 135t-87 230.5t-29.5 329.5t30.5 332t88 237t141.5 142.5t190 47.5q110 0 194 -44t141.5 -135t87 -230.5t29.5 -329.5zM556 107q135 0 206.5 144t77.5 428h-569q5 -287 77 -429.5
t208 -142.5zM556 1341q-130 0 -201 -133.5t-82 -395.5h566q-18 529 -283 529z" />
    <glyph glyph-name="iota" unicode="&#x3b9;" horiz-adv-x="535" 
d="M305 234q0 -36 4 -59t14 -36t26.5 -17.5t41.5 -4.5q20 0 47.5 5t41.5 10v-129q-23 -7 -59 -12.5t-72 -5.5q-56 0 -94 13.5t-61.5 40t-33.5 65t-10 88.5v758h155v-716z" />
    <glyph glyph-name="kappa" unicode="&#x3ba;" horiz-adv-x="1066" 
d="M150 0v950h155v-444l409 366q53 48 115 75t147 27v-138q-31 0 -59 -8t-53.5 -21t-48 -30.5t-43.5 -35.5l-217 -189l471 -552h-201l-380 456l-140 -122v-334h-155z" />
    <glyph glyph-name="lambda" unicode="&#x3bb;" horiz-adv-x="996" 
d="M202 1473q71 0 123 -25.5t91 -72.5t70.5 -115t62.5 -152l402 -1108h-170l-179 514q-45 130 -72 221h-4q-34 -93 -89 -220l-224 -515h-173l416 925q-37 107 -67 185t-61.5 129t-68 76t-86.5 25q-26 0 -54 -6t-44 -11v126q22 9 58 16.5t69 7.5z" />
    <glyph glyph-name="uni03BC" unicode="&#x3bc;" horiz-adv-x="1180" 
d="M846 144q-52 -94 -132 -131.5t-180 -37.5q-72 0 -130 26t-90 71h-4l4 -362l1 -175h-155v1415h155v-589q0 -66 15.5 -113.5t44.5 -77.5t70.5 -44.5t93.5 -14.5q66 0 119 21t90.5 63.5t57.5 107t20 151.5v496h155v-638q0 -60 6 -99t18 -61.5t30.5 -31.5t43.5 -9
q6 0 20.5 1.5t25.5 4.5v-123q-17 -4 -39 -6.5t-39 -2.5q-46 0 -79.5 11.5t-57 32t-38 50t-22.5 65.5h-4z" />
    <glyph glyph-name="nu" unicode="&#x3bd;" horiz-adv-x="968" 
d="M883 950q-1 -157 -31.5 -285t-82 -240.5t-119.5 -215.5t-143 -209h-124q-36 119 -76 242t-82 244.5t-86 238.5t-89 225h167q36 -86 71.5 -181t68 -193.5t62 -197.5t53.5 -194h4q44 60 87 142t77.5 179t55.5 204.5t21 218.5v22h166z" />
    <glyph glyph-name="xi" unicode="&#x3be;" horiz-adv-x="893" 
d="M421 742q-53 8 -97.5 24.5t-77 44t-50.5 68.5t-18 98q0 72 31.5 130t88.5 104t135.5 81t172.5 61l-2 6q-301 -44 -429 -46v135q379 0 677 24v-124q-114 -30 -208 -64.5t-161.5 -77.5t-105 -95.5t-37.5 -117.5q0 -60 36.5 -96.5t93 -54.5t129 -23.5t137.5 -5.5q13 0 52 1
v-123h-26q-53 0 -113 -7.5t-114 -23t-104 -41t-86.5 -59.5t-57.5 -77t-21 -94q0 -58 24 -94t63.5 -58t91 -35t105.5 -24q40 -8 80 -17.5t76.5 -23t67.5 -32.5t54.5 -47.5t36.5 -67.5t13 -92q0 -76 -28.5 -152.5t-75.5 -146.5h-164q57 82 80.5 150.5t23.5 125.5
q0 46 -21.5 75.5t-59.5 48.5t-85.5 30.5t-99.5 22.5q-61 13 -122.5 30.5t-110.5 51t-79.5 88.5t-30.5 142q0 81 26.5 141.5t70.5 105.5t101 76t118 51v4z" />
    <glyph glyph-name="omicron" unicode="&#x3bf;" horiz-adv-x="1092" 
d="M835 474q0 88 -21.5 156.5t-60 116t-91.5 72t-116 24.5t-116 -24.5t-91.5 -72t-60 -116t-21.5 -156.5q0 -87 21.5 -155.5t60.5 -115.5t92 -71.5t116 -24.5t115.5 24.5t91 71.5t60 115.5t21.5 155.5zM997 474q0 -112 -32 -204t-90.5 -157.5t-141.5 -101.5t-186 -36
q-106 0 -189.5 36t-142 101.5t-89.5 157.5t-31 204q0 113 32 205t90.5 158t142 102t186.5 36q105 0 189 -36t142 -102t89 -158t31 -205z" />
    <glyph glyph-name="pi" unicode="&#x3c0;" horiz-adv-x="1178" 
d="M399 817v-817h-154v817h-190v133h1068v-133h-182v-545q0 -39 1.5 -68.5t9.5 -48.5t25.5 -28.5t49.5 -9.5q12 0 27.5 1.5t26.5 4.5v-129q-17 -4 -40 -6.5t-52 -2.5q-58 0 -97 14t-62.5 41t-33.5 65.5t-10 86.5v625h-387z" />
    <glyph glyph-name="rho" unicode="&#x3c1;" horiz-adv-x="1104" 
d="M852 484q0 86 -20 153t-56.5 112.5t-85.5 69t-108 23.5q-54 0 -102 -21.5t-85 -71.5t-58.5 -132t-21.5 -204v-186q40 -54 104.5 -87t145.5 -33q51 0 102 20t92.5 65t67 118t25.5 174zM160 425q0 115 19 201t51.5 147t74 100t88 62t93 31.5t87.5 8.5q110 0 193 -39
t137.5 -105.5t82.5 -156.5t28 -192q0 -94 -19 -168t-51.5 -130t-76 -96t-92 -65t-100 -36.5t-99.5 -11.5t-88.5 9.5t-73.5 25t-58 35t-43 38.5h-4q2 -46 4 -93.5t2 -104.5v-350h-155v890z" />
    <glyph glyph-name="sigma1" unicode="&#x3c2;" horiz-adv-x="849" 
d="M252 494q0 -79 21 -132t56 -87.5t80 -55.5t93 -38q53 -18 104 -36.5t92 -48t66 -77t25 -123.5q0 -77 -28.5 -152t-75.5 -145h-169q56 80 82.5 151.5t26.5 128.5q-1 46 -19.5 73.5t-50 46.5t-74.5 34.5t-90 31.5q-36 13 -72.5 28.5t-69.5 38t-62.5 53.5t-50.5 73.5
t-33.5 99t-12.5 129.5q0 133 39 227.5t102.5 152t141 83t157.5 25.5q69 0 132 -14.5t108 -38.5v-130q-63 24 -115.5 36.5t-110.5 13.5q-56 0 -109.5 -18.5t-94 -60t-64.5 -107.5t-24 -162z" />
    <glyph glyph-name="sigma" unicode="&#x3c3;" horiz-adv-x="1132" 
d="M577 817q-84 0 -145 -26t-101.5 -73.5t-60 -114.5t-19.5 -150q0 -82 21.5 -146.5t59.5 -108.5t90 -67t113 -23q132 0 204 89t72 252q0 66 -15 120.5t-40 99.5t-57 81.5t-66 66.5h-56zM931 817q-29 0 -63 1t-60 3v-4q32 -25 62.5 -63t53.5 -86.5t37 -107t14 -123.5
q0 -96 -29 -180.5t-86 -147t-140 -98t-191 -36.5q-100 0 -181.5 35.5t-138.5 99.5t-88 154t-31 198q0 44 8 94.5t27 102t50 100.5t76 88q55 48 135 75.5t196 27.5h500v-133h-151z" />
    <glyph glyph-name="tau" unicode="&#x3c4;" horiz-adv-x="905" 
d="M50 950h805v-133h-365v-564q0 -33 5 -60t20 -46.5t42.5 -30t72.5 -10.5q44 0 104 12v-124q-19 -7 -56 -13t-82 -6q-75 0 -125 17t-80 49t-42.5 77t-12.5 102v597h-286v133z" />
    <glyph glyph-name="upsilon" unicode="&#x3c5;" horiz-adv-x="1117" 
d="M50 952q18 6 43.5 9.5t49.5 3.5q51 0 88.5 -14.5t61 -43.5t33.5 -70.5t10 -89.5q0 -37 -1.5 -75t-3 -72t-3 -84t-1.5 -93q0 -161 62 -238.5t179 -77.5q60 0 111 23.5t87.5 71t57 120t20.5 169.5q0 103 -24.5 222.5t-62.5 236.5h163q19 -56 35 -111.5t27.5 -112.5t18 -116
t6.5 -124q0 -116 -27.5 -210.5t-83 -161t-138 -103t-193.5 -36.5q-108 0 -184 31t-124 88.5t-70 139t-22 182.5q0 66 5 151t5 165q0 56 -16 78.5t-56 22.5q-14 0 -28 -2.5t-25 -6.5v128z" />
    <glyph glyph-name="phi" unicode="&#x3c6;" horiz-adv-x="1388" 
d="M617 -465v429q-118 9 -215.5 50.5t-166.5 109t-107 157t-38 193.5t37 194.5t105.5 159t166 111.5t218.5 52v457h154v-457q119 -9 216 -51.5t166 -111t107 -158.5t38 -194t-37 -194t-106 -157.5t-166.5 -109.5t-217.5 -51v-429h-154zM1138 476q0 81 -28 148t-77 116.5
t-116.5 80t-145.5 38.5v-764q78 8 145.5 38t116.5 79t77 115.5t28 148.5zM250 474q0 -81 28 -147.5t77 -115.5t116.5 -78.5t145.5 -37.5v764q-78 -8 -145.5 -39t-116.5 -80.5t-77 -117t-28 -148.5z" />
    <glyph glyph-name="chi" unicode="&#x3c7;" horiz-adv-x="984" 
d="M498 431q21 42 46 91.5t48 91.5l193 336h169l-403 -685q37 -173 72 -291t73.5 -190t83 -103.5t100.5 -31.5q20 0 45 3v-127q-15 -5 -34 -7t-38 -2q-75 0 -135.5 36t-109.5 109.5t-88.5 186.5t-73.5 268h-4q-18 -37 -40 -82t-43 -81l-240 -418h-169l439 748
q-35 159 -67.5 265.5t-68.5 170t-78.5 90.5t-96.5 27q-19 0 -45 -3v127q15 5 33.5 7t38.5 2q72 0 129.5 -31t104 -96t84.5 -167t71 -244h4z" />
    <glyph glyph-name="psi" unicode="&#x3c8;" horiz-adv-x="1433" 
d="M794 -465h-155v436q-110 6 -192.5 32t-141 73t-96.5 117t-60.5 166t-31 219t-8.5 275q0 52 2 97h160q-1 -69 -1 -80q0 -143 7 -254t24 -194.5t44.5 -141.5t68.5 -95t96.5 -55.5t128.5 -22.5v1137h155v-1137q73 4 128.5 22.5t96.5 55.5t68.5 95t44.5 141.5t24 194.5t7 254
q0 14 -1 80h160q2 -59 2 -97q0 -152 -8.5 -275t-31 -219t-60.5 -166t-96.5 -117.5t-141 -73t-192.5 -31.5v-436z" />
    <glyph glyph-name="omega" unicode="&#x3c9;" horiz-adv-x="1562" 
d="M780 211q-9 -26 -28.5 -66t-56.5 -78t-94.5 -65t-140.5 -27q-78 0 -142.5 32t-110.5 91.5t-71.5 145t-25.5 193.5q0 85 12.5 157t32.5 134.5t46 117t54 104.5h169q-30 -56 -57.5 -111.5t-48.5 -116.5t-33.5 -129t-12.5 -148q0 -67 12 -128t37 -107.5t62.5 -74.5t89.5 -28
q49 0 91 23t72.5 68t48 111t17.5 153q0 41 -1 96t-6 114h172q-4 -59 -5 -114t-1 -85q0 -91 17 -160.5t47 -114.5t70 -68t86 -23q55 0 94.5 28t65 74.5t37.5 108.5t12 129q0 80 -12.5 147.5t-33.5 128t-48.5 116t-57.5 111.5h169q28 -50 54 -104.5t46.5 -117t32.5 -134.5
t12 -157q0 -108 -25.5 -193.5t-71.5 -145t-110.5 -91.5t-146.5 -32q-79 1 -136 27t-94 64.5t-56.5 78.5t-28.5 66h-3z" />
    <glyph glyph-name="iotadieresis" unicode="&#x3ca;" horiz-adv-x="535" 
d="M305 234q0 -36 4 -59t14 -36t26.5 -17.5t41.5 -4.5q20 0 47.5 5t41.5 10v-129q-23 -7 -59 -12.5t-72 -5.5q-56 0 -94 13.5t-61.5 40t-33.5 65t-10 88.5v758h155v-716zM-34 1171v167h159v-167h-159zM347 1171v167h159v-167h-159zM-114 950z" />
    <glyph glyph-name="upsilondieresis" unicode="&#x3cb;" horiz-adv-x="1117" 
d="M275 1171v167h159v-167h-159zM656 1171v167h159v-167h-159zM195 950zM50 952q18 6 43.5 9.5t49.5 3.5q51 0 88.5 -14.5t61 -43.5t33.5 -70.5t10 -89.5q0 -37 -1.5 -75t-3 -72t-3 -84t-1.5 -93q0 -161 62 -238.5t179 -77.5q60 0 111 23.5t87.5 71t57 120t20.5 169.5
q0 103 -24.5 222.5t-62.5 236.5h163q19 -56 35 -111.5t27.5 -112.5t18 -116t6.5 -124q0 -116 -27.5 -210.5t-83 -161t-138 -103t-193.5 -36.5q-108 0 -184 31t-124 88.5t-70 139t-22 182.5q0 66 5 151t5 165q0 56 -16 78.5t-56 22.5q-14 0 -28 -2.5t-25 -6.5v128z" />
    <glyph glyph-name="omicrontonos" unicode="&#x3cc;" horiz-adv-x="1092" 
d="M835 474q0 88 -21.5 156.5t-60 116t-91.5 72t-116 24.5t-116 -24.5t-91.5 -72t-60 -116t-21.5 -156.5q0 -87 21.5 -155.5t60.5 -115.5t92 -71.5t116 -24.5t115.5 24.5t91 71.5t60 115.5t21.5 155.5zM997 474q0 -112 -32 -204t-90.5 -157.5t-141.5 -101.5t-186 -36
q-106 0 -189.5 36t-142 101.5t-89.5 157.5t-31 204q0 113 32 205t90.5 158t142 102t186.5 36q105 0 189 -36t142 -102t89 -158t31 -205zM836 1473l-219 -349h-136l183 349h172zM291 950z" />
    <glyph glyph-name="upsilontonos" unicode="&#x3cd;" horiz-adv-x="1117" 
d="M821 1473l-219 -349h-136l183 349h172zM276 950zM50 952q18 6 43.5 9.5t49.5 3.5q51 0 88.5 -14.5t61 -43.5t33.5 -70.5t10 -89.5q0 -37 -1.5 -75t-3 -72t-3 -84t-1.5 -93q0 -161 62 -238.5t179 -77.5q60 0 111 23.5t87.5 71t57 120t20.5 169.5q0 103 -24.5 222.5
t-62.5 236.5h163q19 -56 35 -111.5t27.5 -112.5t18 -116t6.5 -124q0 -116 -27.5 -210.5t-83 -161t-138 -103t-193.5 -36.5q-108 0 -184 31t-124 88.5t-70 139t-22 182.5q0 66 5 151t5 165q0 56 -16 78.5t-56 22.5q-14 0 -28 -2.5t-25 -6.5v128z" />
    <glyph glyph-name="omegatonos" unicode="&#x3ce;" horiz-adv-x="1562" 
d="M780 211q-9 -26 -28.5 -66t-56.5 -78t-94.5 -65t-140.5 -27q-78 0 -142.5 32t-110.5 91.5t-71.5 145t-25.5 193.5q0 85 12.5 157t32.5 134.5t46 117t54 104.5h169q-30 -56 -57.5 -111.5t-48.5 -116.5t-33.5 -129t-12.5 -148q0 -67 12 -128t37 -107.5t62.5 -74.5t89.5 -28
q49 0 91 23t72.5 68t48 111t17.5 153q0 41 -1 96t-6 114h172q-4 -59 -5 -114t-1 -85q0 -91 17 -160.5t47 -114.5t70 -68t86 -23q55 0 94.5 28t65 74.5t37.5 108.5t12 129q0 80 -12.5 147.5t-33.5 128t-48.5 116t-57.5 111.5h169q28 -50 54 -104.5t46.5 -117t32.5 -134.5
t12 -157q0 -108 -25.5 -193.5t-71.5 -145t-110.5 -91.5t-146.5 -32q-79 1 -136 27t-94 64.5t-56.5 78.5t-28.5 66h-3zM1067 1473l-219 -349h-136l183 349h172zM522 950z" />
    <glyph glyph-name="uni0400" unicode="&#x400;" horiz-adv-x="1129" 
d="M333 147h686v-147h-849v1338h812v-147h-649v-432h577v-147h-577v-465zM513 1656l146 -247h-139l-181 247h174zM188 1338z" />
    <glyph glyph-name="uni0401" unicode="&#x401;" horiz-adv-x="1129" 
d="M333 147h686v-147h-849v1338h812v-147h-649v-432h577v-147h-577v-465zM301 1448v169h161v-169h-161zM684 1448v169h161v-169h-161zM223 1338z" />
    <glyph glyph-name="uni0402" unicode="&#x402;" horiz-adv-x="1521" 
d="M1416 396q0 -96 -34.5 -173t-99.5 -131t-157.5 -83t-208.5 -29q-25 0 -45 2v150q26 -2 46 -2q84 0 145.5 19.5t102 54.5t60 83.5t19.5 105.5q0 92 -51.5 154t-168.5 90q-44 11 -97.5 15t-116.5 4q-99 -2 -181 -10v-646h-163v1191h-426v147h1109v-147h-520v-398
q71 5 114.5 6.5t64.5 1.5q82 0 152.5 -6.5t129.5 -20.5q85 -21 146.5 -56t101.5 -83t59 -108t19 -131z" />
    <glyph glyph-name="uni0403" unicode="&#x403;" horiz-adv-x="1062" 
d="M170 0v1338h852v-147h-689v-1191h-163zM843 1656l-181 -247h-139l146 247h174zM373 1338z" />
    <glyph glyph-name="uni0404" unicode="&#x404;" horiz-adv-x="1179" 
d="M776 1218q-98 0 -182 -29.5t-147.5 -87.5t-103 -143.5t-47.5 -198.5h688v-147h-690q1 -121 35.5 -213t98 -154t154 -93.5t204.5 -31.5q34 0 73.5 3.5t78.5 10t76 15t65 18.5v-144q-59 -23 -141.5 -35.5t-167.5 -12.5q-165 0 -287 47.5t-202.5 136t-120.5 214.5t-40 283
q0 154 42 283.5t124 223.5t203.5 147t279.5 53q41 0 83 -3.5t81 -10t72.5 -15.5t56.5 -19v-144q-60 20 -135.5 33.5t-150.5 13.5z" />
    <glyph glyph-name="uni0405" unicode="&#x405;" horiz-adv-x="1130" 
d="M294 984q0 -59 24 -97.5t64.5 -63.5t94 -41t111.5 -30q78 -19 153.5 -42t134.5 -63.5t95.5 -105.5t36.5 -167q0 -104 -38.5 -179.5t-107 -124t-163.5 -72t-208 -23.5q-52 0 -106.5 6.5t-104 17.5t-89.5 25t-63 28v149q36 -18 81 -33t93 -25.5t97 -16.5t92 -6
q70 0 133.5 12t111.5 40t76 76.5t28 121.5q0 60 -24.5 99t-65.5 64.5t-94.5 41.5t-112.5 30q-78 18 -152.5 40.5t-133 62.5t-94 103t-35.5 161q0 102 36 175.5t98 121.5t145 71t177 23q107 0 199.5 -20.5t169.5 -53.5v-151q-83 35 -171.5 57t-189.5 23q-76 0 -132 -16.5
t-93 -47t-55 -74t-18 -96.5z" />
    <glyph glyph-name="uni0406" unicode="&#x406;" horiz-adv-x="503" 
d="M170 0v1338h163v-1338h-163z" />
    <glyph glyph-name="uni0407" unicode="&#x407;" horiz-adv-x="503" 
d="M170 0v1338h163v-1338h-163zM-13 1448v169h161v-169h-161zM370 1448v169h161v-169h-161zM-91 1338z" />
    <glyph glyph-name="uni0408" unicode="&#x408;" horiz-adv-x="767" 
d="M439 1338h163v-1031q0 -83 -25 -145t-71.5 -103.5t-111.5 -62.5t-146 -21q-69 1 -116.5 11.5t-71.5 21.5v144q37 -15 80.5 -23.5t93.5 -8.5q45 0 83 10t65 34t42 64t15 99v1011z" />
    <glyph glyph-name="uni0409" unicode="&#x409;" horiz-adv-x="2036" 
d="M1174 803q52 4 85 5.5t101 2.5q69 0 133 -5.5t121 -19.5q82 -21 141.5 -55.5t98.5 -81t58 -104t19 -124.5q0 -52 -14.5 -109.5t-51 -111t-98.5 -98t-156 -71.5q-53 -15 -122.5 -23t-169.5 -8h-308v1191h-337q-37 -264 -77 -456.5t-83.5 -326.5t-90.5 -217t-98 -127.5
t-109 -61.5t-122 -17q-38 0 -64 6v159q21 -3 41 -3q30 0 56 4.5t53.5 20t57.5 48t60 90t60.5 144.5t60.5 211t59.5 290.5t57.5 382.5h638v-535zM1174 147h163q91 0 161.5 12.5t117.5 34.5t75.5 50t43.5 59t19.5 61t4.5 54q0 40 -11 75.5t-36 65t-63 51.5t-93 36
q-42 11 -93.5 15t-113.5 4q-75 -2 -103.5 -3.5t-71.5 -5.5v-509z" />
    <glyph glyph-name="uni040A" unicode="&#x40a;" horiz-adv-x="1967" 
d="M1105 664v-517h165q95 0 163 13t114.5 34.5t75 49.5t43.5 58.5t19.5 60.5t4.5 55q0 79 -44 136.5t-144 86.5q-44 12 -102.5 17.5t-144.5 5.5h-150zM1273 811q91 0 163 -7t130 -24q77 -22 133 -56.5t92 -80t53.5 -101.5t17.5 -121q0 -49 -12.5 -102.5t-43.5 -104.5
t-84 -94.5t-133 -73.5q-59 -22 -140 -34t-203 -12h-304v664h-609v-664h-163v1338h163v-527h609v527h163v-527h168z" />
    <glyph glyph-name="uni040B" unicode="&#x40b;" horiz-adv-x="1527" 
d="M40 1191v147h1109v-147h-520v-441q89 29 164.5 44t172.5 17q97 0 166 -19.5t116.5 -55.5t74.5 -87t40 -113q8 -41 11 -88t3 -101v-347h-163v349q0 50 -2.5 88.5t-10.5 69.5q-20 81 -78.5 120t-173.5 39q-82 -1 -164 -19t-156 -46v-601h-163v1191h-426z" />
    <glyph glyph-name="uni040C" unicode="&#x40c;" horiz-adv-x="1239" 
d="M170 0v1338h163v-661h2l615 661h201l-624 -666l672 -672h-212l-652 655h-2v-655h-163zM855 1656l-181 -247h-139l146 247h174zM385 1338z" />
    <glyph glyph-name="uni040D" unicode="&#x40d;" horiz-adv-x="1426" 
d="M1092 1338h164v-1338h-163v605q0 332 13 505h-6q-89 -145 -241 -364l-525 -746h-164v1338h163v-676q0 -257 -13 -434h6q86 140 241 364zM655 1656l146 -247h-139l-181 247h174zM330 1338z" />
    <glyph glyph-name="uni040E" unicode="&#x40e;" horiz-adv-x="1208" 
d="M247 -25q-55 0 -107 11v155q22 -5 47.5 -7.5t54.5 -2.5q53 0 95 11t79 40.5t69.5 80t66.5 129.5l-512 946h182l411 -780h6l349 780h180l-462 -997q-49 -105 -96.5 -175.5t-101.5 -112.5t-117.5 -60t-143.5 -18zM605 1654q92 0 153.5 56.5t78.5 172.5h150
q-7 -76 -34 -141.5t-74.5 -113.5t-116 -75t-159.5 -27t-158.5 27t-114 75t-72.5 113.5t-33 141.5h150q17 -116 77.5 -172.5t152.5 -56.5zM151 1338z" />
    <glyph glyph-name="uni040F" unicode="&#x40f;" horiz-adv-x="1340" 
d="M752 0v-443h-163v443h-419v1338h163v-1191h674v1191h163v-1338h-418z" />
    <glyph glyph-name="uni0410" unicode="&#x410;" horiz-adv-x="1301" 
d="M35 0l545 1338h141l545 -1338h-177l-160 403h-559l-160 -403h-175zM649 1130q-89 -250 -171 -454l-50 -126h443l-50 126q-82 208 -168 454h-4z" />
    <glyph glyph-name="uni0411" unicode="&#x411;" horiz-adv-x="1230" 
d="M508 811q162 0 278 -27t190.5 -77t109 -122.5t34.5 -163.5q0 -48 -10.5 -97.5t-37.5 -96.5t-73 -88t-116.5 -72t-168 -49t-228.5 -18h-316v1338h865v-147h-702v-388q12 1 31 2.5t42.5 2.5t49.5 2t52 1zM333 147h170q102 0 174 12.5t121.5 34t78.5 49t44.5 57.5t20.5 60.5
t6 57.5q0 59 -24 105.5t-76.5 78t-136.5 48t-203 16.5q-37 -1 -59.5 -1.5t-39.5 -1.5t-33.5 -2.5t-42.5 -4.5v-509z" />
    <glyph glyph-name="uni0412" unicode="&#x412;" horiz-adv-x="1215" 
d="M830 692q62 -9 111.5 -33t85 -61.5t54.5 -89t19 -117.5q0 -47 -14 -98.5t-46.5 -100t-85 -89.5t-130.5 -67q-60 -20 -133 -28t-175 -8h-346v1338h334q46 0 83.5 -1.5t69 -4.5t58.5 -7.5t51 -10.5q63 -17 114.5 -46.5t87.5 -70.5t55.5 -93t19.5 -113q0 -49 -11.5 -94
t-37 -83t-66 -68t-98.5 -50v-4zM581 759q48 0 83 4.5t63 13.5q75 25 109.5 78t34.5 125q0 74 -36 121t-113 70q-38 11 -88 15.5t-118 4.5h-183v-432h248zM333 612v-465h197q70 0 130 6.5t102 20.5q46 15 78 38.5t51.5 52t28 60.5t8.5 65q0 38 -9 71.5t-29.5 60t-54 46.5
t-83.5 31q-30 7 -68.5 10t-95.5 3h-255z" />
    <glyph glyph-name="uni0413" unicode="&#x413;" horiz-adv-x="1042" 
d="M160 0v1338h852v-147h-689v-1191h-163z" />
    <glyph glyph-name="uni0414" unicode="&#x414;" horiz-adv-x="1516" 
d="M743 1191q-21 -174 -58.5 -319t-88 -270.5t-113.5 -235.5t-135 -215v-4h712v1044h-317zM155 147q83 107 155.5 229t130.5 267t100 317t63 378h619v-1191h163v-590h-163v443h-970v-443h-163v590h65z" />
    <glyph glyph-name="uni0415" unicode="&#x415;" horiz-adv-x="1129" 
d="M333 147h686v-147h-849v1338h812v-147h-649v-432h577v-147h-577v-465z" />
    <glyph glyph-name="uni0416" unicode="&#x416;" horiz-adv-x="1799" 
d="M981 0h-163v655l-572 -655h-206l590 671l-542 667h197l533 -661v661h163v-661l533 661h197l-542 -667l590 -671h-206l-572 655v-655z" />
    <glyph glyph-name="uni0417" unicode="&#x417;" horiz-adv-x="1093" 
d="M117 1281q29 15 68 29.5t86.5 26t102.5 19t115 7.5q110 0 195.5 -25t143.5 -72.5t88 -115.5t30 -155q0 -63 -17.5 -112t-47.5 -85.5t-70 -62t-84 -40.5v-6q54 -12 101.5 -35t83 -60t56 -88.5t20.5 -120.5q0 -84 -30.5 -159t-96 -130.5t-167.5 -88t-245 -32.5
q-109 0 -199.5 20.5t-159.5 58.5v143q70 -35 157 -56t183 -21q191 0 288.5 69.5t97.5 198.5q0 107 -81.5 165.5t-252.5 58.5h-151v147h136q89 0 148 17t94.5 47.5t50 72t14.5 90.5q0 51 -18 94t-56 73.5t-96.5 47.5t-140.5 17q-95 0 -177.5 -20.5t-168.5 -54.5v138z" />
    <glyph glyph-name="uni0418" unicode="&#x418;" horiz-adv-x="1426" 
d="M1092 1338h164v-1338h-163v605q0 332 13 505h-6q-89 -145 -241 -364l-525 -746h-164v1338h163v-676q0 -257 -13 -434h6q86 140 241 364z" />
    <glyph glyph-name="uni0419" unicode="&#x419;" horiz-adv-x="1426" 
d="M1092 1338h164v-1338h-163v605q0 332 13 505h-6q-89 -145 -241 -364l-525 -746h-164v1338h163v-676q0 -257 -13 -434h6q86 140 241 364zM737 1654q92 0 153.5 56.5t78.5 172.5h150q-7 -76 -34 -141.5t-74.5 -113.5t-116 -75t-159.5 -27t-158.5 27t-114 75t-72.5 113.5
t-33 141.5h150q17 -116 77.5 -172.5t152.5 -56.5zM283 1338z" />
    <glyph glyph-name="uni041A" unicode="&#x41a;" horiz-adv-x="1239" 
d="M170 0v1338h163v-661h2l615 661h201l-624 -666l672 -672h-212l-652 655h-2v-655h-163z" />
    <glyph glyph-name="uni041B" unicode="&#x41b;" horiz-adv-x="1344" 
d="M674 1191q-37 -264 -77 -456.5t-83.5 -326.5t-90.5 -217t-99.5 -128.5t-110.5 -61.5t-123 -16q-17 0 -33 1.5t-27 4.5v159q21 -3 41 -3q26 0 53 4t55.5 20t58.5 48.5t60 90t60.5 144.5t60.5 211t59.5 290.5t57.5 382.5h638v-1338h-163v1191h-337z" />
    <glyph glyph-name="uni041C" unicode="&#x41c;" horiz-adv-x="1683" 
d="M879 0h-75l-337 799q-70 165 -140 359h-8q14 -279 14 -511v-647h-163v1338h235l315 -757q54 -130 119 -313h5q72 203 119 313l315 757h235v-1338h-163v647q0 227 14 511h-8q-74 -205 -140 -359z" />
    <glyph glyph-name="uni041D" unicode="&#x41d;" horiz-adv-x="1367" 
d="M333 759h701v579h163v-1338h-163v612h-701v-612h-163v1338h163v-579z" />
    <glyph glyph-name="uni041E" unicode="&#x41e;" horiz-adv-x="1496" 
d="M1204 668q0 135 -35 238t-96.5 172t-145 104.5t-179.5 35.5t-179.5 -35.5t-145 -104.5t-96.5 -172t-35 -238t35.5 -237.5t97 -171.5t145 -104t180.5 -35q96 0 178.5 35t144 104t96.5 171.5t35 237.5zM1376 668q0 -152 -44 -279t-126 -219t-197.5 -143.5t-258.5 -51.5
q-148 0 -265 51.5t-198 143.5t-124 219t-43 279q0 153 44.5 280.5t126 219.5t197.5 143.5t260 51.5q147 0 263.5 -51.5t197.5 -143.5t124 -219.5t43 -280.5z" />
    <glyph glyph-name="uni041F" unicode="&#x41f;" horiz-adv-x="1355" 
d="M1185 1338v-1338h-166v1182h-683v-1182h-166v1338h1015z" />
    <glyph glyph-name="uni0420" unicode="&#x420;" horiz-adv-x="1168" 
d="M333 0h-163v1338h371q83 0 153.5 -10t129.5 -31q120 -43 182 -128.5t62 -210.5q0 -102 -40.5 -179.5t-117.5 -129.5t-187.5 -78.5t-250.5 -26.5q-67 0 -139 6v-550zM333 699q33 -4 69 -6t68 -2q115 0 196 18t132 52.5t74 84t23 112.5q0 78 -37.5 128t-106.5 76
q-43 16 -99 22.5t-130 6.5h-189v-492z" />
    <glyph glyph-name="uni0421" unicode="&#x421;" horiz-adv-x="1207" 
d="M820 1218q-111 0 -207.5 -35.5t-167.5 -106t-112 -175t-41 -243.5q0 -138 38 -239.5t108 -168t168.5 -98.5t219.5 -32q33 0 70 3.5t74.5 10t73 15t63.5 18.5v-144q-59 -23 -137 -35.5t-160 -12.5q-167 0 -296 46.5t-216.5 133.5t-132.5 212.5t-45 284.5q0 156 47.5 287
t137 225t217 146.5t286.5 52.5q42 0 83 -3.5t78.5 -10t69.5 -15.5t55 -19v-144q-60 20 -131 33.5t-143 13.5z" />
    <glyph glyph-name="uni0422" unicode="&#x422;" horiz-adv-x="1137" 
d="M650 0h-163v1191h-447v147h1057v-147h-447v-1191z" />
    <glyph glyph-name="uni0423" unicode="&#x423;" horiz-adv-x="1208" 
d="M247 -25q-55 0 -107 11v155q22 -5 47.5 -7.5t54.5 -2.5q53 0 95 11t79 40.5t69.5 80t66.5 129.5l-512 946h182l411 -780h6l349 780h180l-462 -997q-49 -105 -96.5 -175.5t-101.5 -112.5t-117.5 -60t-143.5 -18z" />
    <glyph glyph-name="uni0424" unicode="&#x424;" horiz-adv-x="1531" 
d="M687 -107v181q-142 10 -250 58t-181 126t-109.5 183t-36.5 228q0 124 38 229t111.5 183.5t181 126.5t246.5 57v180h159v-180q142 -9 249.5 -57t180 -126.5t109 -183.5t36.5 -229q0 -123 -38 -228t-111 -183.5t-180.5 -126.5t-245.5 -57v-181h-159zM276 670
q0 -110 30.5 -192t85 -138t130 -87t165.5 -38v909q-90 -7 -165.5 -37.5t-130 -86.5t-85 -138t-30.5 -192zM1256 670q0 109 -30.5 191t-85 138t-129.5 87t-165 38v-910q89 7 164.5 37.5t130 87t85 139t30.5 192.5z" />
    <glyph glyph-name="uni0425" unicode="&#x425;" horiz-adv-x="1236" 
d="M624 796l370 542h181l-454 -659l475 -679h-183l-392 567h-4l-392 -567h-185l479 683l-450 655h179l372 -542h4z" />
    <glyph glyph-name="uni0426" unicode="&#x426;" horiz-adv-x="1454" 
d="M1151 0h-981v1338h163v-1191h655v1191h163v-1191h163v-590h-163v443z" />
    <glyph glyph-name="uni0427" unicode="&#x427;" horiz-adv-x="1263" 
d="M930 0v571q-92 -27 -154 -38.5t-112.5 -17t-100.5 -5.5q-123 0 -203 34t-126.5 95t-65 144.5t-18.5 182.5v372h163v-376q0 -78 13 -135.5t44.5 -95.5t83.5 -57t130 -19q43 0 91.5 5.5t114 19t140.5 40.5v618h163v-1338h-163z" />
    <glyph glyph-name="uni0428" unicode="&#x428;" horiz-adv-x="1875" 
d="M1705 0h-1535v1338h163v-1191h523v1191h163v-1191h523v1191h163v-1338z" />
    <glyph glyph-name="uni0429" unicode="&#x429;" horiz-adv-x="1988" 
d="M1009 1338v-1191h513v1191h163v-1191h163v-590h-163v443h-1515v1338h163v-1191h513v1191h163z" />
    <glyph glyph-name="uni042A" unicode="&#x42a;" horiz-adv-x="1418" 
d="M546 147h165q97 0 167 12.5t118 34t76.5 49t43.5 57.5t20 60.5t5 57.5q0 42 -11.5 78t-36.5 65t-64.5 51t-95.5 35q-43 10 -96 14.5t-116 4.5q-22 0 -46.5 -1t-47.5 -2.5t-81 -6.5v-509zM546 803q53 4 74.5 5t49.5 2t51 1q74 0 138 -5t118 -17q177 -39 256.5 -134
t79.5 -234q0 -54 -14.5 -112t-51 -111t-99.5 -97t-160 -71q-57 -15 -128 -22.5t-177 -7.5h-300v1191h-383v147h546v-535z" />
    <glyph glyph-name="uni042B" unicode="&#x42b;" horiz-adv-x="1599" 
d="M1266 0v1338h163v-1338h-163zM170 1338h163v-535q52 4 73.5 5t50 2t51.5 1q70 0 131.5 -4.5t114.5 -15.5q91 -19 156.5 -52.5t107.5 -81t62 -107t20 -129.5q0 -52 -13.5 -107t-48 -108.5t-94 -97t-148.5 -71.5q-59 -18 -135 -27.5t-189 -9.5h-302v1338zM333 147h165
q94 0 165.5 12.5t119.5 34t76.5 49t43.5 58t20 60.5t5 57q0 39 -11 76t-36 66.5t-64.5 51.5t-95.5 35q-43 11 -96.5 15t-116.5 4q-22 0 -46.5 -1t-49 -2.5t-79.5 -6.5v-509z" />
    <glyph glyph-name="uni042C" unicode="&#x42c;" horiz-adv-x="1225" 
d="M333 803q54 4 74.5 5t49 2t55.5 1q66 0 125.5 -4t110.5 -13q97 -17 167 -50.5t115.5 -81.5t67.5 -108.5t22 -132.5q0 -52 -14 -108.5t-49.5 -109t-97 -96.5t-152.5 -71q-58 -17 -137.5 -26t-184.5 -10h-315v1338h163v-535zM333 147h171q100 0 171.5 12.5t120.5 34
t79.5 49t46.5 58.5t21 60.5t5 56.5q0 44 -14 82t-44 68.5t-77.5 52t-115.5 33.5q-40 7 -87.5 9.5t-101.5 2.5q-22 0 -47.5 -1t-48 -2.5t-79.5 -6.5v-509z" />
    <glyph glyph-name="uni042D" unicode="&#x42d;" horiz-adv-x="1183" 
d="M397 1218q-32 0 -68 -3.5t-72.5 -10t-71.5 -15t-65 -18.5v144q29 12 65.5 21t75.5 15t79.5 9t78.5 3q165 0 286.5 -49.5t201 -141.5t118 -222.5t38.5 -291.5q0 -160 -37.5 -287t-117.5 -215t-204.5 -134.5t-298.5 -46.5q-38 0 -79.5 3.5t-82 9.5t-77.5 15t-66 20v144
q29 -10 64.5 -18.5t74 -15t79 -10t77.5 -3.5q243 0 366.5 121t127.5 371h-683v147h681q-15 226 -136.5 342.5t-353.5 116.5z" />
    <glyph glyph-name="uni042E" unicode="&#x42e;" horiz-adv-x="1907" 
d="M1787 668q0 -146 -38.5 -272.5t-113.5 -220t-184 -147t-250 -53.5q-139 0 -245.5 48.5t-180 134t-114.5 202t-48 252.5h-280v-612h-163v1338h163v-579h283q12 130 55.5 240.5t117 191.5t177 126.5t233.5 45.5q145 0 255 -53.5t184 -147t111.5 -220.5t37.5 -274zM1615 668
q0 133 -31 235.5t-86.5 172.5t-132 106t-166.5 36q-91 0 -167 -36t-131.5 -106t-86.5 -172.5t-31 -235.5t31 -235t86.5 -171.5t132.5 -105.5t168 -36q90 0 166 36t131 105.5t86 171.5t31 235z" />
    <glyph glyph-name="uni042F" unicode="&#x42f;" horiz-adv-x="1251" 
d="M90 0l332 549v4q-72 21 -124 58t-86 85t-50.5 105t-16.5 120q0 92 31 168.5t90.5 131.5t146.5 86t199 31h469v-1338h-163v531h-327l-312 -531h-189zM624 1191q-150 0 -228.5 -69.5t-78.5 -194.5q0 -118 73 -183.5t218 -65.5h310v513h-294z" />
    <glyph glyph-name="uni0430" unicode="&#x430;" horiz-adv-x="1003" 
d="M706 105h-4q-19 -24 -48 -47.5t-67 -42t-83 -29.5t-96 -11q-69 0 -126.5 20.5t-99 60t-64.5 96.5t-23 129q0 71 25.5 127t71.5 95t110.5 60t142.5 21q74 -1 137 -13t112 -30h4v66q0 39 -5 69t-17 53q-26 48 -83 79.5t-154 31.5q-72 0 -135.5 -13.5t-126.5 -37.5v130
q24 12 56.5 22.5t68.5 18t76 11.5t80 4q144 0 235.5 -51t131.5 -135q15 -32 21.5 -70.5t6.5 -84.5v-634h-130zM698 417q-43 12 -102 23t-130 12q-99 0 -155 -42t-56 -129q0 -44 14 -77t38.5 -54.5t58 -32t71.5 -10.5q50 0 93 14.5t76.5 34.5t57 40t34.5 31v190z" />
    <glyph glyph-name="uni0431" unicode="&#x431;" horiz-adv-x="1074" 
d="M276 826q73 49 152 75.5t152 26.5q91 0 164.5 -29t125.5 -84.5t80.5 -137.5t28.5 -188q0 -118 -29.5 -213.5t-86 -162t-139 -102.5t-188.5 -36q-102 0 -182.5 39t-135.5 122t-84 213t-29 312q0 177 30.5 310t96.5 226t170 147t251 72l236 29v-164l-231 -28
q-95 -12 -165 -32.5t-117.5 -65.5t-73 -124.5t-30.5 -204.5h4zM548 795q-71 0 -146 -26.5t-134 -69.5q-2 -42 -3 -91q0 -129 20 -223t57 -155.5t89.5 -92t116.5 -30.5q62 0 111.5 24.5t84.5 72.5t54 118.5t19 161.5q0 84 -23 143t-60.5 96.5t-86 54.5t-99.5 17z" />
    <glyph glyph-name="uni0432" unicode="&#x432;" horiz-adv-x="1005" 
d="M723 494q34 -3 67.5 -17.5t60 -40.5t43 -65t16.5 -91q0 -87 -49.5 -154.5t-147.5 -100.5q-37 -12 -86.5 -18.5t-115.5 -6.5h-361v950h381q63 0 108 -6.5t79 -18.5q81 -29 122.5 -87.5t41.5 -134.5q0 -45 -13.5 -79.5t-35.5 -59t-51 -41t-59 -25.5v-4zM509 131
q54 0 91.5 5t63.5 15q46 18 65 50.5t19 76.5q0 51 -26 85t-72 50q-38 13 -105 13h-244v-295h208zM542 557q59 0 90 9q45 14 66.5 45t21.5 76q0 79 -65 111q-40 21 -126 21h-228v-262h241z" />
    <glyph glyph-name="uni0433" unicode="&#x433;" horiz-adv-x="846" 
d="M796 809h-491v-809h-155v950h646v-141z" />
    <glyph glyph-name="uni0434" unicode="&#x434;" horiz-adv-x="1191" 
d="M539 817q-9 -124 -31 -222t-55 -178.5t-75 -148t-92 -131.5l-3 -4h474v684h-218zM912 950v-817h149v-473h-149v340h-713v-340h-149v473h50q68 73 123 154t95 179t64 217t30 267h500z" />
    <glyph glyph-name="uni0435" unicode="&#x435;" horiz-adv-x="1019" 
d="M522 842q-53 0 -98.5 -21t-79.5 -57t-55 -84.5t-26 -103.5h480q0 56 -14.5 104.5t-42.5 84.5t-69 56.5t-95 20.5zM607 110q77 0 140.5 12.5t126.5 35.5v-129q-51 -25 -126 -39.5t-161 -14.5q-102 0 -191.5 26t-156.5 84t-105.5 151.5t-38.5 225.5q0 130 36 225.5
t96 159.5t138 96t163 32q80 0 149.5 -26.5t120.5 -83.5t80.5 -147t29.5 -216v-20.5t-1 -38.5h-652q0 -91 27.5 -154.5t75 -103t111.5 -57.5t138 -18z" />
    <glyph glyph-name="uni0436" unicode="&#x436;" horiz-adv-x="1373" 
d="M762 0h-151v465h-2l-390 -465h-189l408 477l-382 473h187l366 -465h2v465h151v-465h2l366 465h187l-382 -473l408 -477h-189l-390 465h-2v-465z" />
    <glyph glyph-name="uni0437" unicode="&#x437;" horiz-adv-x="879" 
d="M103 920q62 24 140 39t161 16q92 0 157.5 -19t110 -53.5t67 -83.5t22.5 -108q0 -47 -13.5 -82.5t-35.5 -61.5t-51 -43t-59 -26v-4q38 -5 72 -21t59.5 -43.5t40.5 -66.5t15 -91q0 -60 -22.5 -114t-71 -94.5t-125.5 -64.5t-190 -24q-81 0 -154.5 12.5t-140.5 41.5v127
q61 -22 127 -35t145 -14q80 0 132 12.5t83 35t43 53.5t12 67q0 74 -52.5 112t-159.5 38h-207v133h212q52 0 85.5 10t54.5 27.5t30 42t9 53.5q0 33 -13 60.5t-39.5 48t-67.5 32t-97 11.5q-75 -1 -138 -13.5t-141 -36.5v127z" />
    <glyph glyph-name="uni0438" unicode="&#x438;" horiz-adv-x="1121" 
d="M286 0h-136v950h155v-521q0 -140 -5 -206h4q28 46 68 104t87 121l376 502h136v-950h-155v521q0 110 5 206h-4q-28 -46 -68.5 -104t-87.5 -121z" />
    <glyph glyph-name="uni0439" unicode="&#x439;" horiz-adv-x="1121" 
d="M286 0h-136v950h155v-521q0 -140 -5 -206h4q28 46 68 104t87 121l376 502h136v-950h-155v521q0 110 5 206h-4q-28 -46 -68.5 -104t-87.5 -121zM571 1259q75 0 121.5 49t57.5 140h140q-4 -64 -27 -120.5t-63.5 -99t-98 -67.5t-131.5 -25q-73 0 -130 25t-96.5 67.5
t-61.5 99t-26 120.5h139q11 -91 55.5 -140t120.5 -49zM223 950z" />
    <glyph glyph-name="uni043A" unicode="&#x43a;" horiz-adv-x="975" 
d="M307 485l414 465h198l-429 -473l455 -477h-200l-438 465h-2v-465h-155v950h155v-465h2z" />
    <glyph glyph-name="uni043B" unicode="&#x43b;" horiz-adv-x="1076" 
d="M926 950v-950h-155v817h-252q-23 -196 -54 -334.5t-68.5 -231t-79 -147t-84 -81t-84 -34.5t-78.5 -8q-24 0 -41 3v161q13 -2 24 -2q37 -1 68.5 9t59 35.5t56 78.5t55 142.5t52.5 222t50 319.5h531z" />
    <glyph glyph-name="uni043C" unicode="&#x43c;" horiz-adv-x="1300" 
d="M605 0l-182 455q-58 143 -119 306h-9q7 -119 7 -303v-458h-152v950h219l170 -432q61 -153 107 -286h7q49 137 107 286l171 432h219v-950h-152v458q0 164 7 303h-9q-42 -114 -119 -306l-182 -455h-90z" />
    <glyph glyph-name="uni043D" unicode="&#x43d;" horiz-adv-x="1089" 
d="M784 0v425h-479v-425h-155v950h155v-392h479v392h155v-950h-155z" />
    <glyph glyph-name="uni043E" unicode="&#x43e;" horiz-adv-x="1092" 
d="M835 474q0 88 -21.5 156.5t-60 116t-91.5 72t-116 24.5t-116 -24.5t-91.5 -72t-60 -116t-21.5 -156.5q0 -87 21.5 -155.5t60.5 -115.5t92 -71.5t116 -24.5t115.5 24.5t91 71.5t60 115.5t21.5 155.5zM997 474q0 -112 -32 -204t-90.5 -157.5t-141.5 -101.5t-186 -36
q-106 0 -189.5 36t-142 101.5t-89.5 157.5t-31 204q0 113 32 205t90.5 158t142 102t186.5 36q105 0 189 -36t142 -102t89 -158t31 -205z" />
    <glyph glyph-name="uni043F" unicode="&#x43f;" horiz-adv-x="1069" 
d="M305 809v-809h-155v950h769v-950h-155v809h-459z" />
    <glyph glyph-name="uni0440" unicode="&#x440;" horiz-adv-x="1087" 
d="M830 484q0 83 -17.5 149t-52.5 112.5t-86 71.5t-118 25q-48 0 -87.5 -13t-71.5 -33t-55 -43t-37 -41v-497q49 -50 111.5 -79t134.5 -29q44 0 93 16.5t90.5 59t68.5 115.5t27 186zM992 486q0 -99 -19.5 -175.5t-51.5 -133.5t-75 -95.5t-89 -62t-93.5 -34t-89.5 -10.5
q-87 0 -151 28.5t-115 84.5h-3v-553h-155v1415h117l33 -108h3q13 20 33.5 39t55 40.5t83 37.5t105.5 16q80 0 154.5 -27t131.5 -86t91.5 -151.5t34.5 -224.5z" />
    <glyph glyph-name="uni0441" unicode="&#x441;" horiz-adv-x="898" 
d="M558 975q69 0 132 -14.5t108 -40.5v-129q-63 24 -116 36t-108 12q-58 0 -115 -19t-102 -62.5t-72.5 -115t-27.5 -177.5q0 -77 20.5 -142t61 -112.5t101.5 -74t141 -26.5q58 0 117 12.5t115 35.5v-129q-17 -10 -44.5 -20t-60.5 -17.5t-70 -12t-74 -4.5q-96 0 -181.5 29
t-149.5 89t-101 152t-37 218q0 94 19.5 169t53.5 132t79.5 97t97 65.5t106.5 37t107 11.5z" />
    <glyph glyph-name="uni0442" unicode="&#x442;" horiz-adv-x="901" 
d="M373 812h-323v138h801v-138h-323v-812h-155v812z" />
    <glyph glyph-name="uni0443" unicode="&#x443;" horiz-adv-x="982" 
d="M30 950h159l295 -745h6l299 745h163l-593 -1415h-154l203 484z" />
    <glyph glyph-name="uni0444" unicode="&#x444;" horiz-adv-x="1367" 
d="M608 -465v442q-121 7 -216.5 45t-161.5 102.5t-100.5 153t-34.5 196.5t34 197t99 153.5t161 103t219 45.5v475h151v-475q121 -7 216.5 -45t161.5 -102.5t100.5 -153t34.5 -196.5t-34 -197t-99.5 -153.5t-161 -103t-218.5 -45.5v-442h-151zM1114 476q0 85 -25 150.5
t-71.5 111.5t-112 72.5t-146.5 33.5v-738q81 7 146.5 33.5t112 73t71.5 112.5t25 151zM253 474q0 -85 25 -151t71.5 -112t112 -72.5t146.5 -32.5v738q-81 -7 -146.5 -33.5t-112 -73t-71.5 -112t-25 -151.5z" />
    <glyph glyph-name="uni0445" unicode="&#x445;" horiz-adv-x="952" 
d="M480 584l258 366h171l-347 -470l360 -480h-168l-278 380h-4l-274 -380h-168l360 484l-347 466h171l262 -366h4z" />
    <glyph glyph-name="uni0446" unicode="&#x446;" horiz-adv-x="1173" 
d="M150 0v950h155v-811h434v811h155v-811h149v-479h-149v340h-744z" />
    <glyph glyph-name="uni0447" unicode="&#x447;" horiz-adv-x="995" 
d="M690 398h-3q-41 -28 -106.5 -48t-147.5 -20q-57 0 -116 13.5t-105 49t-74 97.5t-28 159v301h155v-281q0 -45 8 -83t28.5 -65.5t56.5 -42.5t91 -15q69 0 132 19t109 55v413h155v-950h-155v398z" />
    <glyph glyph-name="uni0448" unicode="&#x448;" horiz-adv-x="1465" 
d="M1315 0h-1165v950h155v-817h350v817h155v-817h350v817h155v-950z" />
    <glyph glyph-name="uni0449" unicode="&#x449;" horiz-adv-x="1574" 
d="M150 0v950h155v-817h340v817h155v-817h340v817h155v-817h149v-473h-149v340h-1145z" />
    <glyph glyph-name="uni044A" unicode="&#x44a;" horiz-adv-x="1108" 
d="M437 584q44 6 90 9.5t86 3.5q110 -1 187 -23.5t125.5 -62.5t70.5 -93.5t22 -115.5q0 -79 -33.5 -138t-93 -97t-142 -57t-181.5 -19q-86 0 -157 9.5t-129 27.5v789h-282v133h437v-366zM582 123q127 0 200.5 44.5t73.5 131.5q0 35 -13.5 65t-43.5 52.5t-77 35.5t-115 13
q-54 -1 -91 -4t-79 -10v-315q31 -7 69 -10t76 -3z" />
    <glyph glyph-name="uni044B" unicode="&#x44b;" horiz-adv-x="1330" 
d="M1025 0v950h155v-950h-155zM450 123q127 0 200 44.5t74 131.5q0 35 -14.5 66t-43.5 52.5t-76 34.5t-115 13q-36 0 -76 -3t-94 -11v-315q28 -7 67.5 -10t77.5 -3zM305 950v-366q44 6 91 9.5t85 3.5q110 0 187 -23t125.5 -63t70.5 -93.5t22 -115.5q0 -79 -33.5 -138
t-93 -97t-142 -57t-181.5 -19q-86 0 -157 9.5t-129 27.5v922h155z" />
    <glyph glyph-name="uni044C" unicode="&#x44c;" horiz-adv-x="996" 
d="M455 123q65 0 118.5 10.5t91.5 32t58.5 55t20.5 78.5q0 36 -15 66.5t-47.5 52.5t-82.5 34.5t-120 12.5q-34 0 -77.5 -3t-96.5 -11v-315q31 -7 71.5 -10t78.5 -3zM305 950v-366q44 6 94.5 9.5t97.5 3.5q108 0 185 -22.5t127 -62t73.5 -93.5t23.5 -117q0 -81 -35 -140
t-97 -97t-147 -56t-186 -18q-86 0 -159.5 9.5t-131.5 27.5v922h155z" />
    <glyph glyph-name="uni044D" unicode="&#x44d;" horiz-adv-x="944" 
d="M370 975q89 0 174.5 -27t153.5 -87t109.5 -157.5t41.5 -238.5q0 -127 -37 -219.5t-103 -152.5t-156 -89t-203 -28q-69 0 -142 14.5t-118 38.5v126q60 -23 120 -35.5t125 -12.5q80 0 143.5 21.5t109 62t71 99.5t27.5 135h-506v133h501q-7 76 -39 130t-78 88.5t-101 50.5
t-108 16q-65 0 -123 -12.5t-125 -36.5v126q47 24 116 39.5t147 15.5z" />
    <glyph glyph-name="uni044E" unicode="&#x44e;" horiz-adv-x="1499" 
d="M305 425v-425h-155v950h155v-392h201q11 95 47.5 172t94 131.5t135 84t170.5 29.5q105 0 189 -36t142 -102t89 -158t31 -205q0 -112 -32 -204t-90.5 -157.5t-141.5 -101.5t-186 -36q-100 0 -180.5 32t-138 91t-91 142t-40.5 185h-199zM1242 474q0 88 -21.5 156.5t-60 116
t-91.5 72t-116 24.5t-116 -24.5t-91.5 -72t-60 -116t-21.5 -156.5q0 -87 21.5 -155.5t60.5 -115.5t92 -71.5t116 -24.5t115.5 24.5t91 71.5t60 115.5t21.5 155.5z" />
    <glyph glyph-name="uni044F" unicode="&#x44f;" horiz-adv-x="1023" 
d="M133 642q0 89 44 162t133 112q38 17 88.5 25.5t122.5 8.5h352v-950h-155v371h-234l-204 -371h-180l223 392q-45 11 -80 34.5t-59.5 56t-37.5 73.5t-13 86zM525 817q-48 0 -81 -4.5t-59 -16.5q-42 -19 -66 -55.5t-24 -91.5q0 -41 14 -69.5t40.5 -46t64 -25.5t84.5 -8h220
v317h-193z" />
    <glyph glyph-name="uni0450" unicode="&#x450;" horiz-adv-x="1019" 
d="M522 842q-53 0 -98.5 -21t-79.5 -57t-55 -84.5t-26 -103.5h480q0 56 -14.5 104.5t-42.5 84.5t-69 56.5t-95 20.5zM607 110q77 0 140.5 12.5t126.5 35.5v-129q-51 -25 -126 -39.5t-161 -14.5q-102 0 -191.5 26t-156.5 84t-105.5 151.5t-38.5 225.5q0 130 36 225.5
t96 159.5t138 96t163 32q80 0 149.5 -26.5t120.5 -83.5t80.5 -147t29.5 -216v-20.5t-1 -38.5h-652q0 -91 27.5 -154.5t75 -103t111.5 -57.5t138 -18zM469 1473l123 -349h-130l-161 349h168zM93 950z" />
    <glyph glyph-name="uni0451" unicode="&#x451;" horiz-adv-x="1019" 
d="M522 842q-53 0 -98.5 -21t-79.5 -57t-55 -84.5t-26 -103.5h480q0 56 -14.5 104.5t-42.5 84.5t-69 56.5t-95 20.5zM607 110q77 0 140.5 12.5t126.5 35.5v-129q-51 -25 -126 -39.5t-161 -14.5q-102 0 -191.5 26t-156.5 84t-105.5 151.5t-38.5 225.5q0 130 36 225.5
t96 159.5t138 96t163 32q80 0 149.5 -26.5t120.5 -83.5t80.5 -147t29.5 -216v-20.5t-1 -38.5h-652q0 -91 27.5 -154.5t75 -103t111.5 -57.5t138 -18zM255 1171v167h159v-167h-159zM636 1171v167h159v-167h-159zM175 950z" />
    <glyph glyph-name="uni0452" unicode="&#x452;" horiz-adv-x="1134" 
d="M30 1285h167v163h155v-163h402v-133h-402v-366h3q61 60 134 90.5t145 30.5q89 0 161 -35.5t122.5 -106t78.5 -174t28 -240.5q0 -133 -26.5 -252.5t-83 -210.5t-145.5 -144t-214 -54q-15 0 -28 1v143h16q96 1 158 43.5t97 115.5t48.5 168.5t13.5 201.5q0 92 -16 167.5
t-47 129.5t-77.5 84t-106.5 30q-68 -1 -135 -38.5t-126 -98.5v-637h-155v1152h-167v133z" />
    <glyph glyph-name="uni0453" unicode="&#x453;" horiz-adv-x="846" 
d="M796 809h-491v-809h-155v950h646v-141zM697 1473l-161 -349h-130l123 349h168zM191 950z" />
    <glyph glyph-name="uni0454" unicode="&#x454;" horiz-adv-x="943" 
d="M573 975q78 0 147 -15.5t116 -39.5v-126q-67 24 -126 36.5t-122 12.5q-55 0 -111 -16t-102.5 -50.5t-78 -88.5t-38.5 -130h517v-133h-522q2 -76 28 -135t71.5 -99.5t109 -62t141.5 -21.5q69 0 128.5 12t121.5 36v-126q-38 -21 -110.5 -37t-157.5 -17q-105 0 -195 28.5
t-155.5 87.5t-102.5 151.5t-37 219.5q0 94 19 168.5t52.5 131.5t79 97.5t98.5 66t111.5 37.5t117.5 12z" />
    <glyph glyph-name="uni0455" unicode="&#x455;" horiz-adv-x="828" 
d="M250 697q0 -39 17 -64t45.5 -40.5t66 -25.5t77.5 -18q55 -12 104 -26.5t90.5 -43.5t67 -78.5t25.5 -128.5q0 -72 -28 -127.5t-79 -93t-122 -57t-156 -19.5q-52 0 -94.5 5.5t-75 14t-55.5 17.5t-38 17v130q60 -24 119 -38t130 -14q56 0 101 10t77.5 29.5t50 49t17.5 68.5
q0 40 -16 66t-43 43t-62.5 28t-74.5 20q-51 11 -103.5 26t-95.5 42t-69.5 73.5t-26.5 119.5q0 75 27 130t73 91t107 54t129 18q79 0 146.5 -15t122.5 -38v-132q-60 23 -121.5 37.5t-126.5 15.5q-55 0 -94 -11t-64 -30.5t-36.5 -46t-11.5 -58.5z" />
    <glyph glyph-name="uni0456" unicode="&#x456;" horiz-adv-x="475" 
d="M160 0v950h155v-950h-155zM156 1171v173h163v-173h-163z" />
    <glyph glyph-name="uni0457" unicode="&#x457;" horiz-adv-x="475" 
d="M160 0v950h155v-950h-155zM-34 1171v167h159v-167h-159zM347 1171v167h159v-167h-159z" />
    <glyph glyph-name="uni0458" unicode="&#x458;" horiz-adv-x="494" 
d="M334 -212q0 -131 -75 -204.5t-238 -73.5q-43 0 -82.5 6.5t-58.5 13.5v132q30 -8 60 -12.5t62 -4.5q95 0 136 39t41 122v1144h155v-1162zM175 1171v173h163v-173h-163z" />
    <glyph glyph-name="uni0459" unicode="&#x459;" horiz-adv-x="1597" 
d="M926 584q44 6 91 9.5t85 3.5q110 0 187 -23t125.5 -63t70.5 -93.5t22 -115.5q0 -79 -33.5 -138t-93 -97t-142 -57t-181.5 -19q-86 0 -157 9.5t-129 27.5v789h-252q-23 -196 -54 -334.5t-68.5 -231.5t-79 -147t-84.5 -80.5t-84 -34.5t-82 -8q-23 0 -37 3v161q12 -2 24 -2
q36 0 66.5 8.5t59.5 35t57.5 79.5t55 142.5t52.5 222t50 319.5h531v-366zM1071 123q127 0 200.5 44.5t73.5 131.5q0 35 -13.5 65t-43.5 52.5t-77 35.5t-115 13q-34 0 -81 -3.5t-89 -10.5v-315q31 -7 69 -10t76 -3z" />
    <glyph glyph-name="uni045A" unicode="&#x45a;" horiz-adv-x="1539" 
d="M878 584q44 6 88.5 9.5t91.5 3.5q105 0 180.5 -23.5t122 -64t67.5 -94t21 -113.5q0 -78 -32.5 -136.5t-90.5 -97t-139 -58t-178 -19.5q-86 0 -157 9.5t-129 27.5v417h-418v-445h-155v950h155v-372h418v372h155v-366zM1023 123q124 0 194 44.5t70 131.5q0 35 -12.5 65
t-41 52.5t-74 35.5t-111.5 13q-24 0 -69.5 -2.5t-100.5 -11.5v-315q30 -7 68 -10t77 -3z" />
    <glyph glyph-name="uni045B" unicode="&#x45b;" horiz-adv-x="1145" 
d="M30 1285h167v163h155v-163h392v-133h-392v-398h3q51 66 127 109t180 44q42 0 89.5 -8.5t91 -31.5t79.5 -63t56 -102q9 -28 13 -65.5t4 -82.5v-554h-155v528q0 76 -13 118q-22 67 -72.5 97.5t-117.5 30.5q-84 -1 -157.5 -46t-127.5 -123v-605h-155v1152h-167v133z" />
    <glyph glyph-name="uni045C" unicode="&#x45c;" horiz-adv-x="975" 
d="M307 485l414 465h198l-429 -473l455 -477h-200l-438 465h-2v-465h-155v950h155v-465h2zM730 1473l-161 -349h-130l123 349h168zM224 950z" />
    <glyph glyph-name="uni045D" unicode="&#x45d;" horiz-adv-x="1121" 
d="M286 0h-136v950h155v-521q0 -140 -5 -206h4q28 46 68 104t87 121l376 502h136v-950h-155v521q0 110 5 206h-4q-28 -46 -68.5 -104t-87.5 -121zM516 1473l123 -349h-130l-161 349h168zM140 950z" />
    <glyph glyph-name="uni045E" unicode="&#x45e;" horiz-adv-x="982" 
d="M30 950h159l295 -745h6l299 745h163l-593 -1415h-154l203 484zM490 1259q75 0 121.5 49t57.5 140h140q-4 -64 -27 -120.5t-63.5 -99t-98 -67.5t-131.5 -25q-73 0 -130 25t-96.5 67.5t-61.5 99t-26 120.5h139q11 -91 55.5 -140t120.5 -49zM142 950z" />
    <glyph glyph-name="uni045F" unicode="&#x45f;" horiz-adv-x="1069" 
d="M610 -340h-149v340h-311v950h155v-811h459v811h155v-950h-309v-340z" />
    <glyph glyph-name="uni0462" unicode="&#x462;" horiz-adv-x="1317" 
d="M425 1176h480v-147h-480v-226q46 4 97 6t82 2q66 0 125.5 -4t110.5 -13q97 -17 167 -50.5t115.5 -81.5t67.5 -108.5t22 -132.5q0 -53 -14 -108.5t-49.5 -108.5t-96 -97t-153.5 -71q-62 -17 -144 -26t-178 -10h-315v1029h-242v147h242v162h163v-162zM425 147h171
q100 0 172 12.5t121 34t79 49t46 58t21 60.5t5 57q0 44 -14 82t-44 68.5t-77.5 52t-115.5 33.5q-40 7 -87.5 9.5t-101.5 2.5q-31 0 -76.5 -2.5t-98.5 -7.5v-509z" />
    <glyph glyph-name="uni0463" unicode="&#x463;" horiz-adv-x="1046" 
d="M535 123q65 0 118.5 10.5t91.5 32t58.5 55t20.5 78.5q0 36 -15 66.5t-47.5 52.5t-82.5 34.5t-120 12.5q-15 0 -36.5 -1t-45 -2.5t-47.5 -4t-45 -6.5v-315q31 -8 71.5 -10.5t78.5 -2.5zM30 817v133h200v498h155v-498h319v-133h-319v-233q44 6 94 9.5t92 3.5
q110 0 188.5 -22.5t129 -62t74 -93.5t23.5 -117q0 -81 -35 -140t-97 -97t-147 -56t-186 -18q-86 0 -159.5 9.5t-131.5 27.5v789h-200z" />
    <glyph glyph-name="uni0472" unicode="&#x472;" horiz-adv-x="1444" 
d="M1334 668q0 -150 -42.5 -277t-122 -219.5t-192 -144.5t-253.5 -52q-145 0 -259.5 52t-193 144.5t-120 219.5t-41.5 277q0 151 42.5 278.5t122 220t193 144.5t254.5 52q145 0 258.5 -52t192 -144.5t120 -220t41.5 -278.5zM724 120q90 0 168.5 31.5t137 94t93 154.5
t36.5 212h-874q2 -120 36.5 -212t93.5 -154.5t138.5 -94t170.5 -31.5zM722 1218q-88 0 -164.5 -29.5t-134.5 -87.5t-93.5 -144t-42.5 -198h869q-6 112 -42 198t-94 144t-134.5 87.5t-163.5 29.5z" />
    <glyph glyph-name="uni0473" unicode="&#x473;" horiz-adv-x="1072" 
d="M977 474q0 -112 -30 -204t-87 -157.5t-138.5 -101.5t-184.5 -36q-106 0 -188 36t-138.5 101.5t-86 157.5t-29.5 204q0 113 30 205t87 158t139 102t185 36q105 0 187.5 -36t138.5 -102t85.5 -158t29.5 -205zM537 107q58 0 107 21t86 61.5t60 99t28 134.5h-564
q5 -76 28 -134.5t60 -99t87 -61.5t108 -21zM536 843q-55 0 -103 -19t-84.5 -56t-60 -90t-31.5 -122h558q-8 69 -32 122t-61 90t-84 56t-102 19z" />
    <glyph glyph-name="uni0474" unicode="&#x474;" horiz-adv-x="1342" 
d="M693 0h-143l-510 1338h176l254 -678q81 -217 152 -438h4q81 238 150 438l163 467q26 73 57.5 119t70.5 72t85 35.5t99 9.5q24 0 51 -2v-151q-19 1 -29 1q-40 0 -67.5 -5.5t-49 -22t-40 -48t-37.5 -84.5z" />
    <glyph glyph-name="uni0475" unicode="&#x475;" horiz-adv-x="1038" 
d="M674 745q25 72 55 117t65 70t74.5 34t83.5 9q19 0 36 -1v-136q-37 0 -64 -5.5t-47.5 -21.5t-36.5 -44.5t-33 -74.5l-249 -692h-158l-370 950h167l223 -608q38 -100 57 -164h4q43 131 72 216z" />
    <glyph glyph-name="uni0490" unicode="&#x490;" horiz-adv-x="1101" 
d="M333 1191v-1191h-163v1338h718v378h163v-525h-718z" />
    <glyph glyph-name="uni0491" unicode="&#x491;" horiz-adv-x="900" 
d="M691 950v295h149v-436h-535v-809h-155v950h541z" />
    <glyph glyph-name="Wgrave" unicode="&#x1e80;" horiz-adv-x="1806" 
d="M901 1117q-16 -92 -75 -322l-208 -795h-166l-412 1338h171l226 -785q54 -189 92 -340h4q20 93 43.5 181t41.5 157l204 787h162l204 -787q75 -284 85 -338h4q34 140 92 340l226 785h171l-412 -1338h-166l-208 795q-57 222 -75 322h-4zM833 1656l146 -247h-139l-181 247
h174zM508 1338z" />
    <glyph glyph-name="wgrave" unicode="&#x1e81;" horiz-adv-x="1458" 
d="M726 793q-31 -131 -58 -226l-156 -567h-159l-313 950h157l176 -592q35 -117 53 -187h4q16 72 53 208l159 571h174l159 -571q32 -116 53 -208h4q24 92 53 187l176 592h157l-313 -950h-161l-156 567q-28 101 -58 226h-4zM672 1473l123 -349h-130l-161 349h168zM296 950z
" />
    <glyph glyph-name="Wacute" unicode="&#x1e82;" horiz-adv-x="1806" 
d="M901 1117q-16 -92 -75 -322l-208 -795h-166l-412 1338h171l226 -785q54 -189 92 -340h4q20 93 43.5 181t41.5 157l204 787h162l204 -787q75 -284 85 -338h4q34 140 92 340l226 785h171l-412 -1338h-166l-208 795q-57 222 -75 322h-4zM1150 1656l-181 -247h-139l146 247
h174zM680 1338z" />
    <glyph glyph-name="wacute" unicode="&#x1e83;" horiz-adv-x="1458" 
d="M726 793q-31 -131 -58 -226l-156 -567h-159l-313 950h157l176 -592q35 -117 53 -187h4q16 72 53 208l159 571h174l159 -571q32 -116 53 -208h4q24 92 53 187l176 592h157l-313 -950h-161l-156 567q-28 101 -58 226h-4zM960 1473l-161 -349h-130l123 349h168zM454 950z
" />
    <glyph glyph-name="Wdieresis" unicode="&#x1e84;" horiz-adv-x="1806" 
d="M901 1117q-16 -92 -75 -322l-208 -795h-166l-412 1338h171l226 -785q54 -189 92 -340h4q20 93 43.5 181t41.5 157l204 787h162l204 -787q75 -284 85 -338h4q34 140 92 340l226 785h171l-412 -1338h-166l-208 795q-57 222 -75 322h-4zM632 1448v169h161v-169h-161z
M1015 1448v169h161v-169h-161zM554 1338z" />
    <glyph glyph-name="wdieresis" unicode="&#x1e85;" horiz-adv-x="1458" 
d="M726 793q-31 -131 -58 -226l-156 -567h-159l-313 950h157l176 -592q35 -117 53 -187h4q16 72 53 208l159 571h174l159 -571q32 -116 53 -208h4q24 92 53 187l176 592h157l-313 -950h-161l-156 567q-28 101 -58 226h-4zM459 1171v167h159v-167h-159zM840 1171v167h159
v-167h-159zM379 950z" />
    <glyph glyph-name="Ygrave" unicode="&#x1ef2;" horiz-adv-x="1217" 
d="M690 538v-538h-163v538l-487 800h178l388 -650h5l388 650h178zM540 1656l146 -247h-139l-181 247h174zM215 1338z" />
    <glyph glyph-name="ygrave" unicode="&#x1ef3;" horiz-adv-x="982" 
d="M30 950h159l295 -745h6l299 745h163l-593 -1415h-154l203 484zM448 1473l123 -349h-130l-161 349h168zM72 950z" />
    <glyph glyph-name="endash" unicode="&#x2013;" horiz-adv-x="1000" 
d="M0 558h1000v-125h-1000v125z" />
    <glyph glyph-name="emdash" unicode="&#x2014;" horiz-adv-x="1700" 
d="M0 558h1700v-125h-1700v125z" />
    <glyph glyph-name="uni2015" unicode="&#x2015;" horiz-adv-x="1700" 
d="M0 558h1700v-125h-1700v125z" />
    <glyph glyph-name="quoteleft" unicode="&#x2018;" horiz-adv-x="449" 
d="M60 1338h143l176 -494h-173z" />
    <glyph glyph-name="quoteright" unicode="&#x2019;" horiz-adv-x="449" 
d="M216 1338h173l-176 -494h-143z" />
    <glyph glyph-name="quotesinglbase" unicode="&#x201a;" horiz-adv-x="449" 
d="M169 226h173l-176 -494h-143z" />
    <glyph glyph-name="quotedblleft" unicode="&#x201c;" horiz-adv-x="809" 
d="M80 1338h143l156 -494h-173zM419 1338h145l175 -494h-175z" />
    <glyph glyph-name="quotedblright" unicode="&#x201d;" horiz-adv-x="809" 
d="M216 1338h173l-176 -494h-143zM574 1338h175l-205 -494h-145z" />
    <glyph glyph-name="quotedblbase" unicode="&#x201e;" horiz-adv-x="809" 
d="M169 226h173l-176 -494h-143zM527 226h175l-205 -494h-145z" />
    <glyph glyph-name="dagger" unicode="&#x2020;" horiz-adv-x="951" 
d="M550 1148l-46 -202l4 -4l166 45h157v-137h-157l-166 45l-4 -4l46 -202l-44 -560h-61l-44 560l46 202l-4 4l-166 -45h-157v137h157l166 -45l4 4l-46 202v190h149v-190z" />
    <glyph glyph-name="daggerdbl" unicode="&#x2021;" horiz-adv-x="951" 
d="M401 689l46 202l-4 4l-166 -45h-157v137h157l166 -45l4 4l-46 202v190h149v-190l-46 -202l4 -4l166 45h157v-137h-157l-166 45l-4 -4l46 -202v-40l-46 -202l4 -4l166 45h157v-137h-157l-166 45l-4 -4l46 -202v-190h-149v190l46 202l-4 4l-166 -45h-157v137h157l166 -45
l4 4l-46 202v40z" />
    </font>
</defs>
</svg>
